<svg width="111" height="60" viewBox="0 0 111 60" fill="none" xmlns="http://www.w3.org/2000/svg">
<g clip-path="url(#clip0_82_1431)">
<g clip-path="url(#clip1_82_1431)">
<g clip-path="url(#clip2_82_1431)">
<g clip-path="url(#clip3_82_1431)">
<g clip-path="url(#clip4_82_1431)">
<g clip-path="url(#clip5_82_1431)">
<g clip-path="url(#clip6_82_1431)">
<path d="M0.118164 37.4215H2.91035V55.0733C2.91035 55.8007 3.08794 56.3356 3.44311 56.678C3.79401 57.0203 4.33319 57.1915 5.06065 57.1915H13.0521L13.1805 59.3739C11.7897 59.4809 10.3733 59.5451 8.9312 59.5665C7.48483 59.5878 6.04487 59.5985 4.61134 59.5985C2.98524 59.5985 1.82985 59.2027 1.14517 58.4111C0.460501 57.6194 0.118164 56.6245 0.118164 55.4263V37.4215ZM23.7715 43.5515C24.9269 43.5515 25.9047 43.7056 26.7049 44.0137C27.5094 44.326 28.1149 44.846 28.5214 45.5734C28.928 46.3009 29.1312 47.2958 29.1312 48.5582V59.5665H26.9809L26.5637 56.1645L26.3711 55.8114V48.5582C26.3711 47.5954 26.1508 46.9043 25.71 46.4849C25.2735 46.0698 24.4348 45.8623 23.1938 45.8623C22.3808 45.8623 21.358 45.9051 20.1256 45.9907C18.8975 46.0762 17.6843 46.1725 16.4862 46.2795L16.2294 44.2576C16.9569 44.1292 17.7528 44.0115 18.6172 43.9045C19.4859 43.7976 20.3695 43.712 21.2682 43.6478C22.1668 43.5836 23.0013 43.5515 23.7715 43.5515ZM19.856 49.9382H27.8475L27.8154 51.9922L20.3374 52.0243C19.5886 52.0457 19.0644 52.2426 18.7648 52.6149C18.4653 52.9914 18.3155 53.5114 18.3155 54.1746V55.1696C18.3155 55.9826 18.5081 56.5753 18.8932 56.9476C19.2783 57.3241 19.8988 57.5124 20.7547 57.5124C21.3538 57.5124 22.032 57.399 22.7894 57.1722C23.5511 56.9497 24.3171 56.6031 25.0874 56.1324C25.8576 55.6617 26.5637 55.0626 27.2056 54.3351V56.357C26.9702 56.6566 26.6322 57.0032 26.1914 57.3969C25.7549 57.7949 25.2307 58.18 24.6188 58.5523C24.0111 58.9288 23.3372 59.2391 22.5969 59.483C21.8608 59.7312 21.0649 59.8553 20.2091 59.8553C19.289 59.8553 18.476 59.6884 17.7699 59.3546C17.0638 59.0251 16.5118 58.533 16.1139 57.8783C15.7202 57.2279 15.5233 56.4319 15.5233 55.4905V53.7895C15.5233 52.5699 15.902 51.6221 16.6595 50.946C17.4212 50.2741 18.4867 49.9382 19.856 49.9382ZM43.5094 43.5515C46.3337 43.5515 47.7458 44.985 47.7458 47.8521V59.5665H45.0178V48.6224C45.0178 47.574 44.8466 46.8508 44.5043 46.4528C44.162 46.0591 43.5843 45.8623 42.7712 45.8623C41.8084 45.8623 40.8456 46.0976 39.8827 46.5683C38.9199 47.0391 37.7752 47.6809 36.4487 48.494L36.3203 46.5363C37.5399 45.5948 38.7488 44.8609 39.9469 44.3346C41.1451 43.8125 42.3326 43.5515 43.5094 43.5515ZM34.0095 43.9366H36.3203L36.545 46.9214L36.7375 47.4028V59.5665H34.0095V43.9366ZM62.2459 43.9366H65.4232L60.5128 49.6815C60.3631 49.874 60.1812 50.0709 59.9672 50.272C59.7533 50.4774 59.5714 50.6336 59.4216 50.7406V50.8048C59.5714 50.9117 59.7533 51.0872 59.9672 51.3311C60.1812 51.5793 60.3631 51.8211 60.5128 52.0564L65.9367 59.5665H62.7594L56.5653 50.6122L62.2459 43.9366ZM52.6498 37.1006H55.3778L55.4099 47.0818C55.4099 47.7451 55.3842 48.3613 55.3328 48.9305C55.2772 49.4953 55.1959 50.088 55.0889 50.7085C55.1959 51.3076 55.2708 51.9067 55.3136 52.5058C55.3564 53.1048 55.3778 53.6825 55.3778 54.2388V59.5665H52.6498V37.1006ZM54.415 49.7457H58.0416V51.7355H54.415V49.7457ZM69.0178 37.1006H71.7458L71.7137 55.2658C71.7137 55.9505 71.902 56.4683 72.2785 56.8192C72.6508 57.1744 73.1793 57.352 73.864 57.352H75.3724L75.6933 59.4381C75.5008 59.5237 75.229 59.5985 74.8782 59.6627C74.523 59.7269 74.1592 59.7761 73.7869 59.8104C73.4104 59.8403 73.0937 59.8553 72.837 59.8553C71.6816 59.8553 70.7573 59.513 70.064 58.8283C69.3665 58.1436 69.0178 57.1594 69.0178 55.8756V37.1006ZM78.4213 43.9366H81.1493V54.9128C81.1279 55.897 81.3098 56.5924 81.6949 56.9989C82.0801 57.4054 82.7219 57.6087 83.6206 57.6087C84.4978 57.6087 85.3686 57.399 86.233 56.9797C87.1017 56.5646 88.1458 55.9612 89.3654 55.1696L89.7185 57.0631C88.4989 58.0259 87.3157 58.7534 86.1688 59.2455C85.0263 59.7376 83.8666 59.9837 82.6898 59.9837C79.8442 59.9837 78.4213 58.5501 78.4213 55.6831V43.9366ZM89.0766 43.9366H91.8046V59.5665H89.6222L89.3654 56.6138L89.0766 56.1324V43.9366ZM105.22 43.5515C107.146 43.5515 108.568 44.1763 109.488 45.4258C110.408 46.6796 110.868 48.7721 110.868 51.7034C110.868 53.0514 110.755 54.2388 110.528 55.2658C110.306 56.2929 109.931 57.153 109.405 57.8462C108.883 58.5437 108.177 59.0679 107.287 59.4188C106.401 59.774 105.284 59.9516 103.936 59.9516C103.401 59.9516 102.824 59.9302 102.203 59.8874C101.583 59.8446 100.951 59.7761 100.31 59.682C99.6676 59.5836 99.0407 59.4638 98.4288 59.3225C97.8211 59.1856 97.2606 59.0209 96.7471 58.8283L98.9295 56.9668C99.5072 57.138 100.078 57.2771 100.643 57.3841C101.212 57.491 101.769 57.5595 102.312 57.5895C102.86 57.6237 103.38 57.6408 103.872 57.6408C104.878 57.6194 105.684 57.4268 106.292 57.0631C106.904 56.6994 107.349 56.0832 107.627 55.2145C107.905 54.3501 108.044 53.1797 108.044 51.7034C108.044 50.2699 107.937 49.1316 107.723 48.2886C107.509 47.4413 107.128 46.8358 106.581 46.4721C106.037 46.1083 105.263 45.9265 104.257 45.9265C103.401 45.9265 102.588 46.1554 101.818 46.6133C101.048 47.0754 100.16 47.7023 99.1541 48.494L98.9616 46.6646C99.6034 45.98 100.26 45.4065 100.932 44.9444C101.608 44.4865 102.31 44.1399 103.038 43.9045C103.765 43.6692 104.492 43.5515 105.22 43.5515ZM96.7471 37.1006H99.4751V42.9417C99.4751 43.605 99.4579 44.2148 99.4237 44.7711C99.3938 45.3274 99.3146 45.8944 99.1862 46.4721L99.443 46.9214L99.4751 58.9567L96.7471 58.8283V37.1006Z" fill="#FBFBFB"/>
</g>
</g>
</g>
</g>
<g clip-path="url(#clip7_82_1431)">
<g clip-path="url(#clip8_82_1431)">
<path d="M64.8876 19.8999L61.7712 21.6262C59.8549 22.6869 57.6836 23.2487 55.4923 23.2487C53.3028 23.2487 51.1319 22.6873 49.2139 21.6262L45.3918 19.5088C45.4396 21.2829 45.3649 23.1679 44.6418 24.6718C44.4424 25.0824 44.0435 25.4539 44.0509 25.9476C44.0596 26.6324 44.8382 26.7479 45.3988 26.6437C45.3988 26.6437 48.7029 26.0101 53.2749 30.4909C53.729 30.9363 54.177 31.3552 54.7923 31.5729C55.9964 32 56.8915 31.2622 57.7188 30.4831C58.282 29.9534 58.9098 29.4937 59.5408 29.0466C61.0555 27.9763 62.9779 26.6306 64.9076 26.598C64.9076 26.598 67.397 27.1412 65.9487 24.833C65.9487 24.833 65.2852 22.6947 64.8876 19.8999Z" fill="#FBFBFB"/>
<path d="M40.2839 18.1792L39.5596 22.5244V28.3183H42.4565V22.5244L41.7322 18.1792V14.1702L40.2839 13.3677V18.1792Z" fill="#FBFBFB"/>
<path d="M74.3946 9.1037L60.3686 1.33485C57.333 -0.346318 53.6526 -0.346318 50.6187 1.33485L36.5906 9.1037C35.7224 9.58515 35.7224 10.8401 36.5906 11.3224L40.284 13.3672V10.213H56.9411V11.6613H41.7323V14.1698L50.6183 19.0917C53.6521 20.772 57.3326 20.772 60.3681 19.0917L74.3941 11.3228C75.2645 10.8401 75.2645 9.58558 74.3946 9.1037Z" fill="#FBFBFB"/>
</g>
</g>
<path d="M110.872 29.3547H77.2871V31.4184H110.872V29.3547Z" fill="#FBFBFB"/>
<path d="M33.6996 29.3547H0.115234V31.4184H33.6996V29.3547Z" fill="#FBFBFB"/>
<path d="M110.872 25.2275H77.2871V27.2912H110.872V25.2275Z" fill="#FBFBFB"/>
<path d="M33.6996 25.2275H0.115234V27.2912H33.6996V25.2275Z" fill="#FBFBFB"/>
</g>
</g>
</g>
<defs>
<clipPath id="clip0_82_1431">
<rect width="110.974" height="59.926" fill="white" transform="translate(0.00683594 0.065918)"/>
</clipPath>
<clipPath id="clip1_82_1431">
<rect width="110.757" height="59.9097" fill="white" transform="translate(0.115234 0.0739746)"/>
</clipPath>
<clipPath id="clip2_82_1431">
<rect width="110.757" height="59.9097" fill="white" transform="translate(0.115234 0.0739746)"/>
</clipPath>
<clipPath id="clip3_82_1431">
<rect width="110.757" height="22.8831" fill="white" transform="translate(0.115234 37.1006)"/>
</clipPath>
<clipPath id="clip4_82_1431">
<rect width="110.757" height="22.8831" fill="white" transform="translate(0.115234 37.1006)"/>
</clipPath>
<clipPath id="clip5_82_1431">
<rect width="110.757" height="22.8831" fill="white" transform="translate(0.115234 37.1006)"/>
</clipPath>
<clipPath id="clip6_82_1431">
<rect width="110.757" height="22.8831" fill="white" transform="translate(0.115234 37.1006)"/>
</clipPath>
<clipPath id="clip7_82_1431">
<rect width="43.5879" height="31.6244" fill="white" transform="translate(33.6992 0.0739746)"/>
</clipPath>
<clipPath id="clip8_82_1431">
<rect width="39.1075" height="31.6244" fill="white" transform="translate(35.9395 0.0739746)"/>
</clipPath>
</defs>
</svg>
