<svg width="121" height="164" viewBox="0 0 121 164" fill="none" xmlns="http://www.w3.org/2000/svg">
<path d="M11.3819 125.858C30.6608 134.218 65.9508 116.806 72.7744 94.5521C73.1751 93.4247 73.3284 92.2298 73.4935 91.1926C54.2004 95.6604 34.8968 93.4772 32.4136 82.9036C30.2483 73.3446 45.3375 64.4811 55.8902 66.2828C68.4097 68.4673 77.6306 75.1617 79.1244 85.4646C91.4566 81.8775 103.306 75.0663 109.303 64.4912C119.365 46.6782 103.161 34.0554 82.9733 36.2688C80.8178 36.6074 81.5957 34.037 83.7511 33.6984C111.466 28.4401 127.503 48.5931 110.021 70.8715C103.153 79.5082 91.5147 85.9132 79.1943 89.6581C78.3441 101.021 66.493 114.326 51.8988 123.324C34.9838 133.699 18.789 134.221 7.98962 129.104C6.23448 128.316 9.63929 125.226 11.3819 125.858ZM61.7777 73.7669C57.7501 71.7385 52.5093 69.6879 46.043 70.7037C39.8127 71.6291 38.115 78.1228 38.0678 80.738C38.0672 83.9846 41.5767 85.5621 44.8037 86.5986C51.528 89.0547 62.4461 89.2558 73.4236 86.9988C72.2587 81.1146 67.3363 76.8321 61.7777 73.7669Z" fill="#C3C3C3"/>
<path d="M5.2469 120.728C11.8347 118.211 18.6812 115.918 25.1159 114.59C27.7388 114.073 26.7389 116.879 24.127 117.554C18.9039 118.904 13.5043 121.129 8.33992 123.264C8.72781 125.216 9.12747 127.327 9.75066 129.19C10.3386 130.581 12.1617 132.309 10.8674 134.42C10.2203 135.476 9.04396 135.925 7.84406 136.06C4.96202 136.354 4.71545 133.053 4.11574 131.505C3.19854 128.945 2.76406 126.364 2.55269 123.535C2.48228 122.593 3.83524 121.267 5.2469 120.728Z" fill="#C3C3C3"/>
</svg>
