<svg width="100" height="87" viewBox="0 0 100 87" fill="none" xmlns="http://www.w3.org/2000/svg">
<path d="M49.0148 67.7915C48.2167 67.6258 44.4736 68.2706 40.9064 66.3481C40.737 66.2568 40.5513 66.1998 40.3599 66.1802C40.1685 66.1607 39.9751 66.1791 39.7908 66.2343C39.6064 66.2895 39.4348 66.3804 39.2856 66.502C39.1365 66.6235 39.0127 66.7733 38.9214 66.9426C38.8301 67.112 38.7731 67.2977 38.7535 67.4891C38.734 67.6805 38.7524 67.8739 38.8076 68.0582C38.8628 68.2426 38.9538 68.4142 39.0753 68.5634C39.1968 68.7125 39.3466 68.8363 39.5159 68.9276C39.8199 69.0913 40.1245 69.2401 40.4298 69.3754C37.4408 70.6883 35.0259 73.0582 33.6152 76.5612C32.2767 73.2842 29.9827 70.7928 26.7976 69.3715C30.046 67.9219 32.306 65.3868 33.6152 62.1825C33.8956 62.8747 34.1515 63.3555 34.1613 63.3754C34.3403 63.7174 34.647 63.9749 35.0148 64.092C35.3826 64.2091 35.7817 64.1763 36.1255 64.0008C36.4693 63.8254 36.7299 63.5213 36.8508 63.1548C36.9717 62.7882 36.9431 62.3888 36.7712 62.0432C36.7669 62.0237 34.9933 58.7866 35.2029 54.4782C35.3226 53.6706 34.7566 52.8678 33.8935 52.709C33.1079 52.5543 32.2376 53.0526 32.0353 53.935C31.9306 54.3922 32.6884 62.3038 26.947 65.9745C23.2093 68.3588 18.966 67.6178 18.1753 67.7971C16.504 68.1776 16.5054 70.5659 18.1753 70.9461C18.9562 71.1221 23.2827 70.383 27.0216 72.8168C32.574 76.4344 31.9613 84.1358 31.9984 84.4807C31.9984 86.2871 34.5798 86.6938 35.1495 84.9313C35.3423 84.3311 34.5316 76.693 40.0138 72.9391C43.6257 70.4641 48.1019 71.061 48.8808 70.9733C50.6632 70.7731 50.8226 68.1739 49.0148 67.7915ZM98.4306 39.209C95.7523 38.9116 76.6603 41.5934 68.3163 24.0747C63.93 14.8598 65.055 6.50612 64.8159 5.45807C64.6007 4.51589 63.7099 3.95143 62.8581 4.06022C61.8868 4.17018 61.2425 4.97448 61.2425 5.78424V9.58581C60.5806 22.6546 54.6333 33.7795 42.1447 37.6954C34.9327 39.9577 28.6718 38.9805 27.5029 39.2362C25.6283 39.6616 25.6142 42.354 27.5228 42.778C29.1572 43.1229 41.4536 41.1307 51.0027 49.061C51.3025 49.3011 51.6846 49.414 52.0668 49.3752C52.449 49.3364 52.8007 49.149 53.0461 48.8535C53.2916 48.558 53.4111 48.1779 53.3791 47.7951C53.3471 47.4123 53.166 47.0573 52.8749 46.8067C49.5984 44.0856 45.6712 42.1411 41.1775 41.0114C53.0081 38.0315 60.2697 29.5866 63.0491 17.7573C65.8054 29.5141 73.007 38.0338 84.9648 40.9989C73.1263 43.9612 65.7644 52.3991 63.0322 64.1959C62.015 59.8721 60.3181 55.7336 57.7673 52.1196C57.5411 51.8077 57.2011 51.5976 56.821 51.5346C56.4409 51.4715 56.0513 51.5607 55.7365 51.7829C55.4218 52.005 55.2071 52.3422 55.1391 52.7214C55.0711 53.1006 55.1552 53.4914 55.3732 53.809C56.2724 55.0829 57.0816 56.4709 57.7792 57.9348C61.9177 66.6293 61.1864 75.475 61.2464 76.3284C61.4009 78.508 64.9571 78.6178 64.8458 75.9227C64.6448 71.0649 65.0216 54.6084 78.3138 46.7995C87.2831 41.5354 97.2608 43.0731 98.5927 42.7735C100.6 42.3178 100.383 39.4282 98.4306 39.209ZM32.0913 15.1102C31.0993 14.9046 23.2786 16.2891 19.7849 9.24069C18.1425 5.93405 18.2566 2.25749 18.279 1.79655C18.3966 0.998699 17.8427 0.187567 16.9683 0.0279965C16.1876 -0.126496 15.3132 0.368817 15.1111 1.25651C15.0068 1.71159 15.764 9.62311 10.0232 13.2938C6.41654 15.5946 2.20717 15.0003 1.41381 15.0887C-0.368806 15.2915 -0.512947 17.8635 1.25131 18.2653C2.10326 18.4571 6.33822 17.6887 10.0976 20.136C14.1042 22.7462 14.9369 27.5399 15.0745 30.1905C15.0935 31.7053 15.0265 31.8815 15.1454 32.2506C15.3644 32.9282 15.9833 33.3831 16.6853 33.3831C17.4911 33.3835 18.1441 32.7876 18.2734 32.0573C18.3628 31.5565 17.9718 27.7471 19.8273 24.0602C19.996 23.7138 20.0215 23.3149 19.8983 22.9499C19.775 22.5848 19.5129 22.283 19.1688 22.1098C18.8246 21.9365 18.426 21.9058 18.0594 22.0243C17.6928 22.1428 17.3876 22.401 17.2099 22.7428C17.0222 23.1168 16.8501 23.4984 16.6939 23.8866C15.3562 20.6075 13.062 18.1141 9.87416 16.6911C13.1224 15.2409 15.3822 12.7063 16.6913 9.50182C17.9997 12.7298 20.2413 15.2534 23.5035 16.6962C23.1784 16.8395 22.8592 16.9958 22.5466 17.1645C22.3774 17.256 22.2278 17.38 22.1065 17.5294C21.9852 17.6787 21.8945 17.8505 21.8396 18.0349C21.7846 18.2193 21.7666 18.4127 21.7864 18.6041C21.8063 18.7954 21.8636 18.981 21.9552 19.1503C22.1401 19.492 22.4532 19.7463 22.8256 19.8573C23.198 19.9682 23.5992 19.9267 23.941 19.7419C27.3988 17.8712 31.1765 18.3799 31.9572 18.293C33.7491 18.0876 33.8851 15.4897 32.0913 15.1102Z" fill="#C3C3C3"/>
</svg>
