<svg width="135" height="135" viewBox="0 0 135 135" fill="none" xmlns="http://www.w3.org/2000/svg">
<g clip-path="url(#clip0_82_3138)">
<path d="M31.1924 108.431C51.6195 126.3 83.2201 115.165 85.9872 87.7013C86.1814 86.329 86.1206 84.7807 86.0993 83.4479C67.929 82.7659 48.5711 73.1674 44.2591 58.1397C40.439 44.5813 53.6996 37.9196 64.3897 43.9817C77.0804 51.2369 87.3276 63.3953 90.6194 77.7184C102.104 77.1742 112.545 72.143 116.567 60.0444C123.302 39.6518 105.143 17.1348 85.6941 13.1225C83.6356 12.8311 83.9451 9.65551 86.0035 9.94683C112.31 12.4806 131.639 45.031 118.401 68.8425C113.18 78.0422 102.876 82.6025 91.4304 83.3622C92.6062 98.296 83.314 112.028 70.5637 119.042C55.776 127.097 39.9524 122.199 28.4332 111.61C26.5686 109.946 29.368 106.983 31.1924 108.431ZM71.5006 56.0462C67.1832 51.9358 61.6696 47.3761 55.4944 46.5021C49.5351 45.5886 49.0161 53.7038 49.4326 57.1921C50.0067 61.5426 53.7351 64.8697 57.09 67.3742C64.1333 72.99 74.8992 77.0336 85.2883 77.8037C83.1018 69.5157 77.5062 62.0752 71.5006 56.0462Z" fill="#555555"/>
<path d="M17.6612 102.667C23.6967 101.561 30.0266 100.847 36.1229 101.29C38.612 101.503 38.1268 104.933 35.6765 104.936C30.7764 104.943 25.8582 106.066 21.1556 107.151C21.8843 109.913 22.6526 112.891 23.597 115.614C24.4229 117.691 26.5239 120.648 25.6254 123.04C25.1763 124.237 24.0985 124.434 22.9417 124.2C20.1577 123.596 19.3286 119.07 18.4632 116.777C17.1058 113.016 16.2195 109.391 15.5088 105.511C15.272 104.218 16.3679 102.904 17.6612 102.667Z" fill="#555555"/>
</g>
<defs>
<clipPath id="clip0_82_3138">
<rect width="115.676" height="115.676" fill="white" transform="matrix(-0.983636 0.180166 0.180166 0.983636 113.783 0)"/>
</clipPath>
</defs>
</svg>
