<svg width="100" height="87" viewBox="0 0 100 87" fill="none" xmlns="http://www.w3.org/2000/svg">
<g clip-path="url(#clip0_82_3114)">
<path d="M49.0148 67.9238C48.2167 67.7581 44.4736 68.4029 40.9064 66.4804C40.737 66.3891 40.5513 66.3321 40.3599 66.3125C40.1685 66.293 39.9751 66.3114 39.7908 66.3666C39.6064 66.4218 39.4348 66.5128 39.2856 66.6343C39.1365 66.7558 39.0127 66.9056 38.9214 67.075C38.8301 67.2443 38.7731 67.43 38.7535 67.6214C38.734 67.8129 38.7524 68.0062 38.8076 68.1906C38.8628 68.3749 38.9538 68.5465 39.0753 68.6957C39.1968 68.8448 39.3466 68.9686 39.5159 69.0599C39.8199 69.2236 40.1245 69.3724 40.4298 69.5078C37.4408 70.8206 35.0259 73.1906 33.6152 76.6935C32.2767 73.4165 29.9827 70.9251 26.7976 69.5039C30.046 68.0542 32.306 65.5191 33.6152 62.3148C33.8956 63.007 34.1515 63.4878 34.1613 63.5078C34.3403 63.8497 34.647 64.1072 35.0148 64.2243C35.3826 64.3414 35.7817 64.3086 36.1255 64.1332C36.4693 63.9577 36.7299 63.6537 36.8508 63.2871C36.9717 62.9206 36.9431 62.5211 36.7712 62.1755C36.7669 62.156 34.9933 58.9189 35.2029 54.6105C35.3226 53.8029 34.7566 53.0001 33.8935 52.8414C33.1079 52.6867 32.2376 53.1849 32.0353 54.0673C31.9306 54.5246 32.6884 62.4361 26.947 66.1068C23.2093 68.4912 18.966 67.7501 18.1753 67.9294C16.504 68.3099 16.5054 70.6982 18.1753 71.0785C18.9562 71.2544 23.2827 70.5154 27.0216 72.9492C32.574 76.5667 31.9613 84.2681 31.9984 84.613C31.9984 86.4195 34.5798 86.8261 35.1495 85.0636C35.3423 84.4634 34.5316 76.8253 40.0138 73.0714C43.6257 70.5964 48.1019 71.1933 48.8808 71.1056C50.6632 70.9054 50.8226 68.3062 49.0148 67.9238ZM98.4306 39.3414C95.7523 39.0439 76.6603 41.7257 68.3163 24.207C63.93 14.9922 65.055 6.63844 64.8159 5.5904C64.6007 4.64821 63.7099 4.08376 62.8581 4.19255C61.8868 4.30251 61.2425 5.1068 61.2425 5.91657V9.71813C60.5806 22.7869 54.6333 33.9119 42.1447 37.8277C34.9327 40.09 28.6718 39.1128 27.5029 39.3685C25.6283 39.7939 25.6142 42.4863 27.5228 42.9103C29.1572 43.2552 41.4536 41.263 51.0027 49.1933C51.3025 49.4335 51.6846 49.5463 52.0668 49.5075C52.449 49.4687 52.8007 49.2814 53.0461 48.9858C53.2916 48.6903 53.4111 48.3102 53.3791 47.9274C53.3471 47.5446 53.166 47.1897 52.8749 46.939C49.5984 44.2179 45.6712 42.2734 41.1775 41.1437C53.0081 38.1638 60.2697 29.7189 63.0491 17.8896C65.8054 29.6464 73.007 38.1662 84.9648 41.1312C73.1263 44.0935 65.7644 52.5314 63.0322 64.3283C62.015 60.0044 60.3181 55.866 57.7673 52.2519C57.5411 51.9401 57.2011 51.7299 56.821 51.6669C56.4409 51.6039 56.0513 51.6931 55.7365 51.9152C55.4218 52.1373 55.2071 52.4745 55.1391 52.8537C55.0711 53.2329 55.1552 53.6237 55.3732 53.9414C56.2724 55.2152 57.0816 56.6033 57.7792 58.0671C61.9177 66.7617 61.1864 75.6074 61.2464 76.4607C61.4009 78.6404 64.9571 78.7501 64.8458 76.055C64.6448 71.1972 65.0216 54.7408 78.3138 46.9318C87.2831 41.6677 97.2608 43.2054 98.5927 42.9058C100.6 42.4501 100.383 39.5605 98.4306 39.3414ZM32.0913 15.2425C31.0993 15.0369 23.2786 16.4214 19.7849 9.37301C18.1425 6.06637 18.2566 2.38981 18.279 1.92887C18.3966 1.13102 17.8427 0.319891 16.9683 0.160321C16.1876 0.00582863 15.3132 0.501141 15.1111 1.38884C15.0068 1.84391 15.764 9.75543 10.0232 13.4261C6.41654 15.7269 2.20717 15.1326 1.41381 15.2211C-0.368806 15.4238 -0.512947 17.9959 1.25131 18.3976C2.10326 18.5894 6.33822 17.8211 10.0976 20.2683C14.1042 22.8785 14.9369 27.6722 15.0745 30.3228C15.0935 31.8377 15.0265 32.0138 15.1454 32.383C15.3644 33.0605 15.9833 33.5154 16.6853 33.5154C17.4911 33.5158 18.1441 32.9199 18.2734 32.1896C18.3628 31.6888 17.9718 27.8794 19.8273 24.1925C19.996 23.8461 20.0215 23.4472 19.8983 23.0822C19.775 22.7171 19.5129 22.4153 19.1688 22.2421C18.8246 22.0689 18.426 22.0382 18.0594 22.1567C17.6928 22.2751 17.3876 22.5333 17.2099 22.8752C17.0222 23.2491 16.8501 23.6307 16.6939 24.0189C15.3562 20.7398 13.062 18.2464 9.87416 16.8234C13.1224 15.3732 15.3822 12.8386 16.6913 9.63415C17.9997 12.8621 20.2413 15.3857 23.5035 16.8285C23.1784 16.9719 22.8592 17.1281 22.5466 17.2968C22.3774 17.3884 22.2278 17.5123 22.1065 17.6617C21.9852 17.811 21.8945 17.9828 21.8396 18.1672C21.7846 18.3516 21.7666 18.545 21.7864 18.7364C21.8063 18.9278 21.8636 19.1134 21.9552 19.2826C22.1401 19.6243 22.4532 19.8787 22.8256 19.9896C23.198 20.1005 23.5992 20.059 23.941 19.8742C27.3988 18.0035 31.1765 18.5123 31.9572 18.4254C33.7491 18.2199 33.8851 15.622 32.0913 15.2425Z" fill="black"/>
</g>
<defs>
<clipPath id="clip0_82_3114">
<rect width="100" height="86.3281" fill="white"/>
</clipPath>
</defs>
</svg>
