<svg width="40" height="40" viewBox="0 0 40 40" fill="none" xmlns="http://www.w3.org/2000/svg">
<path d="M20.9665 0H19.0322V40H20.9665V0Z" fill="white"/>
<path d="M39.998 19.0328H-0.00195312L-0.00195313 20.9671H39.998V19.0328Z" fill="white"/>
<path d="M6.53564 5.17249L5.16797 6.54019L33.4521 34.8242L34.8197 33.4563L6.53564 5.17249Z" fill="white"/>
<path d="M33.4521 5.17224L5.16797 33.4562L6.53564 34.8238L34.8197 6.53994L33.4521 5.17224Z" fill="white"/>
<path d="M1.84698 11.5647L1.11719 13.356L38.1612 28.4481L38.891 26.6567L1.84698 11.5647Z" fill="white"/>
<path d="M26.6565 1.12122L11.5645 38.1651L13.3557 38.8949L28.4477 1.851L26.6565 1.12122Z" fill="white"/>
<path d="M38.2066 11.6317L1.09863 26.5677L1.82087 28.3621L38.9288 13.4261L38.2066 11.6317Z" fill="white"/>
<path d="M13.4184 1.09924L11.624 1.82129L26.556 38.9292L28.3503 38.2073L13.4184 1.09924Z" fill="white"/>
</svg>
