<svg width="20" height="20" viewBox="0 0 20 20" fill="none" xmlns="http://www.w3.org/2000/svg">
<path fill-rule="evenodd" clip-rule="evenodd" d="M19.9884 1.7483C19.9884 0.833319 19.2484 0.0883319 18.3318 0.0833319L5.01033 0H5.00033C4.08368 0 3.34036 0.739988 3.33369 1.65664C3.32703 2.57662 4.06868 3.32828 4.99033 3.33328L14.2535 3.39161L0.488742 17.1547C-0.162914 17.8064 -0.162914 18.8614 0.488742 19.5113C0.813736 19.838 1.2404 19.9997 1.66706 19.9997C2.09371 19.9997 2.52037 19.838 2.84537 19.5113L16.6585 5.69824L16.6668 15.0014C16.6668 15.9214 17.4135 16.6664 18.3334 16.6664H18.3351C19.2551 16.6664 20.0001 15.9181 20.0001 14.9981L19.9884 1.7483Z" fill="#555555"/>
<mask id="mask0_82_812" style="mask-type:luminance" maskUnits="userSpaceOnUse" x="0" y="0" width="20" height="20">
<path fill-rule="evenodd" clip-rule="evenodd" d="M19.9884 1.7483C19.9884 0.833319 19.2484 0.0883319 18.3318 0.0833319L5.01033 0H5.00033C4.08368 0 3.34036 0.739988 3.33369 1.65664C3.32703 2.57662 4.06868 3.32828 4.99033 3.33328L14.2535 3.39161L0.488742 17.1547C-0.162914 17.8064 -0.162914 18.8614 0.488742 19.5113C0.813736 19.838 1.2404 19.9997 1.66706 19.9997C2.09371 19.9997 2.52037 19.838 2.84537 19.5113L16.6585 5.69824L16.6668 15.0014C16.6668 15.9214 17.4135 16.6664 18.3334 16.6664H18.3351C19.2551 16.6664 20.0001 15.9181 20.0001 14.9981L19.9884 1.7483Z" fill="white"/>
</mask>
<g mask="url(#mask0_82_812)">
<rect x="-10" y="-9.99951" width="39.9993" height="39.9993" fill="#555555"/>
</g>
</svg>
