<svg width="28" height="24" viewBox="0 0 28 24" fill="none" xmlns="http://www.w3.org/2000/svg">
<g clip-path="url(#clip0_82_1183)">
<path d="M21.5372 11.6813V14.0556H17.2629M5.38096 7.83099V6.88044C5.38096 6.30539 4.91477 5.8392 4.33972 5.8392H3.42406L2.15758 4.57272C1.89948 4.31462 1.47942 4.31711 1.22445 4.58016C0.972875 4.83969 0.992839 5.25959 1.24845 5.5152L3.56418 7.83099H5.38096ZM25.9614 4.58021C25.7064 4.31711 25.2864 4.31467 25.0283 4.57277L23.7618 5.83925H22.8462C22.2711 5.83925 21.8049 6.30545 21.8049 6.88049V7.83104H23.6217L25.9374 5.51525C26.1931 5.25964 26.2131 4.8398 25.9614 4.58021Z" stroke="#1C1C1C" stroke-width="0.994152" stroke-miterlimit="10" stroke-linecap="round" stroke-linejoin="round"/>
<path d="M7.22113 16.5994H8.37149C8.39965 16.5994 8.42666 16.6106 8.44658 16.6305C8.46649 16.6504 8.47768 16.6774 8.47768 16.7056V19.7585C9.666 19.8055 9.71209 20.4626 10.9884 20.4626C12.3123 20.4626 12.3123 19.7556 13.6361 19.7556C14.9599 19.7556 14.9599 20.4626 16.2838 20.4626C17.5285 20.4626 17.6032 19.8378 18.7079 19.7631V16.7055C18.7079 16.6774 18.7191 16.6504 18.7391 16.6305C18.759 16.6105 18.786 16.5994 18.8141 16.5994H22.2471C23.1829 16.5994 23.9415 15.8408 23.9415 14.905V8.0965C23.9415 8.02609 23.9135 7.95856 23.8637 7.90878C23.8139 7.85899 23.7464 7.83102 23.676 7.83102H21.8025C21.7321 7.83102 21.6646 7.85899 21.6148 7.90878C21.565 7.95856 21.537 8.02609 21.537 8.0965V9.82296M9.92288 14.0556H5.64865V8.0965C5.64865 8.02609 5.62068 7.95856 5.57089 7.90878C5.52111 7.85899 5.45358 7.83102 5.38317 7.83102H3.50963C3.43922 7.83102 3.37169 7.85899 3.3219 7.90878C3.27211 7.95856 3.24414 8.02609 3.24414 8.0965V14.905C3.24414 15.8408 4.00274 16.5994 4.93853 16.5994H5.36273" stroke="#1C1C1C" stroke-width="0.994152" stroke-miterlimit="10" stroke-linecap="round" stroke-linejoin="round"/>
<path d="M14.8142 14.6487H15.7565C16.9785 14.6487 17.9692 13.658 17.9692 12.436V10.8961M9.21777 10.8961V12.4361C9.21777 13.6581 10.2085 14.6488 11.4305 14.6488H12.3728M17.9692 9.26047V7.82445C17.9692 5.39679 15.9921 3.43081 13.5603 3.44886C11.1476 3.46676 9.21777 5.46661 9.21777 7.87941V9.26047" stroke="#1C1C1C" stroke-width="0.994152" stroke-miterlimit="10" stroke-linecap="round" stroke-linejoin="round"/>
<path d="M13.5934 13.6945C13.1591 13.6949 12.7299 13.6016 12.3349 13.421V14.3423C12.3349 15.0373 12.8984 15.6008 13.5934 15.6008C14.2884 15.6008 14.8519 15.0373 14.8519 14.3423V13.421C14.457 13.6016 14.0277 13.6949 13.5934 13.6945ZM10.56 10.6611V9.14855C10.56 9.05298 10.5788 8.96192 10.612 8.87818H10.0957C9.43285 8.87818 8.89551 9.41553 8.89551 10.0783C8.89551 10.7412 9.43285 11.2785 10.0957 11.2785H10.6229C10.581 11.0754 10.5599 10.8685 10.56 10.6611ZM17.0911 8.87818H16.6269V10.6611C16.6269 10.8726 16.6051 11.0791 16.5639 11.2784H17.0911C17.754 11.2784 18.2913 10.7411 18.2913 10.0783C18.2912 9.41547 17.754 8.87818 17.0911 8.87818Z" stroke="#1C1C1C" stroke-width="0.994152" stroke-miterlimit="10" stroke-linecap="round" stroke-linejoin="round"/>
<path d="M12.3724 9.04531V9.38938M14.8137 9.04531V9.38938M14.141 7.86702L14.0396 7.96844C13.7537 8.25436 13.3659 8.41499 12.9615 8.41499H11.2931C10.888 8.41499 10.5596 8.74339 10.5596 9.14853V10.6611C10.5596 12.3364 11.9177 13.6945 13.593 13.6945C15.2683 13.6945 16.6265 12.3364 16.6265 10.6611V8.70633C16.6265 8.05079 16.0951 7.51939 15.4395 7.51939H14.9803C14.6655 7.5194 14.3636 7.64444 14.141 7.86702Z" stroke="#1C1C1C" stroke-width="0.994152" stroke-miterlimit="10" stroke-linecap="round" stroke-linejoin="round"/>
<path d="M13.5931 10.8017L13.1482 10.4091C13.129 10.3922 13.1138 10.3713 13.1035 10.3479C13.0932 10.3246 13.088 10.2992 13.0885 10.2737C13.0889 10.2481 13.0949 10.223 13.106 10.2C13.1171 10.177 13.133 10.1566 13.1527 10.1404L13.5288 9.83068C13.5489 9.81411 13.5651 9.7933 13.5763 9.76973C13.5874 9.74617 13.5931 9.72043 13.5931 9.69438V9.35933M14.8113 11.2607C14.8113 11.688 14.4618 12.0376 14.0345 12.0376H13.1518C12.7246 12.0376 12.375 11.688 12.375 11.2607M26.7878 20.4515C25.5055 20.1217 25.5518 19.7557 24.2278 19.7557C22.9038 19.7557 22.9038 20.4626 21.5797 20.4626C20.2558 20.4626 20.2558 19.7557 18.932 19.7557C17.608 19.7557 17.608 20.4626 16.2842 20.4626C14.9603 20.4626 14.9603 19.7557 13.6365 19.7557C12.3126 19.7557 12.3126 20.4626 10.9888 20.4626C9.66515 20.4626 9.66515 19.7557 8.34148 19.7557C7.01766 19.7557 7.01766 20.4626 5.69384 20.4626C4.36996 20.4626 4.36996 19.7557 3.04614 19.7557C1.72231 19.7557 1.72231 20.4626 0.398491 20.4626M26.7878 23.5619C25.5055 23.2321 25.5518 22.8661 24.2278 22.8661C23.2869 22.8661 23.0143 23.2229 22.4604 23.4295M20.602 23.3907C20.1101 23.1813 19.8161 22.8661 18.9319 22.8661C17.608 22.8661 17.608 23.573 16.2841 23.573C14.9603 23.573 14.9603 22.8661 13.6364 22.8661C12.3126 22.8661 12.3126 23.573 10.9888 23.573C9.66509 23.573 9.66509 22.8661 8.34143 22.8661C7.01761 22.8661 7.01761 23.573 5.69378 23.573C4.36991 23.573 4.36991 22.8661 3.04608 22.8661C1.72226 22.8661 1.72226 23.573 0.398438 23.573M6.42499 5.21652L7.04235 5.47224M8.10685 2.69939L8.57936 3.1719M10.624 1.01753L10.8797 1.63489M13.5931 0.426926V1.09516M16.5622 1.01753L16.3065 1.63484M19.0794 2.69939L18.6068 3.1719M20.7613 5.21652L20.1439 5.47224" stroke="#1C1C1C" stroke-width="0.994152" stroke-miterlimit="10" stroke-linecap="round" stroke-linejoin="round"/>
</g>
<defs>
<clipPath id="clip0_82_1183">
<rect width="27.2389" height="24" fill="white"/>
</clipPath>
</defs>
</svg>
