<svg width="20" height="14" viewBox="0 0 20 14" fill="none" xmlns="http://www.w3.org/2000/svg">
<g clip-path="url(#clip0_82_1550)">
<path d="M18.019 13.8839H1.97994C1.4586 13.8833 0.958794 13.6759 0.590171 13.3072C0.221548 12.9386 0.0142189 12.4388 0.0136719 11.9174V2.01187C0.0142189 1.49053 0.221548 0.990701 0.590171 0.622043C0.958794 0.253384 1.4586 0.046007 1.97994 0.0454102H18.019C18.5403 0.046007 19.0401 0.253384 19.4087 0.622043C19.7774 0.990701 19.9847 1.49053 19.9852 2.01187V11.9174C19.9847 12.4388 19.7774 12.9386 19.4087 13.3072C19.0401 13.6759 18.5403 13.8833 18.019 13.8839ZM1.97994 0.79697C1.65785 0.797318 1.34906 0.925434 1.12133 1.1532C0.893598 1.38097 0.76553 1.68978 0.765232 2.01187V11.9174C0.76553 12.2395 0.893598 12.5483 1.12133 12.7761C1.34906 13.0039 1.65785 13.132 1.97994 13.1323H18.019C18.3411 13.132 18.6499 13.0039 18.8776 12.7761C19.1053 12.5483 19.2334 12.2395 19.2337 11.9174V2.01187C19.2334 1.68978 19.1053 1.38097 18.8776 1.1532C18.6499 0.925434 18.3411 0.797318 18.019 0.79697H1.97994Z" fill="#FBFBFB"/>
<path d="M10.0004 9.17613C9.90877 9.17618 9.82031 9.14277 9.75161 9.08218L0.695312 1.08784L1.19266 0.52417L10.0004 8.29981L18.8085 0.52511L19.3058 1.08878L10.2495 9.08312C10.1806 9.14354 10.092 9.17663 10.0004 9.17613Z" fill="#FBFBFB"/>
<path d="M0.490234 12.704L6.57411 5.77179L7.13947 6.26782L1.0556 13.1998L0.490234 12.704ZM12.8791 6.26068L13.4443 5.76465L19.5284 12.6965L18.9632 13.1925L12.8791 6.26068Z" fill="#FBFBFB"/>
</g>
<defs>
<clipPath id="clip0_82_1550">
<rect width="20" height="13.8991" fill="white"/>
</clipPath>
</defs>
</svg>
