<svg width="25" height="25" viewBox="0 0 25 25" fill="none" xmlns="http://www.w3.org/2000/svg">
<g clip-path="url(#clip0_82_3530)">
<path d="M18.9853 8.26401C18.7954 8.07261 18.4862 8.07134 18.2948 8.26123C18.1034 8.45117 18.1021 8.76035 18.292 8.9518L18.295 8.95483C18.39 9.05068 18.5146 9.09844 18.6394 9.09844C18.7638 9.09844 18.8884 9.05088 18.984 8.95605C19.1755 8.76611 19.1752 8.45547 18.9853 8.26401Z" fill="#1C1C1C"/>
<path d="M24.8574 14.1358L20.3223 9.60078C20.1317 9.41016 19.8225 9.41016 19.6318 9.60078C19.4411 9.79146 19.4411 10.1006 19.6318 10.2914L23.232 13.8915H14.6468C13.9346 13.8915 13.3552 13.3121 13.3552 12.6V4.0148L16.8309 7.49048C17.0216 7.6811 17.3308 7.6811 17.5215 7.49048C17.7122 7.29981 17.7122 6.99063 17.5215 6.7999L13.1109 2.38931C12.9202 2.19868 12.611 2.19868 12.4203 2.38931L4.63617 10.1736C4.4455 10.3643 4.4455 10.6735 4.63617 10.8642L16.3827 22.6107C16.4743 22.7022 16.5985 22.7537 16.728 22.7537C16.8575 22.7537 16.9817 22.7022 17.0732 22.6107L24.8575 14.8264C24.949 14.7348 25.0005 14.6106 25.0005 14.4812C25.0004 14.3517 24.949 14.2274 24.8574 14.1358ZM12.3787 3.81211V10.0307H6.16019L12.3787 3.81211ZM16.2397 21.0866L6.16019 11.0072H12.3787V12.6C12.3787 13.8506 13.3962 14.8681 14.6469 14.8681H16.2397V21.0866ZM17.2162 21.0866V14.8681H23.4347L17.2162 21.0866Z" fill="#1C1C1C"/>
<path d="M3.35112 12.4023H0.488281C0.218604 12.4023 0 12.621 0 12.8906C0 13.1603 0.218604 13.3789 0.488281 13.3789H3.35112C3.6208 13.3789 3.8394 13.1603 3.8394 12.8906C3.8394 12.621 3.6208 12.4023 3.35112 12.4023Z" fill="#1C1C1C"/>
<path d="M4.80713 12.4023H4.7998C4.53013 12.4023 4.31152 12.621 4.31152 12.8906C4.31152 13.1603 4.53013 13.3789 4.7998 13.3789H4.80713C5.07681 13.3789 5.29541 13.1603 5.29541 12.8906C5.29541 12.621 5.07681 12.4023 4.80713 12.4023Z" fill="#1C1C1C"/>
<path d="M2.0519 7.27539H0.489258C0.21958 7.27539 0.000976562 7.49404 0.000976562 7.76367C0.000976562 8.0333 0.21958 8.25195 0.489258 8.25195H2.0519C2.32158 8.25195 2.54019 8.0333 2.54019 7.76367C2.54019 7.49404 2.32158 7.27539 2.0519 7.27539Z" fill="#1C1C1C"/>
<path d="M5.49355 7.27539H3.64648C3.37681 7.27539 3.1582 7.49404 3.1582 7.76367C3.1582 8.0333 3.37681 8.25195 3.64648 8.25195H5.49355C5.76323 8.25195 5.98184 8.0333 5.98184 7.76367C5.98184 7.49404 5.76323 7.27539 5.49355 7.27539Z" fill="#1C1C1C"/>
<path d="M6.55659 15.0879H3.82227C3.55259 15.0879 3.33398 15.3065 3.33398 15.5762C3.33398 15.8458 3.55259 16.0645 3.82227 16.0645H6.55659C6.82627 16.0645 7.04487 15.8458 7.04487 15.5762C7.04487 15.3065 6.82622 15.0879 6.55659 15.0879Z" fill="#1C1C1C"/>
<path d="M8.69136 18.2126H1.80664C1.53696 18.2126 1.31836 18.4313 1.31836 18.7009C1.31836 18.9706 1.53696 19.1892 1.80664 19.1892H8.69136C8.96103 19.1892 9.17964 18.9706 9.17964 18.7009C9.17964 18.4313 8.96103 18.2126 8.69136 18.2126Z" fill="#1C1C1C"/>
</g>
<defs>
<clipPath id="clip0_82_3530">
<rect width="25" height="25" fill="white"/>
</clipPath>
</defs>
</svg>
