<svg width="60" height="60" viewBox="0 0 60 60" fill="none" xmlns="http://www.w3.org/2000/svg">
<g clip-path="url(#clip0_82_1279)">
<path d="M9.98041 0C4.46871 0.00233918 0 4.47105 0 9.98041C0 15.4942 4.46871 19.9629 9.98041 19.9607C15.492 19.963 19.9607 15.4943 19.9607 9.98041C19.9613 4.46871 15.4927 0.00233918 9.98041 0ZM9.98041 14.9705C7.22427 14.9728 4.98962 12.7387 4.98962 9.98041C4.98962 7.22661 7.22427 4.99196 9.98041 4.98962C12.7364 4.99298 14.9705 7.22485 14.9705 9.98041C14.9705 12.7387 12.7366 14.9728 9.98041 14.9705ZM49.9029 39.9219C45.6015 39.9219 41.7085 38.1778 38.8889 35.3601L38.5137 34.9849C40.3452 31.8737 40.3452 28.012 38.5137 24.8972L38.8889 24.5219C41.7083 21.7054 45.605 19.9607 49.9029 19.9607C55.4146 19.9613 59.8833 15.4925 59.8833 9.98041C59.8833 4.46828 55.4145 0 49.9029 0C44.3912 0 39.9219 4.46871 39.9219 9.98041C39.9219 14.2807 38.1778 18.1743 35.3601 20.9933L34.9849 21.3684C31.1604 19.1167 26.1678 19.5997 22.8835 22.8835C19.5993 26.1678 19.1178 31.1586 21.369 34.9844L20.9944 35.3595C18.1754 38.1768 14.2789 39.9209 9.98099 39.9209C4.46871 39.9219 0 44.3914 0 49.9029C0 55.4146 4.46871 59.8833 9.98041 59.8833C15.4921 59.8833 19.9607 55.4145 19.9607 49.9029C19.9607 45.6015 21.7054 41.7085 24.5221 38.8889L24.8972 38.5137C26.426 39.4131 28.1674 39.8873 29.9411 39.8873C31.7148 39.8873 33.4562 39.4131 34.9849 38.5137L35.3601 38.8889C38.1779 41.7083 39.9219 45.6048 39.9219 49.9029C39.9219 55.4146 44.3912 59.8833 49.9029 59.8833C55.4146 59.8833 59.8833 55.4145 59.8833 49.9029C59.8833 44.3912 55.4145 39.9219 49.9029 39.9219ZM49.9029 4.99064C52.6538 4.99064 54.8925 7.22997 54.8925 9.98099C54.8925 12.7319 52.6538 14.9716 49.9028 14.9716C47.1513 14.9705 44.9121 12.7313 44.9121 9.98041C44.9121 7.22953 47.1515 4.99064 49.9029 4.99064ZM9.98041 54.8927C7.22939 54.8927 4.98962 52.6539 4.98962 49.9029C4.98962 47.1515 7.22939 44.9123 9.98041 44.9123C12.7314 44.9123 14.9705 47.1516 14.9705 49.9031C14.9705 52.6539 12.7313 54.8927 9.98041 54.8927ZM29.9415 34.9319C27.1854 34.9319 24.9507 32.6977 24.9507 29.9417C24.9507 27.1855 27.1854 24.9509 29.9415 24.9509C32.6975 24.9509 34.9317 27.1855 34.9317 29.9417C34.9317 32.6977 32.6975 34.9319 29.9415 34.9319ZM49.9028 54.8924C47.1513 54.8924 44.912 52.6538 44.912 49.9029C44.912 47.1515 47.1513 44.9121 49.9028 44.9121C52.6537 44.9121 54.8924 47.1515 54.8924 49.9029C54.8924 52.6538 52.6537 54.8925 49.9026 54.8925L49.9028 54.8924Z" fill="#586CEC"/>
</g>
<defs>
<clipPath id="clip0_82_1279">
<rect width="60" height="60" fill="white"/>
</clipPath>
</defs>
</svg>
