<svg width="27" height="27" viewBox="0 0 27 27" fill="none" xmlns="http://www.w3.org/2000/svg">
<g clip-path="url(#clip0_82_1158)">
<path d="M6.72307 10.1544C6.60421 10.1544 6.49021 10.1071 6.40616 10.0231C6.32211 9.93903 6.27489 9.82504 6.27489 9.70617V8.08287C6.27489 7.94214 6.34033 7.81037 6.45237 7.72611C6.90952 7.38012 7.17125 6.86023 7.17125 6.30001V4.95547C7.17125 3.96679 6.36722 3.16275 5.37853 3.16275C4.38985 3.16275 3.58582 3.96679 3.58582 4.95547V6.30001C3.58582 6.86023 3.84755 7.38012 4.3047 7.72611C4.35996 7.76791 4.40476 7.82197 4.43556 7.88404C4.46636 7.9461 4.48231 8.01447 4.48217 8.08376V9.70707C4.48212 9.76592 4.47047 9.82419 4.44789 9.87854C4.42531 9.9329 4.39225 9.98227 4.35059 10.0238C4.30893 10.0654 4.25949 10.0984 4.20509 10.1209C4.15069 10.1433 4.0924 10.1549 4.03355 10.1548C3.97469 10.1547 3.91642 10.1431 3.86207 10.1205C3.80772 10.0979 3.75834 10.0649 3.71677 10.0232C3.67519 9.98155 3.64223 9.93211 3.61976 9.87772C3.59729 9.82332 3.58576 9.76503 3.58582 9.70617V8.29441C3.30355 8.04453 3.07765 7.73747 2.92311 7.39362C2.76857 7.04977 2.68892 6.67699 2.68946 6.30001V4.95547C2.68946 3.47289 3.89596 2.2664 5.37853 2.2664C6.86111 2.2664 8.06761 3.47289 8.06761 4.95547V6.30001C8.06761 7.06729 7.74403 7.78169 7.17125 8.29441V9.70617C7.17125 9.82504 7.12404 9.93903 7.03999 10.0231C6.95594 10.1071 6.84194 10.1544 6.72307 10.1544Z" fill="#1C1C1C"/>
<path d="M5.82903 8.94427C5.7187 8.94313 5.61266 8.90133 5.53124 8.82687C5.44981 8.75242 5.39871 8.65054 5.38772 8.54075C5.37673 8.43097 5.40662 8.32098 5.47167 8.23187C5.53673 8.14275 5.63237 8.08076 5.74029 8.05777C6.14393 7.97281 6.5062 7.75192 6.76658 7.432C7.02695 7.11208 7.16966 6.7125 7.17088 6.30001C7.17088 6.18115 7.21809 6.06715 7.30215 5.9831C7.3862 5.89905 7.50019 5.85183 7.61906 5.85183C7.73792 5.85183 7.85192 5.89905 7.93597 5.9831C8.02002 6.06715 8.06724 6.18115 8.06724 6.30001C8.06548 6.91878 7.85117 7.51816 7.46018 7.99775C7.0692 8.47734 6.52529 8.80803 5.91956 8.93441C5.8898 8.94079 5.85946 8.94409 5.82903 8.94427ZM8.40247 10.8571C8.3417 10.8572 8.28158 10.8447 8.22589 10.8203L6.54611 10.0988C6.43856 10.0508 6.35418 9.96249 6.31124 9.85284C6.2683 9.74319 6.27025 9.62105 6.31665 9.51282C6.36305 9.40459 6.45018 9.31897 6.55921 9.27447C6.66824 9.22997 6.7904 9.23017 6.89928 9.27502L8.57906 9.99659C8.67417 10.0371 8.75235 10.1093 8.80035 10.2008C8.84835 10.2924 8.86322 10.3977 8.84244 10.499C8.82166 10.6003 8.7665 10.6913 8.68632 10.7565C8.60614 10.8218 8.50586 10.8573 8.40247 10.8571ZM2.68908 16.2828C2.62504 16.2829 2.56173 16.2692 2.50353 16.2424L0.7879 15.4626C0.553274 15.3552 0.354358 15.1827 0.214717 14.9657C0.0750758 14.7487 0.000561013 14.4962 0 14.2382V12.9958C0 11.7391 0.743979 10.6097 1.8949 10.1185L3.85524 9.26785C3.9095 9.24257 3.96827 9.22841 4.02809 9.22621C4.08791 9.22401 4.14756 9.23382 4.20353 9.25505C4.25949 9.27629 4.31064 9.30852 4.35395 9.34984C4.39725 9.39116 4.43184 9.44074 4.45568 9.49565C4.47951 9.55056 4.4921 9.60969 4.49271 9.66954C4.49331 9.7294 4.48192 9.78877 4.45921 9.84415C4.4365 9.89954 4.40292 9.94981 4.36046 9.992C4.318 10.0342 4.26752 10.0675 4.21199 10.0898L2.24986 10.9414C1.84763 11.1133 1.50485 11.3998 1.26419 11.7651C1.02352 12.1304 0.895607 12.5584 0.89636 12.9958V14.2382C0.89636 14.413 0.999441 14.5743 1.15899 14.6469L2.87462 15.4267C2.96774 15.4692 3.04354 15.5422 3.08942 15.6336C3.13529 15.7251 3.14849 15.8295 3.12681 15.9295C3.10514 16.0295 3.04989 16.1191 2.97026 16.1834C2.89063 16.2476 2.79141 16.2827 2.68908 16.2828ZM7.1162 5.77116C6.21567 5.76841 5.34382 5.45425 4.64852 4.88197C4.55619 4.80746 4.49717 4.69938 4.4844 4.58143C4.47163 4.46347 4.50615 4.34527 4.5804 4.25273C4.65506 4.16027 4.76338 4.10124 4.88155 4.08864C4.99972 4.07603 5.11805 4.11087 5.21054 4.1855C5.786 4.64892 6.46903 4.899 7.16908 4.8748C7.14767 4.414 6.9497 3.97912 6.61626 3.66036C6.28281 3.34159 5.83946 3.16341 5.37816 3.16275C4.38947 3.16275 3.58544 3.96679 3.58544 4.95547V5.28713C3.58544 5.40599 3.53822 5.51999 3.45417 5.60404C3.37012 5.68809 3.25612 5.7353 3.13726 5.7353C3.01839 5.7353 2.9044 5.68809 2.82035 5.60404C2.7363 5.51999 2.68908 5.40599 2.68908 5.28713V4.95547C2.68908 3.47289 3.89558 2.2664 5.37816 2.2664C6.86074 2.2664 8.06724 3.47289 8.06724 4.95547V5.2692C8.0673 5.37583 8.02933 5.47899 7.96017 5.56015C7.891 5.64131 7.79516 5.69515 7.68987 5.712C7.50055 5.7471 7.3087 5.76689 7.1162 5.77116ZM22.8572 10.1544C22.7383 10.1544 22.6243 10.1071 22.5403 10.0231C22.4562 9.93903 22.409 9.82504 22.409 9.70617V8.08287C22.409 7.94214 22.4744 7.81037 22.5865 7.72612C23.0436 7.38012 23.3053 6.86023 23.3053 6.30001V4.95547C23.3053 3.96679 22.5013 3.16275 21.5126 3.16275C20.5239 3.16275 19.7199 3.96679 19.7199 4.95547V6.30001C19.7199 6.86023 19.9816 7.38012 20.4388 7.72612C20.4941 7.76791 20.5389 7.82197 20.5697 7.88404C20.6005 7.9461 20.6164 8.01448 20.6163 8.08376V9.70707C20.6163 9.82593 20.5691 9.93993 20.485 10.024C20.401 10.108 20.287 10.1552 20.1681 10.1552C20.0492 10.1552 19.9352 10.108 19.8512 10.024C19.7671 9.93993 19.7199 9.82593 19.7199 9.70707V8.29531C19.4376 8.04542 19.2117 7.73837 19.0572 7.39452C18.9027 7.05067 18.823 6.67789 18.8236 6.30091V4.95637C18.8236 3.47379 20.0301 2.26729 21.5126 2.26729C22.9952 2.26729 24.2017 3.47379 24.2017 4.95637V6.30091C24.2017 7.06819 23.8781 7.78259 23.3053 8.29531V9.70707C23.3051 9.82578 23.2578 9.93955 23.1738 10.0234C23.0897 10.1073 22.9759 10.1544 22.8572 10.1544Z" fill="#1C1C1C"/>
<path d="M21.9633 8.94424C21.853 8.9431 21.747 8.9013 21.6655 8.82684C21.5841 8.75239 21.533 8.65051 21.522 8.54072C21.511 8.43094 21.5409 8.32095 21.606 8.23183C21.671 8.14272 21.7667 8.08073 21.8746 8.05774C22.2782 7.97278 22.6405 7.75189 22.9009 7.43197C23.1613 7.11204 23.304 6.71247 23.3052 6.29998C23.3052 6.18111 23.3524 6.06712 23.4364 5.98307C23.5205 5.89902 23.6345 5.8518 23.7534 5.8518C23.8722 5.8518 23.9862 5.89902 24.0703 5.98307C24.1543 6.06712 24.2015 6.18111 24.2015 6.29998C24.1998 6.91875 23.9855 7.51813 23.5945 7.99772C23.2035 8.47731 22.6596 8.808 22.0539 8.93438C22.0241 8.94076 21.9938 8.94406 21.9633 8.94424ZM18.6199 10.8006C18.516 10.8019 18.4148 10.7669 18.3339 10.7017C18.2529 10.6365 18.1972 10.5451 18.1763 10.4433C18.1554 10.3414 18.1706 10.2355 18.2194 10.1437C18.2681 10.0518 18.3473 9.97986 18.4433 9.94009L19.9913 9.27499C20.1002 9.23014 20.2224 9.22994 20.3314 9.27444C20.4404 9.31894 20.5276 9.40456 20.574 9.51279C20.6204 9.62102 20.6223 9.74316 20.5794 9.85281C20.5364 9.96246 20.4521 10.0508 20.3445 10.0987L18.7965 10.7638C18.7408 10.7883 18.6807 10.8008 18.6199 10.8006ZM24.2015 16.2827C24.0997 16.2818 24.0012 16.2462 23.9223 16.1819C23.8433 16.1176 23.7885 16.0283 23.767 15.9288C23.7454 15.8293 23.7583 15.7254 23.8035 15.6341C23.8488 15.5429 23.9237 15.4698 24.016 15.4267L25.7316 14.6469C25.8099 14.611 25.8763 14.5534 25.9228 14.481C25.9694 14.4085 25.9942 14.3243 25.9942 14.2381V12.9958C25.9942 12.0994 25.4636 11.2936 24.6434 10.9431L22.6786 10.0898C22.5696 10.0423 22.4839 9.95361 22.4402 9.84305C22.3965 9.73249 22.3984 9.60912 22.4456 9.49998C22.5442 9.27231 22.8041 9.16833 23.0354 9.26782L24.9975 10.1194C25.5605 10.3602 26.0401 10.7613 26.3768 11.2728C26.7134 11.7843 26.8921 12.3835 26.8906 12.9958V14.2381C26.8906 14.7634 26.5814 15.2438 26.1027 15.4626L24.3871 16.2424C24.3288 16.2687 24.2655 16.2825 24.2015 16.2827ZM14.6195 4.43197C13.3448 4.43197 12.0182 3.98289 11.2868 3.32496C11.2431 3.28565 11.2075 3.2381 11.1822 3.18505C11.1568 3.13199 11.1422 3.07446 11.139 3.01573C11.1359 2.95701 11.1444 2.89825 11.164 2.8428C11.1836 2.78736 11.2139 2.73631 11.2532 2.69258C11.2925 2.64885 11.3401 2.61329 11.3931 2.58794C11.4462 2.56258 11.5037 2.54793 11.5624 2.54481C11.6211 2.54168 11.6799 2.55016 11.7354 2.56975C11.7908 2.58934 11.8418 2.61965 11.8856 2.65897C12.7694 3.45314 14.8866 3.86816 16.0994 3.2174C16.1512 3.18956 16.208 3.17221 16.2666 3.16633C16.3252 3.16045 16.3843 3.16617 16.4406 3.18315C16.497 3.20013 16.5494 3.22804 16.595 3.26529C16.6406 3.30254 16.6784 3.34841 16.7062 3.40026C16.734 3.45211 16.7514 3.50894 16.7573 3.5675C16.7631 3.62605 16.7574 3.6852 16.7404 3.74155C16.7235 3.7979 16.6955 3.85035 16.6583 3.89591C16.621 3.94148 16.5752 3.97925 16.5233 4.00709C15.9703 4.302 15.3025 4.43197 14.6195 4.43197ZM13.439 12.5745C11.9519 12.5745 11.1766 11.4146 10.974 10.8006C10.9415 10.6893 10.9534 10.5698 11.0072 10.4671C11.061 10.3644 11.1525 10.2866 11.2625 10.2499C11.3725 10.2133 11.4924 10.2206 11.597 10.2705C11.7017 10.3204 11.7829 10.4088 11.8237 10.5173C11.8426 10.5711 12.2396 11.6772 13.439 11.6772C14.6482 11.6772 15.0739 10.5371 15.0927 10.4887C15.1323 10.3766 15.2148 10.2848 15.3221 10.2335C15.3752 10.2081 15.4328 10.1935 15.4915 10.1903C15.5503 10.1872 15.6091 10.1957 15.6646 10.2153C15.7201 10.2349 15.7712 10.2652 15.815 10.3046C15.8588 10.3439 15.8944 10.3915 15.9198 10.4446C15.9451 10.4977 15.9598 10.5553 15.963 10.6141C15.9661 10.6728 15.9576 10.7317 15.938 10.7872C15.912 10.8607 15.2926 12.5745 13.439 12.5745Z" fill="#1C1C1C"/>
<path d="M21.9604 16.1599C21.8416 16.1599 21.7276 16.1127 21.6435 16.0286C21.5595 15.9446 21.5122 15.8306 21.5122 15.7117V15.4616C21.5129 14.8138 21.3128 14.1817 20.9394 13.6523C20.566 13.1229 20.0378 12.7223 19.4273 12.5055L15.6886 11.1788C15.4261 11.0871 15.1985 10.916 15.0375 10.6892C14.8764 10.4625 14.7898 10.1913 14.7896 9.91318V8.81066C14.7896 8.6918 14.8368 8.5778 14.9208 8.49375C15.0049 8.4097 15.1189 8.36248 15.2377 8.36248C15.3566 8.36248 15.4706 8.4097 15.5547 8.49375C15.6387 8.5778 15.6859 8.6918 15.6859 8.81066V9.91318C15.6859 10.1014 15.8069 10.2699 15.9862 10.3327L19.7258 11.6602C20.5111 11.9387 21.1908 12.4539 21.6712 13.1346C22.1517 13.8154 22.4093 14.6284 22.4086 15.4616V15.7126C22.4084 15.8313 22.361 15.9451 22.277 16.029C22.193 16.1128 22.0791 16.1599 21.9604 16.1599ZM4.92962 16.1599C4.81076 16.1599 4.69676 16.1127 4.61271 16.0286C4.52866 15.9446 4.48145 15.8306 4.48145 15.7117V15.4697C4.48145 15.19 4.51103 14.9095 4.56929 14.6325C4.71534 13.9568 5.0309 13.3294 5.48627 12.8092C5.94164 12.2891 6.52185 11.8934 7.17231 11.6593L10.903 10.3506C10.9905 10.3203 11.0665 10.2637 11.1205 10.1883C11.1744 10.113 11.2036 10.0228 11.2041 9.93022V8.80977C11.2041 8.6909 11.2513 8.57691 11.3354 8.49286C11.4194 8.40881 11.5334 8.36159 11.6523 8.36159C11.7712 8.36159 11.8852 8.40881 11.9692 8.49286C12.0533 8.57691 12.1005 8.6909 12.1005 8.80977V9.93022C12.0999 10.2086 12.013 10.48 11.8516 10.7068C11.6903 10.9337 11.4625 11.1049 11.1996 11.1968L7.4717 12.5046C6.96545 12.6866 6.51385 12.9944 6.15945 13.3992C5.80505 13.8039 5.5595 14.2922 5.44593 14.8181C5.40021 15.0332 5.3778 15.2528 5.3778 15.4697V15.7117C5.3778 15.8306 5.33058 15.9446 5.24653 16.0286C5.16248 16.1127 5.04849 16.1599 4.92962 16.1599Z" fill="#1C1C1C"/>
<path d="M13.4456 9.88548C13.3267 9.88548 13.2128 9.83826 13.1287 9.75421C13.0447 9.67016 12.9974 9.55617 12.9974 9.4373C12.9974 9.31844 13.0447 9.20444 13.1287 9.12039C13.2128 9.03634 13.3267 8.98912 13.4456 8.98912C14.376 8.98912 16.1347 8.14655 16.1347 4.95552V3.61098C16.1347 2.1284 14.9282 0.921908 13.4456 0.921908C11.963 0.921908 10.7565 2.1284 10.7565 3.61098V4.95552C10.7565 6.50084 11.1698 7.68313 11.9505 8.37422C11.9964 8.41264 12.0342 8.45987 12.0616 8.51314C12.089 8.5664 12.1054 8.62462 12.1099 8.68434C12.1144 8.74406 12.1069 8.80408 12.0878 8.86085C12.0688 8.91762 12.0385 8.96999 11.9988 9.01487C11.9592 9.05975 11.9109 9.09622 11.8569 9.12213C11.8029 9.14804 11.7443 9.16287 11.6845 9.16573C11.6246 9.16859 11.5648 9.15944 11.5086 9.1388C11.4524 9.11817 11.4009 9.08648 11.3571 9.04559C10.6741 8.44145 9.86018 7.24212 9.86018 4.95552V3.61098C9.86018 1.63362 11.4682 0.0255508 13.4456 0.0255508C15.423 0.0255508 17.031 1.63362 17.031 3.61098V4.95552C17.031 8.85557 14.6862 9.88548 13.4456 9.88548ZM20.2741 24.2272C20.173 24.227 20.0751 24.1927 19.996 24.1298C19.9169 24.0669 19.8614 23.9792 19.8385 23.8808C19.8156 23.7824 19.8265 23.6792 19.8697 23.5878C19.9128 23.4964 19.9855 23.4223 20.076 23.3775L22.2927 22.2794C22.3544 22.2489 22.4223 22.233 22.4912 22.233C22.5601 22.233 22.628 22.2489 22.6898 22.2794L24.1383 22.9974L23.9025 21.3983C23.8926 21.33 23.8986 21.2603 23.9201 21.1947C23.9415 21.1291 23.9779 21.0693 24.0262 21.02L25.1583 19.8628L23.5628 19.5912C23.4948 19.5795 23.4305 19.5522 23.3747 19.5117C23.3189 19.4711 23.2732 19.4183 23.241 19.3573L22.4917 17.9249L21.7414 19.3573C21.7092 19.4183 21.6635 19.4711 21.6077 19.5117C21.5519 19.5522 21.4876 19.5795 21.4196 19.5912L19.825 19.8628L20.9562 21.02C21.0375 21.1054 21.0818 21.2193 21.0797 21.3371C21.0776 21.4549 21.0292 21.5672 20.9449 21.6496C20.8607 21.7319 20.7473 21.7778 20.6295 21.7773C20.5117 21.7767 20.3988 21.7298 20.3153 21.6466L18.5862 19.8781C18.5288 19.8197 18.4886 19.7467 18.4698 19.667C18.4511 19.5873 18.4546 19.504 18.4799 19.4261C18.5052 19.3483 18.5515 19.2789 18.6135 19.2255C18.6756 19.1721 18.7511 19.1368 18.8318 19.1233L21.0512 18.7451L22.0955 16.7516C22.1338 16.6796 22.1911 16.6194 22.261 16.5774C22.3309 16.5354 22.411 16.5133 22.4926 16.5133C22.5741 16.5133 22.6542 16.5354 22.7241 16.5774C22.7941 16.6194 22.8513 16.6796 22.8896 16.7516L23.933 18.7451L26.1533 19.1233C26.2339 19.1371 26.3091 19.1726 26.371 19.226C26.4328 19.2794 26.4789 19.3487 26.5042 19.4265C26.5295 19.5042 26.5331 19.5874 26.5145 19.667C26.4959 19.7466 26.4559 19.8196 26.3989 19.8781L24.824 21.487L25.152 23.7136C25.1636 23.7945 25.1529 23.877 25.1212 23.9523C25.0894 24.0276 25.0378 24.0929 24.9719 24.1411C24.9058 24.1896 24.8277 24.2188 24.746 24.2256C24.6644 24.2324 24.5825 24.2165 24.5094 24.1797L22.4926 23.1803L20.4748 24.1797C20.4126 24.2112 20.3438 24.2275 20.2741 24.2272ZM10.8247 26.6662C10.7603 26.6662 10.6966 26.6524 10.638 26.6256C10.5794 26.5988 10.5273 26.5597 10.4852 26.511C10.4431 26.4623 10.412 26.405 10.394 26.3432C10.376 26.2813 10.3716 26.2163 10.381 26.1526L10.7736 23.4787L8.88405 21.5462C8.82667 21.4878 8.78641 21.4148 8.76767 21.3351C8.74892 21.2554 8.7524 21.1721 8.77773 21.0943C8.80307 21.0164 8.84927 20.947 8.91133 20.8936C8.97338 20.8402 9.0489 20.8049 9.12965 20.7915L11.7954 20.3379L13.0485 17.9437C13.2045 17.6479 13.6876 17.6479 13.8436 17.9437L15.0967 20.3379L17.7625 20.7915C17.843 20.8052 17.9183 20.8407 17.9802 20.8941C18.042 20.9475 18.0881 21.0169 18.1134 21.0946C18.1387 21.1723 18.1423 21.2555 18.1237 21.3351C18.1051 21.4147 18.0651 21.4877 18.0081 21.5462L16.1177 23.4787L16.5112 26.1526C16.5227 26.2335 16.512 26.316 16.4803 26.3913C16.4486 26.4666 16.3969 26.5319 16.331 26.5801C16.2649 26.6285 16.1868 26.6578 16.1052 26.6646C16.0235 26.6714 15.9416 26.6555 15.8685 26.6187L13.4456 25.4185L11.0237 26.6187C10.9619 26.6497 10.8938 26.666 10.8247 26.6662ZM10.1228 21.531L11.5695 23.0108C11.6672 23.1112 11.713 23.2511 11.6932 23.3891L11.3921 25.4355L13.2466 24.5167C13.3082 24.4858 13.3762 24.4697 13.4452 24.4697C13.5141 24.4697 13.5821 24.4858 13.6437 24.5167L15.4974 25.4355L15.1962 23.3891C15.1863 23.3208 15.1923 23.2511 15.2138 23.1855C15.2352 23.1199 15.2715 23.0601 15.3199 23.0108L16.7675 21.531L14.7265 21.1832C14.6586 21.1714 14.5942 21.1442 14.5384 21.1036C14.4826 21.063 14.4369 21.0102 14.4047 20.9492L13.4456 19.1162L12.4865 20.9492C12.4543 21.0102 12.4086 21.063 12.3528 21.1036C12.297 21.1442 12.2327 21.1714 12.1647 21.1832L10.1228 21.531ZM6.68977 24.2272C6.62075 24.227 6.55268 24.2111 6.49077 24.1806L4.47397 23.1812L2.45627 24.1815C2.38294 24.2179 2.30104 24.2335 2.21945 24.2267C2.13786 24.2198 2.05971 24.1908 1.99348 24.1426C1.92724 24.0945 1.87546 24.0292 1.84374 23.9537C1.81203 23.8782 1.8016 23.7955 1.81358 23.7145L2.14165 21.4879L0.566746 19.879C0.509366 19.8206 0.469109 19.7476 0.450362 19.6679C0.431616 19.5882 0.435098 19.5049 0.46043 19.427C0.485762 19.3492 0.531972 19.2798 0.594025 19.2264C0.656079 19.173 0.731595 19.1377 0.812348 19.1242L3.03263 18.746L4.07688 16.7525C4.11525 16.6805 4.17247 16.6203 4.24241 16.5783C4.31236 16.5363 4.3924 16.5142 4.47397 16.5142C4.55554 16.5142 4.63558 16.5363 4.70553 16.5783C4.77547 16.6203 4.83269 16.6805 4.87106 16.7525L5.91442 18.746L8.1338 19.1242C8.21437 19.138 8.28966 19.1735 8.35151 19.2269C8.41337 19.2803 8.45943 19.3496 8.48473 19.4274C8.51002 19.5051 8.51358 19.5883 8.49501 19.6679C8.47645 19.7474 8.43647 19.8205 8.3794 19.879L6.65033 21.6466C6.56684 21.7298 6.45396 21.7767 6.33613 21.7773C6.21829 21.7778 6.10497 21.7319 6.02071 21.6496C5.93644 21.5672 5.88801 21.4549 5.8859 21.3371C5.88379 21.2193 5.92817 21.1054 6.00943 21.02L7.14063 19.8628L5.54601 19.5912C5.47801 19.5796 5.4136 19.5524 5.3578 19.5118C5.30199 19.4713 5.25628 19.4184 5.22422 19.3573L4.47487 17.9249L3.72461 19.3573C3.69244 19.4183 3.64671 19.4711 3.59092 19.5117C3.53513 19.5522 3.47078 19.5795 3.40282 19.5912L1.80731 19.8628L2.9394 21.02C3.03711 21.1204 3.08282 21.2603 3.0631 21.3983L2.82736 22.9974L4.27677 22.2794C4.33851 22.2489 4.40645 22.233 4.47531 22.233C4.54418 22.233 4.61212 22.2489 4.67386 22.2794L6.88965 23.3775C6.9803 23.4224 7.05309 23.4967 7.09616 23.5882C7.13924 23.6797 7.15008 23.7832 7.12691 23.8816C7.10374 23.9801 7.04794 24.0679 6.96857 24.1306C6.8892 24.1934 6.79094 24.2274 6.68977 24.2272Z" fill="#1C1C1C"/>
</g>
<defs>
<clipPath id="clip0_82_1158">
<rect y="-0.000488281" width="26.8908" height="26.6667" rx="9.09044" fill="white"/>
</clipPath>
</defs>
</svg>
