<svg width="61" height="60" viewBox="0 0 61 60" fill="none" xmlns="http://www.w3.org/2000/svg">
<g clip-path="url(#clip0_82_2997)">
<path d="M15.1264 22.8484C14.859 22.8484 14.6025 22.7421 14.4134 22.553C14.2243 22.3639 14.118 22.1074 14.118 21.84V18.1875C14.118 17.8709 14.2652 17.5744 14.5173 17.3848C15.5459 16.6063 16.1348 15.4366 16.1348 14.1761V11.1509C16.1348 8.92635 14.3257 7.11727 12.1012 7.11727C9.87667 7.11727 8.06759 8.92635 8.06759 11.1509V14.1761C8.06759 15.4366 8.6565 16.6063 9.68507 17.3848C9.80941 17.4789 9.91021 17.6005 9.97951 17.7402C10.0488 17.8798 10.0847 18.0336 10.0844 18.1895V21.842C10.0843 21.9744 10.0581 22.1055 10.0073 22.2278C9.95646 22.3501 9.88207 22.4612 9.78833 22.5547C9.6946 22.6483 9.58336 22.7224 9.46096 22.773C9.33857 22.8235 9.20741 22.8495 9.07499 22.8494C8.94256 22.8492 8.81146 22.823 8.68917 22.7722C8.56687 22.7214 8.45578 22.647 8.36224 22.5533C8.26869 22.4596 8.19452 22.3483 8.14397 22.2259C8.09341 22.1035 8.06746 21.9724 8.06759 21.84V18.6635C7.43249 18.1013 6.92422 17.4104 6.57651 16.6367C6.22879 15.8631 6.04959 15.0243 6.05079 14.1761V11.1509C6.05079 7.81508 8.76541 5.10046 12.1012 5.10046C15.437 5.10046 18.1516 7.81508 18.1516 11.1509V14.1761C18.1516 15.9025 17.4236 17.5099 16.1348 18.6635V21.84C16.1348 22.1074 16.0286 22.3639 15.8395 22.553C15.6504 22.7421 15.3939 22.8484 15.1264 22.8484Z" fill="#555555"/>
<path d="M13.1153 20.1257C12.8671 20.1231 12.6285 20.0291 12.4453 19.8615C12.2621 19.694 12.1471 19.4648 12.1223 19.2178C12.0976 18.9707 12.1649 18.7233 12.3113 18.5228C12.4576 18.3223 12.6728 18.1828 12.9156 18.1311C13.8238 17.9399 14.6389 17.4429 15.2248 16.7231C15.8106 16.0032 16.1317 15.1042 16.1345 14.1761C16.1345 13.9086 16.2407 13.6522 16.4298 13.463C16.6189 13.2739 16.8754 13.1677 17.1429 13.1677C17.4103 13.1677 17.6668 13.2739 17.8559 13.463C18.045 13.6522 18.1513 13.9086 18.1513 14.1761C18.1473 15.5683 17.6651 16.9169 16.7854 17.996C15.9057 19.0751 14.6819 19.8191 13.319 20.1035C13.252 20.1178 13.1838 20.1253 13.1153 20.1257ZM18.9055 24.4295C18.7688 24.4298 18.6335 24.4016 18.5082 24.3468L14.7287 22.7233C14.4867 22.6155 14.2969 22.4167 14.2003 22.17C14.1037 21.9233 14.108 21.6484 14.2124 21.4049C14.3168 21.1614 14.5129 20.9687 14.7582 20.8686C15.0035 20.7685 15.2784 20.7689 15.5234 20.8699L19.3029 22.4934C19.5169 22.5846 19.6928 22.7469 19.8008 22.9529C19.9088 23.159 19.9422 23.396 19.8955 23.6238C19.8487 23.8517 19.7246 24.0564 19.5442 24.2032C19.3638 24.3501 19.1382 24.43 18.9055 24.4295ZM6.05042 36.6373C5.90633 36.6376 5.76388 36.6067 5.63294 36.5465L1.77277 34.7919C1.24486 34.5502 0.797305 34.1622 0.483113 33.6739C0.16892 33.1856 0.00126228 32.6176 0 32.0369V29.2416C0 26.4141 1.67395 23.8729 4.26353 22.7677L8.67429 20.8537C8.79636 20.7969 8.9286 20.765 9.06319 20.76C9.19778 20.7551 9.332 20.7772 9.45792 20.8249C9.58385 20.8727 9.69893 20.9452 9.79637 21.0382C9.89381 21.1312 9.97164 21.2427 10.0253 21.3663C10.0789 21.4898 10.1072 21.6229 10.1086 21.7575C10.1099 21.8922 10.0843 22.0258 10.0332 22.1504C9.98211 22.275 9.90656 22.3881 9.81102 22.4831C9.71549 22.578 9.6019 22.6528 9.47697 22.7032L5.06218 24.6191C4.15716 25.006 3.3859 25.6505 2.84441 26.4724C2.30292 27.2944 2.01511 28.2574 2.01681 29.2416V32.0369C2.01681 32.4302 2.24874 32.7932 2.60773 32.9566L6.4679 34.7112C6.67741 34.8067 6.84795 34.971 6.95118 35.1767C7.0544 35.3825 7.0841 35.6175 7.03533 35.8425C6.98655 36.0675 6.86225 36.269 6.68308 36.4136C6.50391 36.5582 6.28065 36.6371 6.05042 36.6373ZM16.0114 12.9862C13.9853 12.98 12.0236 12.2731 10.4592 10.9855C10.2514 10.8179 10.1186 10.5747 10.0899 10.3093C10.0612 10.0439 10.1388 9.77793 10.3059 9.56971C10.4739 9.36167 10.7176 9.22887 10.9835 9.20051C11.2493 9.17214 11.5156 9.25053 11.7237 9.41845C13.0185 10.4611 14.5553 11.0238 16.1304 10.9694C16.0822 9.93257 15.6368 8.95409 14.8866 8.23688C14.1363 7.51966 13.1388 7.11874 12.1008 7.11727C9.8763 7.11727 8.06723 8.92635 8.06723 11.1509V11.8971C8.06723 12.1645 7.96098 12.421 7.77187 12.6102C7.58276 12.7993 7.32627 12.9055 7.05882 12.9055C6.79138 12.9055 6.53489 12.7993 6.34577 12.6102C6.15666 12.421 6.05042 12.1645 6.05042 11.8971V11.1509C6.05042 7.81508 8.76504 5.10046 12.1008 5.10046C15.4366 5.10046 18.1513 7.81508 18.1513 11.1509V11.8568C18.1514 12.0967 18.066 12.3288 17.9104 12.5114C17.7547 12.694 17.5391 12.8152 17.3022 12.8531C16.8762 12.9321 16.4446 12.9766 16.0114 12.9862ZM51.4286 22.8484C51.1611 22.8484 50.9046 22.7421 50.7155 22.553C50.5264 22.3639 50.4202 22.1074 50.4202 21.84V18.1875C50.4202 17.8709 50.5674 17.5744 50.8195 17.3848C51.8481 16.6063 52.437 15.4366 52.437 14.1761V11.1509C52.437 8.92635 50.6279 7.11727 48.4034 7.11727C46.1788 7.11727 44.3697 8.92635 44.3697 11.1509V14.1761C44.3697 15.4366 44.9587 16.6063 45.9872 17.3848C46.1116 17.4789 46.2124 17.6005 46.2817 17.7402C46.351 17.8798 46.3869 18.0336 46.3866 18.1895V21.842C46.3866 22.1094 46.2803 22.3659 46.0912 22.555C45.9021 22.7441 45.6456 22.8504 45.3781 22.8504C45.1107 22.8504 44.8542 22.7441 44.6651 22.555C44.476 22.3659 44.3697 22.1094 44.3697 21.842V18.6655C43.7346 18.1033 43.2264 17.4124 42.8787 16.6387C42.5309 15.8651 42.3517 15.0263 42.3529 14.1781V11.1529C42.3529 7.8171 45.0676 5.10248 48.4034 5.10248C51.7392 5.10248 54.4538 7.8171 54.4538 11.1529V14.1781C54.4538 15.9045 53.7257 17.5119 52.437 18.6655V21.842C52.4364 22.1091 52.33 22.365 52.1409 22.5537C51.9519 22.7424 51.6957 22.8484 51.4286 22.8484Z" fill="#555555"/>
<path d="M49.4178 20.1257C49.1695 20.1232 48.9309 20.0291 48.7477 19.8616C48.5645 19.6941 48.4495 19.4648 48.4248 19.2178C48.4001 18.9708 48.4673 18.7233 48.6137 18.5228C48.7601 18.3223 48.9753 18.1828 49.2181 18.1311C50.1263 17.9399 50.9414 17.4429 51.5272 16.7231C52.1131 16.0033 52.4342 15.1042 52.4369 14.1761C52.4369 13.9087 52.5432 13.6522 52.7323 13.4631C52.9214 13.274 53.1779 13.1677 53.4453 13.1677C53.7128 13.1677 53.9693 13.274 54.1584 13.4631C54.3475 13.6522 54.4537 13.9087 54.4537 14.1761C54.4498 15.5684 53.9676 16.917 53.0878 17.9961C52.2081 19.0751 50.9843 19.8192 49.6215 20.1035C49.5545 20.1179 49.4862 20.1253 49.4178 20.1257ZM41.8951 24.3025C41.6612 24.3054 41.4336 24.2267 41.2515 24.08C41.0693 23.9332 40.944 23.7276 40.8969 23.4985C40.8499 23.2694 40.8842 23.0311 40.9938 22.8244C41.1035 22.6178 41.2817 22.4559 41.4978 22.3664L44.9808 20.8699C45.2258 20.769 45.5006 20.7686 45.7459 20.8687C45.9912 20.9688 46.1873 21.1614 46.2917 21.405C46.3961 21.6485 46.4005 21.9233 46.3039 22.17C46.2072 22.4167 46.0174 22.6155 45.7754 22.7234L42.2924 24.2198C42.1671 24.2748 42.0318 24.3029 41.8951 24.3025ZM54.4537 36.6373C54.2246 36.6351 54.003 36.5551 53.8254 36.4104C53.6477 36.2657 53.5245 36.0649 53.4759 35.841C53.4274 35.6171 53.4564 35.3833 53.5582 35.178C53.66 34.9727 53.8286 34.8081 54.0362 34.7113L57.8964 32.9566C58.0726 32.876 58.2219 32.7464 58.3267 32.5834C58.4314 32.4204 58.4872 32.2308 58.4873 32.037V29.2417C58.4873 27.2249 57.2934 25.4118 55.448 24.6232L51.0272 22.7032C50.7819 22.5965 50.589 22.3968 50.4907 22.1481C50.3924 21.8993 50.3968 21.6217 50.5028 21.3761C50.7246 20.8639 51.3095 20.6299 51.8299 20.8538L56.2446 22.7698C57.5113 23.3116 58.5906 24.2141 59.348 25.3649C60.1054 26.5158 60.5075 27.864 60.5041 29.2417V32.037C60.5041 33.2188 59.8083 34.2998 58.7314 34.7919L54.8712 36.5466C54.74 36.6058 54.5977 36.6367 54.4537 36.6373ZM32.8941 9.97312C30.0262 9.97312 27.0413 8.9627 25.3956 7.48236C25.2972 7.3939 25.2172 7.28693 25.1601 7.16755C25.1031 7.04817 25.0701 6.91872 25.0631 6.7866C25.056 6.65447 25.0751 6.52226 25.1192 6.3975C25.1633 6.27275 25.2315 6.1579 25.3199 6.0595C25.4084 5.96111 25.5154 5.88111 25.6348 5.82406C25.7541 5.76701 25.8836 5.73403 26.0157 5.72701C26.1478 5.71998 26.28 5.73905 26.4048 5.78313C26.5296 5.8272 26.6444 5.89541 26.7428 5.98387C28.7314 7.77076 33.4951 8.70455 36.2238 7.24035C36.3405 7.17771 36.4683 7.13866 36.6001 7.12544C36.7318 7.11222 36.8649 7.12508 36.9917 7.16328C37.1185 7.20148 37.2365 7.26429 37.339 7.3481C37.4415 7.43192 37.5265 7.53511 37.5892 7.65177C37.6518 7.76844 37.6909 7.8963 37.7041 8.02806C37.7173 8.15981 37.7045 8.29289 37.6662 8.41967C37.628 8.54646 37.5652 8.66448 37.4814 8.767C37.3976 8.86951 37.2944 8.95451 37.1778 9.01715C35.9334 9.68068 34.4309 9.97312 32.8941 9.97312ZM30.2379 28.2938C26.892 28.2938 25.1475 25.684 24.6917 24.3025C24.6187 24.0521 24.6455 23.7832 24.7665 23.5522C24.8876 23.3211 25.0935 23.146 25.3409 23.0635C25.5883 22.981 25.8581 22.9976 26.0935 23.1098C26.329 23.222 26.5118 23.4211 26.6036 23.6652C26.646 23.7862 27.5394 26.275 30.2379 26.275C32.9586 26.275 33.9166 23.7096 33.9589 23.6007C34.048 23.3485 34.2336 23.142 34.4749 23.0266C34.5944 22.9695 34.7239 22.9365 34.8562 22.9294C34.9884 22.9224 35.1208 22.9415 35.2457 22.9856C35.3705 23.0297 35.4855 23.0979 35.584 23.1864C35.6825 23.275 35.7626 23.382 35.8197 23.5015C35.8768 23.621 35.9099 23.7506 35.9169 23.8828C35.9239 24.0151 35.9049 24.1474 35.8608 24.2723C35.8023 24.4377 34.4087 28.2938 30.2379 28.2938Z" fill="#555555"/>
<path d="M49.4117 36.361C49.1443 36.361 48.8878 36.2547 48.6987 36.0656C48.5096 35.8765 48.4033 35.62 48.4033 35.3526V34.7899C48.4048 33.3323 47.9545 31.9101 47.1144 30.7189C46.2744 29.5278 45.0858 28.6263 43.7122 28.1385L35.3001 25.1536C34.7094 24.9471 34.1974 24.5621 33.835 24.052C33.4727 23.5418 33.2777 22.9316 33.2773 22.3059V19.8252C33.2773 19.5577 33.3835 19.3012 33.5726 19.1121C33.7617 18.923 34.0182 18.8168 34.2857 18.8168C34.5531 18.8168 34.8096 18.923 34.9987 19.1121C35.1878 19.3012 35.2941 19.5577 35.2941 19.8252V22.3059C35.2941 22.7294 35.5663 23.1085 35.9697 23.2497L44.3838 26.2366C46.1508 26.8633 47.68 28.0224 48.761 29.5541C49.842 31.0859 50.4216 32.9151 50.4201 34.7899V35.3546C50.4196 35.6217 50.3131 35.8777 50.1241 36.0663C49.935 36.255 49.6788 36.361 49.4117 36.361ZM11.0924 36.361C10.8249 36.361 10.5685 36.2547 10.3793 36.0656C10.1902 35.8765 10.084 35.62 10.084 35.3526V34.808C10.084 34.1788 10.1505 33.5475 10.2816 32.9243C10.6102 31.404 11.3202 29.9923 12.3448 28.822C13.3694 27.6517 14.6749 26.7613 16.1384 26.2346L24.5324 23.2901C24.7294 23.222 24.9004 23.0944 25.0218 22.925C25.1432 22.7555 25.2089 22.5526 25.21 22.3442V19.8232C25.21 19.5557 25.3163 19.2992 25.5054 19.1101C25.6945 18.921 25.951 18.8148 26.2184 18.8148C26.4859 18.8148 26.7424 18.921 26.9315 19.1101C27.1206 19.2992 27.2268 19.5557 27.2268 19.8232V22.3442C27.2256 22.9706 27.0299 23.5811 26.6669 24.0916C26.3038 24.602 25.7913 24.9872 25.1999 25.1939L16.8121 28.1364C15.673 28.546 14.6569 29.2387 13.8595 30.1493C13.0621 31.06 12.5096 32.1587 12.2541 33.3418C12.1512 33.8258 12.1008 34.32 12.1008 34.808V35.3526C12.1008 35.62 11.9945 35.8765 11.8054 36.0656C11.6163 36.2547 11.3598 36.361 11.0924 36.361Z" fill="#555555"/>
<path d="M30.2524 22.2433C29.985 22.2433 29.7285 22.1371 29.5394 21.948C29.3503 21.7589 29.244 21.5024 29.244 21.2349C29.244 20.9675 29.3503 20.711 29.5394 20.5219C29.7285 20.3328 29.985 20.2265 30.2524 20.2265C32.3459 20.2265 36.3028 18.3307 36.3028 11.1509V8.1257C36.3028 4.7899 33.5882 2.07528 30.2524 2.07528C26.9166 2.07528 24.202 4.7899 24.202 8.1257V11.1509C24.202 14.6279 25.1317 17.2881 26.8884 18.843C26.9918 18.9294 27.0768 19.0357 27.1384 19.1556C27.2 19.2754 27.237 19.4064 27.2471 19.5408C27.2573 19.6751 27.2404 19.8102 27.1974 19.9379C27.1545 20.0657 27.0864 20.1835 26.9972 20.2845C26.9079 20.3854 26.7993 20.4675 26.6778 20.5258C26.5564 20.5841 26.4244 20.6175 26.2898 20.6239C26.1552 20.6303 26.0207 20.6097 25.8942 20.5633C25.7677 20.5169 25.6517 20.4456 25.5533 20.3536C24.0164 18.9943 22.1852 16.2958 22.1852 11.1509V8.1257C22.1852 3.67662 25.8033 0.0584717 30.2524 0.0584717C34.7015 0.0584717 38.3196 3.67662 38.3196 8.1257V11.1509C38.3196 19.926 33.0437 22.2433 30.2524 22.2433ZM45.6164 54.5122C45.3892 54.5118 45.1687 54.4345 44.9908 54.2931C44.8129 54.1516 44.688 53.9542 44.6364 53.7328C44.5848 53.5114 44.6095 53.2791 44.7065 53.0736C44.8035 52.868 44.9671 52.7012 45.1707 52.6003L50.1583 50.1297C50.2972 50.0611 50.4501 50.0254 50.605 50.0254C50.76 50.0254 50.9128 50.0611 51.0517 50.1297L54.3109 51.7452L53.7805 48.1472C53.7582 47.9935 53.7717 47.8367 53.82 47.6891C53.8683 47.5414 53.95 47.407 54.0588 47.2961L56.606 44.6924L53.0161 44.0813C52.8632 44.0548 52.7184 43.9936 52.5929 43.9023C52.4674 43.8111 52.3645 43.6922 52.2921 43.5549L50.606 40.3321L48.918 43.5549C48.8456 43.6922 48.7427 43.8111 48.6171 43.9023C48.4916 43.9936 48.3468 44.0548 48.1939 44.0813L44.606 44.6924L47.1512 47.2961C47.3341 47.4881 47.4339 47.7444 47.4292 48.0095C47.4244 48.2746 47.3155 48.5272 47.1259 48.7126C46.9363 48.8979 46.6813 49.0011 46.4162 48.9999C46.151 48.9986 45.8971 48.893 45.7092 48.7059L41.8188 44.7267C41.6897 44.5953 41.5991 44.4311 41.5569 44.2518C41.5148 44.0725 41.5226 43.885 41.5796 43.7099C41.6366 43.5347 41.7406 43.3786 41.8802 43.2584C42.0198 43.1383 42.1897 43.0588 42.3714 43.0286L47.365 42.1775L49.7146 37.6921C49.8009 37.5301 49.9297 37.3947 50.087 37.3002C50.2444 37.2058 50.4245 37.1559 50.608 37.1559C50.7916 37.1559 50.9717 37.2058 51.129 37.3002C51.2864 37.3947 51.4152 37.5301 51.5015 37.6921L53.8491 42.1775L58.8447 43.0286C59.026 43.0594 59.1954 43.1393 59.3345 43.2595C59.4737 43.3797 59.5774 43.5357 59.6343 43.7106C59.6912 43.8855 59.6992 44.0726 59.6574 44.2517C59.6156 44.4308 59.5257 44.595 59.3973 44.7267L55.8538 48.3469L56.5919 53.3566C56.6179 53.5387 56.5939 53.7243 56.5225 53.8938C56.4511 54.0632 56.3349 54.2101 56.1865 54.3186C56.0379 54.4275 55.862 54.4933 55.6784 54.5086C55.4948 54.5239 55.3105 54.4882 55.1459 54.4054L50.608 52.1566L46.0682 54.4054C45.9282 54.4764 45.7734 54.513 45.6164 54.5122ZM24.3553 60C24.2103 60.0001 24.0671 59.9689 23.9353 59.9087C23.8035 59.8484 23.6862 59.7605 23.5915 59.6508C23.4967 59.5411 23.4267 59.4123 23.3863 59.2732C23.3458 59.134 23.3358 58.9877 23.357 58.8444L24.2403 52.8282L19.9889 48.48C19.8598 48.3486 19.7692 48.1843 19.727 48.005C19.6848 47.8257 19.6927 47.6383 19.7497 47.4632C19.8067 47.288 19.9106 47.1318 20.0503 47.0117C20.1899 46.8916 20.3598 46.8121 20.5415 46.7818L26.5395 45.7613L29.359 40.3744C29.7099 39.7089 30.7969 39.7089 31.1479 40.3744L33.9674 45.7613L39.9654 46.7818C40.1466 46.8127 40.316 46.8926 40.4552 47.0128C40.5944 47.133 40.698 47.289 40.7549 47.4639C40.8119 47.6388 40.8199 47.8259 40.7781 48.005C40.7363 48.1841 40.6464 48.3483 40.518 48.48L36.2645 52.8282L37.1499 58.8444C37.1758 59.0264 37.1518 59.2121 37.0804 59.3815C37.009 59.551 36.8929 59.6978 36.7445 59.8064C36.5959 59.9153 36.42 59.981 36.2364 59.9963C36.0528 60.0116 35.8685 59.9759 35.7038 59.8931L30.2524 57.1926L24.803 59.8931C24.6641 59.963 24.5108 59.9996 24.3553 60ZM22.7761 48.4457L26.0312 51.7754C26.2511 52.0013 26.3539 52.3159 26.3096 52.6265L25.6319 57.2309L29.8047 55.1637C29.9433 55.0941 30.0963 55.0579 30.2514 55.0579C30.4065 55.0579 30.5595 55.0941 30.6981 55.1637L34.8689 57.2309L34.1912 52.6265C34.1689 52.4728 34.1825 52.316 34.2307 52.1684C34.279 52.0208 34.3607 51.8863 34.4696 51.7754L37.7267 48.4457L33.1344 47.6632C32.9815 47.6367 32.8367 47.5754 32.7112 47.4842C32.5857 47.3929 32.4828 47.2741 32.4104 47.1368L30.2524 43.0124L28.0944 47.1368C28.022 47.2741 27.9191 47.3929 27.7936 47.4842C27.6681 47.5754 27.5233 47.6367 27.3704 47.6632L22.7761 48.4457ZM15.0517 54.5122C14.8965 54.5119 14.7433 54.476 14.604 54.4074L10.0662 52.1586L5.52636 54.4094C5.36137 54.4913 5.17709 54.5265 4.99352 54.5111C4.80995 54.4957 4.63411 54.4303 4.48508 54.322C4.33606 54.2137 4.21954 54.0667 4.14818 53.8968C4.07682 53.727 4.05335 53.5409 4.08031 53.3586L4.81846 48.3489L1.27493 44.7287C1.14583 44.5974 1.05525 44.4331 1.01307 44.2538C0.970892 44.0745 0.978727 43.887 1.03572 43.7119C1.09272 43.5367 1.19669 43.3806 1.33631 43.2605C1.47593 43.1403 1.64585 43.0608 1.82754 43.0306L6.82317 42.1795L9.17275 37.6941C9.25908 37.5321 9.38782 37.3967 9.54519 37.3022C9.70257 37.2078 9.88265 37.1579 10.0662 37.1579C10.2497 37.1579 10.4298 37.2078 10.5872 37.3022C10.7446 37.3967 10.8733 37.5321 10.9596 37.6941L13.3072 42.1795L18.3008 43.0306C18.4821 43.0615 18.6515 43.1413 18.7907 43.2615C18.9299 43.3818 19.0335 43.5377 19.0904 43.7126C19.1473 43.8875 19.1553 44.0746 19.1135 44.2537C19.0718 44.4328 18.9818 44.5971 18.8534 44.7287L14.963 48.7059C14.7752 48.893 14.5212 48.9986 14.2561 48.9999C13.9909 49.0011 13.7359 48.8979 13.5464 48.7126C13.3568 48.5272 13.2478 48.2746 13.243 48.0095C13.2383 47.7444 13.3382 47.4881 13.521 47.2961L16.0662 44.6924L12.4783 44.0813C12.3253 44.0551 12.1804 43.994 12.0548 43.9027C11.9292 43.8114 11.8264 43.6924 11.7543 43.5549L10.0682 40.3321L8.38015 43.5549C8.30776 43.6922 8.20485 43.8111 8.07933 43.9023C7.95381 43.9936 7.80902 44.0548 7.65611 44.0813L4.0662 44.6924L6.61342 47.2961C6.83325 47.522 6.93611 47.8366 6.89174 48.1472L6.36132 51.7452L9.6225 50.1297C9.76141 50.0611 9.91427 50.0254 10.0692 50.0254C10.2242 50.0254 10.377 50.0611 10.5159 50.1297L15.5015 52.6003C15.7055 52.7014 15.8692 52.8685 15.9661 53.0745C16.0631 53.2805 16.0874 53.5132 16.0353 53.7348C15.9832 53.9563 15.8576 54.1538 15.679 54.2949C15.5005 54.4361 15.2794 54.5127 15.0517 54.5122Z" fill="#555555"/>
</g>
<defs>
<clipPath id="clip0_82_2997">
<rect width="60.5042" height="60" rx="15" fill="white"/>
</clipPath>
</defs>
</svg>
