<svg width="60" height="60" viewBox="0 0 60 60" fill="none" xmlns="http://www.w3.org/2000/svg">
<g clip-path="url(#clip0_82_1304)">
<path d="M34.9319 0L59.8833 24.952V0H34.9319ZM54.8924 12.905L46.979 4.98962H54.8925L54.8924 12.905ZM39.9219 37.4269V19.9607H22.4564V2.49576H0V24.9519H17.4656V37.4269H0V59.8833H22.4564V42.4177H34.9319V59.8833H57.3882V37.4269H39.9219ZM17.4656 54.8925H4.99079V42.4177H17.4662V54.8925H17.4656ZM17.4656 19.9607H4.99079V7.48538H17.4662V19.9608L17.4656 19.9607ZM34.9319 37.4269H22.4564V24.952H34.9319V37.4269ZM52.3974 54.8925H39.9219V42.4177H52.3974V54.8925Z" fill="#586CEC"/>
</g>
<defs>
<clipPath id="clip0_82_1304">
<rect width="60" height="60" fill="white"/>
</clipPath>
</defs>
</svg>
