<svg width="28" height="27" viewBox="0 0 28 27" fill="none" xmlns="http://www.w3.org/2000/svg">
<g clip-path="url(#clip0_82_1197)">
<path d="M1.78732 5.47114C1.78732 5.57219 1.82315 5.67005 1.88856 5.74766C1.95397 5.82528 2.04482 5.87774 2.14529 5.89592C2.80243 6.01484 3.34456 6.11853 3.78023 6.20183C4.92379 6.42056 5.50634 6.52992 6.08889 6.52992C6.67145 6.52992 7.254 6.42056 8.39761 6.20183C8.83323 6.11853 9.37535 6.01484 10.0325 5.89592C10.0889 5.88573 10.1427 5.86462 10.1909 5.83381C10.2391 5.803 10.2806 5.7631 10.3132 5.71637V7.16544C10.3131 7.2457 10.3357 7.32438 10.3784 7.39264C10.421 7.46091 10.4821 7.51606 10.5547 7.5519C10.6272 7.58774 10.7085 7.60286 10.7893 7.59556C10.87 7.58825 10.9472 7.55881 11.012 7.51055L11.3994 7.22234L11.7869 7.51055C11.8517 7.55879 11.9288 7.58821 12.0096 7.59551C12.0904 7.6028 12.1716 7.58767 12.2442 7.55183C12.3168 7.51598 12.3778 7.46084 12.4205 7.39258C12.4631 7.32432 12.4857 7.24564 12.4857 7.16539V5.20474C12.4857 5.12894 12.4655 5.05447 12.4272 4.98882C12.3889 4.92318 12.3338 4.86866 12.2674 4.83076L11.8359 4.58423V2.36847L11.8535 2.36388C11.9465 2.33944 12.0287 2.28527 12.0874 2.20979C12.1461 2.13431 12.1779 2.04177 12.1779 1.94655C12.1779 1.85133 12.1461 1.75879 12.0874 1.68331C12.0287 1.60784 11.9465 1.55366 11.8535 1.52922L6.20096 0.0436627C6.12754 0.0243927 6.0503 0.0243927 5.97688 0.0436627L0.324357 1.52917C0.231351 1.55363 0.149123 1.60781 0.0904635 1.68329C0.0318035 1.75877 0 1.85131 0 1.94652C0 2.04173 0.0318035 2.13428 0.0904635 2.20976C0.149123 2.28524 0.231351 2.33942 0.324357 2.36388L1.78732 2.74833V5.47114ZM8.23191 5.35384C6.089 5.76377 6.089 5.76377 3.94588 5.35384C3.51766 5.27153 3.08913 5.19079 2.6603 5.11162V2.97775L5.97688 3.84933C6.05031 3.86866 6.12758 3.86866 6.20102 3.84933L9.5176 2.97775V5.11157C9.01465 5.20409 8.58787 5.28577 8.23191 5.35384ZM11.6127 6.3052C11.5466 6.26849 11.473 6.25014 11.3994 6.25014C11.3259 6.25014 11.2523 6.26849 11.1861 6.3052V5.45403L11.3994 5.33219L11.6127 5.45403V6.3052ZM10.9629 4.58428L10.5315 4.83076C10.4752 4.86315 10.4271 4.9076 10.3905 4.96086V2.74833L10.9629 2.59789V4.58428ZM6.08889 0.907792L10.0412 1.9465L6.08889 2.9852L2.13662 1.94655L6.08889 0.907792ZM17.8064 22.8364C17.8206 22.5983 18.027 22.4179 18.2678 22.4307C19.0964 22.4791 19.7753 22.5803 20.4695 22.759C20.5815 22.7879 20.6774 22.8595 20.736 22.9583C20.7946 23.0571 20.8111 23.1748 20.782 23.2857C20.7577 23.3781 20.703 23.46 20.6267 23.5185C20.5503 23.577 20.4564 23.6088 20.3598 23.6089C20.3227 23.6089 20.2856 23.6042 20.2496 23.5949C19.6128 23.431 18.9857 23.3379 18.2163 23.2929C18.1591 23.2896 18.1031 23.2751 18.0516 23.2504C18 23.2256 17.9538 23.1911 17.9158 23.1487C17.8777 23.1063 17.8484 23.0569 17.8297 23.0033C17.8109 22.9497 17.803 22.893 17.8064 22.8364ZM20.7835 20.5659C20.7603 20.6598 20.706 20.7432 20.6292 20.803C20.5524 20.8627 20.4575 20.8952 20.3598 20.8954C20.3248 20.8953 20.2899 20.8912 20.2559 20.883C19.5592 20.7145 18.9694 20.6306 18.2201 20.5933C18.1629 20.5904 18.1067 20.5765 18.055 20.5521C18.0032 20.5278 17.9567 20.4937 17.9183 20.4516C17.8798 20.4095 17.8502 20.3604 17.8309 20.3069C17.8117 20.2535 17.8033 20.1969 17.8062 20.1402C17.8183 19.902 18.0233 19.7194 18.264 19.7306C19.0721 19.7709 19.7092 19.8617 20.4631 20.0439C20.5188 20.0574 20.5713 20.0816 20.6175 20.1151C20.6637 20.1486 20.7029 20.1908 20.7326 20.2392C20.7624 20.2877 20.7822 20.3415 20.7909 20.3975C20.7996 20.4536 20.7971 20.5108 20.7835 20.5659ZM17.8063 21.4882C17.8195 21.25 18.0246 21.0682 18.2661 21.0807C19.0865 21.1255 19.7446 21.2217 20.4666 21.4024C20.5788 21.4305 20.6752 21.5016 20.7344 21.6C20.7937 21.6983 20.8111 21.816 20.7827 21.927C20.7543 22.0381 20.6825 22.1334 20.583 22.1921C20.4836 22.2507 20.3647 22.2679 20.2524 22.2398C19.5878 22.0734 18.9794 21.9847 18.218 21.9432C18.1608 21.9401 18.1047 21.9258 18.0531 21.9013C18.0014 21.8767 17.9551 21.8423 17.9169 21.8001C17.8787 21.7578 17.8492 21.7085 17.8302 21.655C17.8112 21.6015 17.8031 21.5448 17.8063 21.4882ZM20.7814 24.6421C20.7567 24.7341 20.702 24.8154 20.6257 24.8735C20.5495 24.9316 20.456 24.9631 20.3598 24.9632C20.3227 24.9632 20.285 24.9585 20.2475 24.9485C19.6352 24.7877 18.9893 24.6904 18.2147 24.6423C18.1575 24.6388 18.1016 24.6241 18.0501 24.5992C17.9986 24.5742 17.9526 24.5395 17.9147 24.497C17.8768 24.4544 17.8477 24.4049 17.8291 24.3513C17.8105 24.2976 17.8028 24.2409 17.8064 24.1843C17.8215 23.9462 18.0295 23.7658 18.2694 23.7803C19.1027 23.8321 19.8024 23.9381 20.4715 24.1139C20.5269 24.1284 20.5789 24.1536 20.6244 24.1881C20.67 24.2225 20.7082 24.2654 20.737 24.3145C20.7658 24.3635 20.7845 24.4177 20.7921 24.4739C20.7998 24.5301 20.7961 24.5873 20.7814 24.6421ZM26.4581 18.4924C24.1719 18.4924 23.4377 18.6892 21.975 19.0812C21.8822 19.1061 21.7863 19.1318 21.6866 19.1584C21.5869 19.1318 21.491 19.1061 21.3982 19.0812C19.9354 18.6892 19.2012 18.4924 16.915 18.4924C16.7992 18.4924 16.6882 18.5379 16.6063 18.6189C16.5245 18.6999 16.4785 18.8097 16.4785 18.9243V25.3127C16.4785 25.4272 16.5245 25.5371 16.6063 25.6181C16.6882 25.6991 16.7992 25.7446 16.915 25.7446C18.9659 25.7446 20.4979 26.0256 21.4683 26.5799C21.5347 26.6179 21.6099 26.6378 21.6866 26.6378C21.7632 26.6378 21.8385 26.6179 21.9048 26.5799C22.8752 26.0256 24.4072 25.7446 26.4581 25.7446C26.5739 25.7446 26.6849 25.6991 26.7668 25.6181C26.8486 25.5371 26.8946 25.4272 26.8946 25.3127V18.9243C26.8946 18.8097 26.8486 18.6999 26.7668 18.6189C26.6849 18.5379 26.5739 18.4924 26.4581 18.4924ZM21.2501 25.5185C20.2643 25.1247 18.978 24.9161 17.3515 24.885V19.3587C19.181 19.3818 19.8392 19.5582 21.1699 19.9149L21.2501 19.9363V25.5185ZM26.0216 24.885C24.3951 24.9161 23.1088 25.1247 22.1231 25.5184V19.9363L22.2032 19.9149C23.534 19.5583 24.1921 19.3818 26.0216 19.3587V24.885ZM25.5667 24.1843C25.574 24.2986 25.535 24.4111 25.4584 24.497C25.3819 24.5829 25.274 24.6352 25.1584 24.6424C24.3839 24.6905 23.7379 24.7877 23.1257 24.9486C23.0891 24.9583 23.0513 24.9632 23.0134 24.9632C22.9172 24.9631 22.8237 24.9316 22.7475 24.8735C22.6712 24.8155 22.6165 24.7341 22.5918 24.6422C22.5771 24.5873 22.5734 24.5302 22.581 24.474C22.5886 24.4178 22.6074 24.3636 22.6361 24.3145C22.6649 24.2655 22.7032 24.2225 22.7487 24.1881C22.7943 24.1537 22.8462 24.1285 22.9017 24.1139C23.5707 23.9381 24.2704 23.8321 25.1038 23.7804C25.3444 23.7649 25.5516 23.9463 25.5667 24.1843ZM25.5668 22.8364C25.5736 22.9507 25.5342 23.063 25.4574 23.1487C25.3805 23.2343 25.2724 23.2862 25.1568 23.2929C24.3874 23.3379 23.7603 23.431 23.1236 23.5949C23.0876 23.6042 23.0505 23.6089 23.0133 23.609C22.9071 23.609 22.8046 23.5707 22.7248 23.5012C22.6451 23.4318 22.5937 23.336 22.5803 23.2318C22.5668 23.1275 22.5923 23.022 22.6518 22.935C22.7114 22.848 22.8009 22.7854 22.9037 22.7591C23.5978 22.5804 24.2768 22.4792 25.1053 22.4308C25.3462 22.4174 25.5526 22.5983 25.5668 22.8364ZM25.5669 21.4882C25.57 21.5448 25.5619 21.6015 25.5429 21.655C25.5239 21.7085 25.4945 21.7578 25.4562 21.8001C25.418 21.8423 25.3717 21.8767 25.3201 21.9013C25.2684 21.9258 25.2123 21.9401 25.1551 21.9432C24.3937 21.9847 23.7853 22.0734 23.1207 22.2398C23.0085 22.2678 22.8896 22.2506 22.7902 22.192C22.6908 22.1334 22.6189 22.0381 22.5905 21.9271C22.5764 21.8721 22.5734 21.8149 22.5817 21.7588C22.59 21.7027 22.6093 21.6487 22.6387 21.6C22.668 21.5513 22.7068 21.5087 22.7528 21.4748C22.7987 21.4409 22.851 21.4163 22.9066 21.4024C23.6285 21.2217 24.2866 21.1255 25.107 21.0807C25.2226 21.0745 25.336 21.1139 25.4222 21.1903C25.5085 21.2667 25.5605 21.3738 25.5669 21.4882ZM22.5896 20.5659C22.576 20.5108 22.5735 20.4536 22.5823 20.3975C22.591 20.3415 22.6108 20.2877 22.6406 20.2392C22.6703 20.1907 22.7094 20.1485 22.7557 20.115C22.8019 20.0815 22.8544 20.0573 22.9101 20.0439C23.6639 19.8616 24.301 19.7708 25.1091 19.7306C25.3491 19.718 25.5549 19.9019 25.567 20.1402C25.5728 20.2546 25.5324 20.3665 25.4548 20.4515C25.3772 20.5365 25.2686 20.5875 25.153 20.5932C24.4038 20.6305 23.814 20.7145 23.1173 20.8829C23.0616 20.8964 23.0038 20.8989 22.9471 20.8902C22.8905 20.8816 22.8361 20.862 22.7871 20.8325C22.7381 20.8031 22.6954 20.7644 22.6615 20.7186C22.6277 20.6729 22.6032 20.621 22.5896 20.5659ZM19.1587 15.8595L19.5819 14.7447C19.5851 14.7363 19.5876 14.7279 19.5902 14.7194H20.1656C20.5258 14.7194 20.8189 14.4295 20.8189 14.073V12.196C20.8189 11.8396 20.5258 11.5496 20.1656 11.5496H19.6097C19.6091 10.9858 19.1454 10.5273 18.5754 10.5273H8.3191C7.74915 10.5273 7.28543 10.9858 7.28483 11.5496H6.72896C6.36869 11.5496 6.07564 11.8396 6.07564 12.196V14.073C6.07564 14.4295 6.36874 14.7194 6.72896 14.7194H7.30431C7.30693 14.7279 7.30944 14.7363 7.3126 14.7447L7.73583 15.8595C7.76705 15.9418 7.8229 16.0127 7.89591 16.0627C7.96892 16.1128 8.05563 16.1396 8.14445 16.1396H12.1109C12.1687 16.1396 12.226 16.1282 12.2794 16.1061C12.3327 16.084 12.3811 16.0516 12.4217 16.0108L13.4472 14.9813L14.4727 16.0108C14.5133 16.0516 14.5617 16.084 14.6151 16.1061C14.6685 16.1282 14.7257 16.1396 14.7836 16.1396H18.75C18.8388 16.1396 18.9255 16.1128 18.9986 16.0627C19.0716 16.0127 19.1274 15.9418 19.1587 15.8595ZM19.9459 13.8557H19.6097V12.4133H19.9459V13.8557ZM6.94862 12.4133H7.28477V13.8557H6.94862V12.4133ZM18.7368 14.5144L18.4477 15.2758H14.9663L13.7582 14.0629C13.7176 14.0221 13.6692 13.9897 13.6158 13.9676C13.5624 13.9455 13.5051 13.9342 13.4473 13.9342C13.3894 13.9342 13.3321 13.9455 13.2788 13.9676C13.2254 13.9897 13.177 14.0221 13.1364 14.0629L11.9282 15.2758H8.44683L8.15776 14.5144V11.5507C8.15776 11.4642 8.23164 11.3911 8.3191 11.3911H18.5755C18.6629 11.3911 18.7368 11.4642 18.7368 11.5507V14.5144ZM14.4194 23.7521C14.4179 23.8656 14.3712 23.9739 14.2896 24.0536C14.2079 24.1334 14.0978 24.1781 13.9831 24.1781L13.9771 24.1781C13.1327 24.1663 12.2917 24.0684 11.4676 23.8859C8.28685 23.1824 5.57334 21.2955 3.82694 18.5728C2.08053 15.8501 1.51042 12.6176 2.22146 9.47065C2.30837 9.087 2.41395 8.70772 2.53781 8.33414L1.8732 8.76642C1.8253 8.79789 1.7716 8.8197 1.71517 8.83058C1.65873 8.84146 1.60068 8.8412 1.54435 8.82982C1.48802 8.81844 1.43451 8.79616 1.38691 8.76427C1.3393 8.73237 1.29854 8.69148 1.26695 8.64395C1.23536 8.59642 1.21358 8.54319 1.20285 8.4873C1.19212 8.43142 1.19265 8.37399 1.20442 8.31831C1.21619 8.26263 1.23896 8.2098 1.27142 8.16285C1.30389 8.11591 1.34541 8.07577 1.3936 8.04474L3.20733 6.86499C3.26267 6.829 3.32556 6.80595 3.39124 6.79756C3.45691 6.78918 3.52365 6.79569 3.58641 6.8166C3.64917 6.83751 3.7063 6.87226 3.75347 6.91824C3.80064 6.96422 3.83662 7.02022 3.85869 7.08199L4.58169 9.10687C4.60497 9.17201 4.61211 9.24173 4.60252 9.31017C4.59292 9.3786 4.56687 9.44376 4.52655 9.50018C4.48623 9.55659 4.43282 9.60261 4.3708 9.63437C4.30878 9.66612 4.23996 9.6827 4.17013 9.68269C4.07984 9.68266 3.99178 9.65494 3.91808 9.60334C3.84437 9.55175 3.78865 9.47882 3.75857 9.39459L3.4204 8.4475C3.28214 8.84469 3.16629 9.24919 3.07339 9.6591C1.7106 15.6906 5.56167 21.6946 11.658 23.043C12.4235 23.2125 13.2045 23.3035 13.9888 23.3144C14.0461 23.3152 14.1027 23.3271 14.1554 23.3495C14.208 23.3719 14.2557 23.4044 14.2957 23.445C14.3357 23.4856 14.3672 23.5337 14.3884 23.5864C14.4097 23.639 14.4202 23.6953 14.4194 23.7521ZM26.8657 16.164L25.052 17.3437C24.9966 17.3797 24.9337 17.4028 24.868 17.4112C24.8024 17.4196 24.7356 17.4131 24.6728 17.3922C24.6101 17.3713 24.5529 17.3365 24.5058 17.2905C24.4586 17.2445 24.4226 17.1885 24.4006 17.1267L23.6776 15.1018C23.6582 15.0483 23.6498 14.9915 23.6526 14.9347C23.6555 14.8779 23.6697 14.8223 23.6944 14.7709C23.7191 14.7196 23.7537 14.6736 23.7964 14.6355C23.8391 14.5975 23.889 14.5681 23.9432 14.5492C23.9973 14.5303 24.0548 14.5221 24.1122 14.5252C24.1695 14.5282 24.2257 14.5425 24.2775 14.5671C24.3293 14.5917 24.3757 14.6262 24.414 14.6686C24.4523 14.711 24.4818 14.7604 24.5007 14.8141L24.8389 15.7611C24.9771 15.364 25.0929 14.9595 25.1858 14.5496C25.846 11.6278 25.3166 8.6265 23.6952 6.09862C22.0737 3.57073 19.5544 1.81889 16.6012 1.16571C15.1701 0.849277 13.7177 0.807711 12.2842 1.04226C12.0465 1.0814 11.8217 0.921935 11.7824 0.686686C11.7635 0.573692 11.7908 0.457902 11.8582 0.364788C11.9256 0.271674 12.0276 0.208861 12.1418 0.190167C13.6863 -0.0625721 15.2507 -0.0179297 16.7916 0.322799C19.9724 1.02628 22.686 2.91314 24.4323 5.63584C26.1787 8.35853 26.7489 11.5911 26.0378 14.738C25.9509 15.1217 25.8454 15.5009 25.7216 15.8745L26.3861 15.4422C26.4829 15.3817 26.5997 15.3612 26.7116 15.3851C26.8235 15.409 26.9214 15.4754 26.9843 15.57C27.0472 15.6646 27.07 15.7799 27.0478 15.891C27.0256 16.0021 26.9602 16.1001 26.8657 16.164Z" fill="#1C1C1C"/>
</g>
<defs>
<clipPath id="clip0_82_1197">
<rect width="27.0625" height="26.6667" fill="white"/>
</clipPath>
</defs>
</svg>
