<svg width="28" height="28" viewBox="0 0 28 28" fill="none" xmlns="http://www.w3.org/2000/svg">
<g clip-path="url(#clip0_82_711)">
<path d="M2.5256 6.13788C2.5256 6.23893 2.56143 6.33679 2.62684 6.4144C2.69225 6.49202 2.7831 6.54448 2.88358 6.56266C3.54071 6.68158 4.08284 6.78527 4.51851 6.86857C5.66207 7.0873 6.24462 7.19666 6.82718 7.19666C7.40973 7.19666 7.99228 7.0873 9.13589 6.86857C9.57151 6.78527 10.1136 6.68158 10.7708 6.56266C10.8272 6.55247 10.881 6.53136 10.9292 6.50055C10.9773 6.46974 11.0189 6.42984 11.0514 6.38312V7.83218C11.0514 7.91244 11.074 7.99112 11.1166 8.05938C11.1593 8.12765 11.2204 8.1828 11.2929 8.21864C11.3655 8.25448 11.4468 8.2696 11.5275 8.2623C11.6083 8.25499 11.6855 8.22555 11.7503 8.17729L12.1377 7.88908L12.5251 8.17729C12.59 8.22553 12.6671 8.25496 12.7479 8.26225C12.8287 8.26954 12.9099 8.25441 12.9825 8.21857C13.055 8.18272 13.1161 8.12758 13.1587 8.05932C13.2014 7.99106 13.224 7.91238 13.224 7.83213V5.87148C13.224 5.79568 13.2038 5.72121 13.1655 5.65556C13.1272 5.58992 13.0721 5.5354 13.0057 5.4975L12.5742 5.25097V3.03521L12.5918 3.03062C12.6848 3.00618 12.767 2.95201 12.8257 2.87653C12.8844 2.80105 12.9162 2.70851 12.9162 2.61329C12.9162 2.51807 12.8844 2.42553 12.8257 2.35005C12.767 2.27458 12.6848 2.2204 12.5918 2.19596L6.93924 0.710403C6.86582 0.691133 6.78859 0.691133 6.71516 0.710403L1.06264 2.19591C0.969633 2.22037 0.887405 2.27455 0.828745 2.35003C0.770085 2.42551 0.738281 2.51805 0.738281 2.61326C0.738281 2.70848 0.770085 2.80102 0.828745 2.8765C0.887405 2.95198 0.969633 3.00616 1.06264 3.03062L2.5256 3.41507V6.13788ZM8.97019 6.02058C6.82728 6.43051 6.82728 6.43051 4.68416 6.02058C4.25594 5.93827 3.82741 5.85753 3.39858 5.77837V3.64449L6.71516 4.51607C6.7886 4.5354 6.86586 4.5354 6.9393 4.51607L10.2559 3.64449V5.77831C9.75293 5.87083 9.32615 5.95251 8.97019 6.02058ZM12.351 6.97194C12.2849 6.93523 12.2113 6.91688 12.1377 6.91688C12.0642 6.91688 11.9906 6.93523 11.9244 6.97194V6.12077L12.1377 5.99893L12.351 6.12077V6.97194ZM11.7012 5.25102L11.2697 5.4975C11.2135 5.52989 11.1654 5.57434 11.1288 5.6276V3.41507L11.7012 3.26463V5.25102ZM6.82718 1.57453L10.7795 2.61324L6.82718 3.65194L2.8749 2.61329L6.82718 1.57453ZM18.5447 23.5031C18.5588 23.265 18.7653 23.0847 19.0061 23.0974C19.8346 23.1459 20.5136 23.2471 21.2077 23.4258C21.3198 23.4546 21.4156 23.5263 21.4742 23.625C21.5329 23.7238 21.5494 23.8416 21.5203 23.9524C21.496 24.0449 21.4413 24.1268 21.3649 24.1853C21.2886 24.2438 21.1947 24.2755 21.0981 24.2756C21.0609 24.2756 21.0239 24.2709 20.9879 24.2616C20.3511 24.0977 19.724 24.0046 18.9546 23.9596C18.8974 23.9563 18.8414 23.9418 18.7898 23.9171C18.7383 23.8924 18.6921 23.8578 18.6541 23.8154C18.616 23.773 18.5867 23.7236 18.5679 23.67C18.5492 23.6164 18.5413 23.5597 18.5447 23.5031ZM21.5218 21.2326C21.4986 21.3265 21.4443 21.41 21.3675 21.4697C21.2906 21.5295 21.1958 21.562 21.0981 21.5621C21.0631 21.5621 21.0282 21.5579 20.9942 21.5497C20.2974 21.3813 19.7077 21.2973 18.9584 21.26C18.9011 21.2572 18.845 21.2432 18.7932 21.2189C18.7414 21.1946 18.695 21.1604 18.6566 21.1183C18.6181 21.0763 18.5884 21.0271 18.5692 20.9737C18.55 20.9203 18.5415 20.8636 18.5444 20.807C18.5566 20.5688 18.7615 20.3861 19.0023 20.3974C19.8104 20.4376 20.4475 20.5284 21.2014 20.7107C21.2571 20.7241 21.3096 20.7483 21.3558 20.7818C21.402 20.8153 21.4411 20.8575 21.4709 20.906C21.5006 20.9545 21.5205 21.0082 21.5292 21.0643C21.5379 21.1203 21.5354 21.1775 21.5218 21.2326ZM18.5445 22.1549C18.5578 21.9168 18.7628 21.735 19.0044 21.7475C19.8248 21.7922 20.4829 21.8884 21.2049 22.0692C21.3171 22.0973 21.4134 22.1683 21.4727 22.2667C21.532 22.3651 21.5494 22.4827 21.521 22.5938C21.4926 22.7048 21.4207 22.8001 21.3213 22.8588C21.2219 22.9174 21.1029 22.9346 20.9907 22.9065C20.3261 22.7401 19.7177 22.6514 18.9563 22.6099C18.8991 22.6068 18.843 22.5926 18.7914 22.568C18.7397 22.5435 18.6934 22.5091 18.6552 22.4668C18.6169 22.4246 18.5875 22.3753 18.5685 22.3218C18.5495 22.2683 18.5414 22.2116 18.5445 22.1549ZM21.5197 25.3088C21.495 25.4008 21.4402 25.4822 21.364 25.5402C21.2878 25.5983 21.1943 25.6298 21.0981 25.6299C21.061 25.6299 21.0233 25.6252 20.9857 25.6153C20.3735 25.4545 19.7276 25.3571 18.953 25.3091C18.8958 25.3055 18.8398 25.2908 18.7884 25.2659C18.7369 25.241 18.6909 25.2062 18.653 25.1637C18.615 25.1212 18.586 25.0717 18.5674 25.018C18.5488 24.9644 18.5411 24.9076 18.5447 24.851C18.5598 24.613 18.7678 24.4325 19.0077 24.4471C19.841 24.4988 20.5407 24.6048 21.2098 24.7806C21.2652 24.7952 21.3171 24.8204 21.3627 24.8548C21.4083 24.8892 21.4465 24.9322 21.4753 24.9812C21.5041 25.0303 21.5228 25.0845 21.5304 25.1407C21.538 25.1969 21.5344 25.254 21.5197 25.3088ZM27.1964 19.1591C24.9102 19.1591 24.176 19.356 22.7133 19.7479C22.6205 19.7728 22.5245 19.7986 22.4249 19.8251C22.3252 19.7986 22.2293 19.7728 22.1364 19.7479C20.6737 19.3559 19.9395 19.1591 17.6533 19.1591C17.5375 19.1591 17.4265 19.2046 17.3446 19.2856C17.2628 19.3666 17.2168 19.4765 17.2168 19.591V25.9794C17.2168 26.094 17.2628 26.2038 17.3446 26.2848C17.4265 26.3658 17.5375 26.4113 17.6533 26.4113C19.7042 26.4113 21.2362 26.6923 22.2066 27.2467C22.2729 27.2846 22.3482 27.3046 22.4249 27.3046C22.5015 27.3046 22.5768 27.2846 22.6431 27.2467C23.6135 26.6923 25.1455 26.4113 27.1964 26.4113C27.3122 26.4113 27.4232 26.3658 27.5051 26.2848C27.5869 26.2038 27.6329 26.094 27.6329 25.9794V19.591C27.6329 19.4765 27.5869 19.3666 27.5051 19.2856C27.4232 19.2046 27.3122 19.1591 27.1964 19.1591ZM21.9884 26.1852C21.0026 25.7915 19.7163 25.5828 18.0898 25.5518V20.0255C19.9193 20.0485 20.5774 20.225 21.9082 20.5816L21.9884 20.6031V26.1852ZM26.7599 25.5517C25.1334 25.5828 23.8471 25.7914 22.8613 26.1852V20.6031L22.9415 20.5816C24.2722 20.225 24.9304 20.0485 26.7599 20.0255V25.5517ZM26.305 24.8511C26.3122 24.9654 26.2733 25.0779 26.1967 25.1637C26.1202 25.2496 26.0122 25.3019 25.8967 25.3091C25.1222 25.3572 24.4762 25.4545 23.864 25.6153C23.8274 25.6251 23.7896 25.63 23.7517 25.63C23.6555 25.6299 23.562 25.5983 23.4858 25.5403C23.4095 25.4822 23.3548 25.4009 23.3301 25.3089C23.3154 25.2541 23.3117 25.1969 23.3193 25.1407C23.3269 25.0845 23.3456 25.0303 23.3744 24.9813C23.4032 24.9322 23.4415 24.8893 23.487 24.8549C23.5326 24.8204 23.5845 24.7952 23.6399 24.7807C24.309 24.6049 25.0087 24.4989 25.842 24.4471C26.0827 24.4316 26.2899 24.613 26.305 24.8511ZM26.305 23.5031C26.3119 23.6174 26.2725 23.7298 26.1956 23.8154C26.1188 23.901 26.0106 23.9529 25.8951 23.9597C25.1256 24.0047 24.4986 24.0978 23.8618 24.2617C23.8259 24.271 23.7888 24.2757 23.7516 24.2757C23.6454 24.2757 23.5428 24.2374 23.4631 24.168C23.3834 24.0986 23.332 24.0027 23.3186 23.8985C23.3051 23.7943 23.3306 23.6888 23.3901 23.6018C23.4496 23.5147 23.5392 23.4522 23.642 23.4258C24.3361 23.2471 25.0151 23.1459 25.8436 23.0975C26.0845 23.0842 26.2909 23.2651 26.305 23.5031ZM26.3052 22.1549C26.3083 22.2116 26.3002 22.2683 26.2812 22.3218C26.2622 22.3753 26.2328 22.4246 26.1945 22.4668C26.1563 22.5091 26.11 22.5435 26.0583 22.568C26.0067 22.5926 25.9506 22.6068 25.8934 22.6099C25.132 22.6515 24.5236 22.7401 23.859 22.9065C23.7468 22.9346 23.6279 22.9174 23.5285 22.8587C23.429 22.8001 23.3572 22.7048 23.3288 22.5938C23.3147 22.5388 23.3117 22.4816 23.32 22.4255C23.3283 22.3694 23.3476 22.3154 23.377 22.2667C23.4063 22.218 23.4451 22.1755 23.491 22.1416C23.537 22.1077 23.5893 22.0831 23.6448 22.0692C24.3667 21.8884 25.0249 21.7922 25.8453 21.7475C25.9609 21.7412 26.0743 21.7806 26.1605 21.857C26.2467 21.9334 26.2988 22.0406 26.3052 22.1549ZM23.3279 21.2326C23.3143 21.1775 23.3118 21.1203 23.3205 21.0643C23.3293 21.0082 23.3491 20.9544 23.3788 20.906C23.4086 20.8575 23.4477 20.8153 23.494 20.7818C23.5402 20.7483 23.5927 20.7241 23.6483 20.7106C24.4022 20.5284 25.0393 20.4376 25.8474 20.3973C26.0874 20.3848 26.2932 20.5686 26.3053 20.8069C26.3111 20.9213 26.2707 21.0333 26.1931 21.1182C26.1155 21.2032 26.0069 21.2542 25.8913 21.26C25.1421 21.2973 24.5523 21.3812 23.8556 21.5496C23.7999 21.5631 23.7421 21.5656 23.6854 21.557C23.6287 21.5483 23.5744 21.5287 23.5254 21.4993C23.4764 21.4698 23.4337 21.4311 23.3998 21.3854C23.3659 21.3396 23.3415 21.2877 23.3279 21.2326ZM19.897 16.5263L20.3202 15.4114C20.3234 15.4031 20.3259 15.3946 20.3285 15.3861H20.9038C21.2641 15.3861 21.5572 15.0962 21.5572 14.7398V12.8627C21.5572 12.5063 21.2641 12.2163 20.9038 12.2163H20.348C20.3474 11.6525 19.8836 11.1941 19.3137 11.1941H9.05738C8.48743 11.1941 8.02371 11.6525 8.02311 12.2163H7.46724C7.10697 12.2163 6.81392 12.5063 6.81392 12.8627V14.7398C6.81392 15.0962 7.10702 15.3861 7.46724 15.3861H8.04259C8.04521 15.3946 8.04772 15.4031 8.05088 15.4114L8.47412 16.5263C8.50534 16.6085 8.56118 16.6794 8.63419 16.7295C8.7072 16.7795 8.79391 16.8063 8.88273 16.8063H12.8491C12.907 16.8063 12.9643 16.795 13.0176 16.7728C13.071 16.7507 13.1194 16.7184 13.16 16.6776L14.1855 15.6481L15.211 16.6776C15.2516 16.7184 15.3 16.7507 15.3534 16.7728C15.4067 16.7949 15.464 16.8063 15.5219 16.8063H19.4883C19.5771 16.8063 19.6638 16.7795 19.7368 16.7295C19.8099 16.6794 19.8657 16.6085 19.897 16.5263ZM20.6842 14.5224H20.348V13.08H20.6842V14.5224ZM7.6869 13.08H8.02306V14.5224H7.6869V13.08ZM19.4751 15.1811L19.186 15.9426H15.7046L14.4965 14.7296C14.4558 14.6889 14.4074 14.6565 14.3541 14.6344C14.3007 14.6123 14.2434 14.6009 14.1856 14.6009C14.1277 14.6009 14.0704 14.6123 14.0171 14.6344C13.9637 14.6565 13.9153 14.6889 13.8747 14.7296L12.6665 15.9426H9.18511L8.89604 15.1811V12.2174C8.89604 12.1309 8.96992 12.0578 9.05738 12.0578H19.3137C19.4012 12.0578 19.4751 12.1309 19.4751 12.2174V15.1811ZM15.1577 24.4188C15.1562 24.5323 15.1095 24.6406 15.0279 24.7204C14.9462 24.8001 14.8361 24.8448 14.7214 24.8449L14.7154 24.8448C13.8709 24.833 13.03 24.7351 12.2059 24.5527C9.02513 23.8491 6.31162 21.9623 4.56522 19.2396C2.81881 16.5169 2.2487 13.2843 2.95974 10.1374C3.04665 9.75374 3.15223 9.37446 3.27609 9.00088L2.61148 9.43316C2.56359 9.46463 2.50988 9.48644 2.45345 9.49732C2.39701 9.5082 2.33896 9.50794 2.28263 9.49656C2.2263 9.48518 2.17279 9.4629 2.12519 9.43101C2.07758 9.39911 2.03682 9.35822 2.00523 9.31069C1.97364 9.26316 1.95186 9.20993 1.94113 9.15404C1.9304 9.09816 1.93093 9.04073 1.9427 8.98505C1.95447 8.92937 1.97724 8.87654 2.00971 8.82959C2.04217 8.78265 2.08369 8.74251 2.13188 8.71148L3.94562 7.53173C4.00095 7.49574 4.06384 7.47269 4.12952 7.4643C4.19519 7.45592 4.26194 7.46243 4.32469 7.48334C4.38745 7.50425 4.44458 7.53901 4.49175 7.58498C4.53892 7.63096 4.5749 7.68696 4.59697 7.74873L5.31997 9.77361C5.34325 9.83875 5.35039 9.90847 5.3408 9.97691C5.33121 10.0453 5.30515 10.1105 5.26483 10.1669C5.22451 10.2233 5.1711 10.2693 5.10908 10.3011C5.04706 10.3329 4.97824 10.3494 4.90841 10.3494C4.81812 10.3494 4.73006 10.3217 4.65636 10.2701C4.58266 10.2185 4.52693 10.1456 4.49685 10.0613L4.15868 9.11424C4.02042 9.51143 3.90457 9.91593 3.81167 10.3258C2.44888 16.3574 6.29995 22.3614 12.3963 23.7097C13.1617 23.8792 13.9428 23.9702 14.7271 23.9812C14.7844 23.9819 14.841 23.9939 14.8937 24.0163C14.9463 24.0387 14.994 24.0711 15.034 24.1117C15.074 24.1524 15.1055 24.2004 15.1267 24.2531C15.1479 24.3058 15.1585 24.3621 15.1577 24.4188ZM27.604 16.8307L25.7903 18.0105C25.7349 18.0465 25.672 18.0695 25.6063 18.0779C25.5406 18.0863 25.4739 18.0798 25.4111 18.0589C25.3484 18.038 25.2912 18.0032 25.2441 17.9572C25.1969 17.9113 25.1609 17.8553 25.1389 17.7935L24.4159 15.7685C24.3965 15.715 24.388 15.6582 24.3909 15.6014C24.3938 15.5447 24.408 15.489 24.4327 15.4377C24.4573 15.3863 24.492 15.3403 24.5347 15.3023C24.5774 15.2642 24.6273 15.2349 24.6815 15.216C24.7356 15.197 24.7931 15.1888 24.8504 15.1919C24.9078 15.195 24.964 15.2092 25.0158 15.2338C25.0676 15.2584 25.114 15.2929 25.1523 15.3353C25.1906 15.3777 25.22 15.4271 25.239 15.4808L25.5771 16.4279C25.7154 16.0307 25.8312 15.6262 25.9241 15.2164C26.5843 12.2945 26.0549 9.29324 24.4335 6.76536C22.812 4.23747 20.2926 2.48563 17.3394 1.83245C15.9084 1.51602 14.456 1.47445 13.0225 1.709C12.7847 1.74814 12.56 1.58868 12.5207 1.35343C12.5018 1.24043 12.529 1.12464 12.5964 1.03153C12.6638 0.938414 12.7659 0.875602 12.8801 0.856908C14.4246 0.604168 15.989 0.648811 17.5299 0.989539C20.7107 1.69302 23.4243 3.57988 25.1706 6.30258C26.917 9.02528 27.4872 12.2578 26.7761 15.4048C26.6892 15.7884 26.5837 16.1677 26.4598 16.5412L27.1244 16.1089C27.2211 16.0484 27.338 16.0279 27.4499 16.0518C27.5618 16.0757 27.6597 16.1421 27.7226 16.2368C27.7854 16.3314 27.8082 16.4466 27.7861 16.5577C27.7639 16.6688 27.6985 16.7669 27.604 16.8307Z" fill="#555555"/>
</g>
<defs>
<clipPath id="clip0_82_711">
<rect width="27.0625" height="26.6667" fill="white" transform="translate(0.738281 0.666748)"/>
</clipPath>
</defs>
</svg>
