<svg width="61" height="60" viewBox="0 0 61 60" fill="none" xmlns="http://www.w3.org/2000/svg">
<g clip-path="url(#clip0_82_3020)">
<path d="M3.97868 12.3099C3.97869 12.5373 4.05845 12.7575 4.20405 12.9321C4.34966 13.1068 4.5519 13.2248 4.77556 13.2657C6.2384 13.5333 7.4452 13.7666 8.41504 13.954C10.9607 14.4461 12.2575 14.6922 13.5543 14.6922C14.8511 14.6922 16.1479 14.4461 18.6936 13.954C19.6633 13.7666 20.8701 13.5333 22.333 13.2657C22.4586 13.2428 22.5784 13.1953 22.6856 13.126C22.7928 13.0566 22.8853 12.9668 22.9577 12.8617V16.1221C22.9577 16.3027 23.0079 16.4797 23.1029 16.6333C23.1979 16.7869 23.3338 16.911 23.4953 16.9917C23.6569 17.0723 23.8378 17.1063 24.0176 17.0899C24.1974 17.0734 24.3691 17.0072 24.5134 16.8986L25.3758 16.2501L26.2383 16.8986C26.3826 17.0072 26.5543 17.0734 26.7341 17.0898C26.9139 17.1062 27.0948 17.0722 27.2563 16.9915C27.4179 16.9108 27.5538 16.7868 27.6487 16.6332C27.7437 16.4796 27.794 16.3026 27.7939 16.122V11.7106C27.7939 11.54 27.749 11.3724 27.6638 11.2247C27.5785 11.077 27.4558 10.9544 27.3081 10.8691L26.3475 10.3144V5.32893L26.3866 5.31861C26.5937 5.26362 26.7767 5.14173 26.9074 4.97191C27.038 4.80209 27.1088 4.59386 27.1088 4.37962C27.1088 4.16539 27.038 3.95716 26.9074 3.78734C26.7767 3.61751 26.5937 3.49563 26.3866 3.44063L13.8037 0.0981247C13.6403 0.0547672 13.4684 0.0547672 13.3049 0.0981247L0.722039 3.44051C0.515003 3.49555 0.331958 3.61746 0.201377 3.78729C0.0707965 3.95712 0 4.16534 0 4.37956C0 4.59379 0.0707965 4.80201 0.201377 4.97184C0.331958 5.14166 0.515003 5.26358 0.722039 5.31861L3.97868 6.18363V12.3099ZM18.3248 12.046C13.5545 12.9684 13.5545 12.9684 8.78378 12.046C7.83053 11.8608 6.8766 11.6792 5.922 11.501V6.69983L13.3049 8.66088C13.4684 8.70437 13.6404 8.70437 13.8039 8.66088L21.1868 6.69983V11.5009C20.0672 11.7091 19.1171 11.8929 18.3248 12.046ZM25.8506 14.1866C25.7034 14.104 25.5396 14.0627 25.3758 14.0627C25.2121 14.0627 25.0484 14.104 24.9011 14.1866V12.2714L25.3758 11.9973L25.8506 12.2714V14.1866ZM24.4042 10.3145L23.4437 10.8691C23.3185 10.942 23.2113 11.042 23.13 11.1618V6.18363L24.4042 5.84513V10.3145ZM13.5543 2.04242L22.3524 4.3795L13.5543 6.71659L4.75625 4.37962L13.5543 2.04242ZM39.6381 51.3817C39.6697 50.846 40.1293 50.4402 40.6654 50.469C42.5097 50.5779 44.0211 50.8057 45.5663 51.2077C45.8157 51.2726 46.0291 51.4339 46.1596 51.6561C46.2901 51.8783 46.3269 52.1432 46.262 52.3926C46.2079 52.6007 46.0863 52.785 45.9163 52.9166C45.7462 53.0482 45.5373 53.1197 45.3223 53.1199C45.2395 53.1199 45.1571 53.1093 45.077 53.0883C43.6595 52.7196 42.2634 52.5101 40.5507 52.4089C40.4234 52.4014 40.2987 52.3689 40.1839 52.3132C40.0691 52.2575 39.9664 52.1798 39.8816 52.0844C39.7969 51.989 39.7318 51.8778 39.69 51.7573C39.6482 51.6367 39.6306 51.5091 39.6381 51.3817ZM46.2654 46.2731C46.2138 46.4844 46.0928 46.6722 45.9219 46.8066C45.7509 46.941 45.5398 47.0142 45.3223 47.0145C45.2444 47.0144 45.1667 47.005 45.0909 46.9865C43.5399 46.6076 42.2271 46.4187 40.5591 46.3348C40.4317 46.3284 40.3068 46.2969 40.1915 46.2422C40.0762 46.1875 39.9728 46.1106 39.8872 46.016C39.8017 45.9213 39.7356 45.8107 39.6928 45.6905C39.6499 45.5703 39.6312 45.4429 39.6376 45.3154C39.6647 44.7794 40.1209 44.3685 40.6569 44.3938C42.4557 44.4844 43.8739 44.6887 45.5522 45.0987C45.6762 45.129 45.793 45.1834 45.8959 45.2588C45.9988 45.3342 46.0859 45.4291 46.1521 45.5382C46.2183 45.6472 46.2624 45.7683 46.2819 45.8944C46.3013 46.0205 46.2957 46.1492 46.2654 46.2731ZM39.6379 48.3483C39.6674 47.8125 40.1238 47.4034 40.6615 47.4316C42.4879 47.5323 43.9528 47.7487 45.5599 48.1553C45.8097 48.2185 46.0242 48.3784 46.1562 48.5998C46.2882 48.8212 46.3268 49.0859 46.2636 49.3357C46.2003 49.5856 46.0405 49.8 45.8191 49.932C45.5977 50.064 45.333 50.1026 45.0832 50.0394C43.6037 49.665 42.2493 49.4654 40.5545 49.3721C40.4271 49.3651 40.3023 49.333 40.1873 49.2777C40.0723 49.2225 39.9693 49.1451 39.8842 49.0501C39.799 48.955 39.7335 48.8441 39.6912 48.7237C39.649 48.6033 39.6308 48.4757 39.6379 48.3483ZM46.2607 55.4446C46.2057 55.6516 46.0839 55.8346 45.9142 55.9653C45.7445 56.0959 45.5364 56.1668 45.3222 56.167C45.2396 56.167 45.1557 56.1565 45.0721 56.1341C43.7092 55.7723 42.2714 55.5533 40.5471 55.4451C40.4198 55.4371 40.2952 55.4041 40.1806 55.348C40.066 55.2919 39.9636 55.2138 39.8792 55.1181C39.7948 55.0224 39.7301 54.911 39.6887 54.7903C39.6474 54.6695 39.6302 54.5419 39.6382 54.4145C39.6719 53.8789 40.1348 53.4729 40.6688 53.5057C42.5238 53.622 44.0815 53.8606 45.5708 54.2561C45.6942 54.2889 45.8098 54.3456 45.9113 54.423C46.0127 54.5005 46.0979 54.5971 46.1619 54.7075C46.226 54.8178 46.2677 54.9397 46.2846 55.0662C46.3016 55.1927 46.2934 55.3213 46.2607 55.4446ZM58.8975 41.6078C53.8082 41.6078 52.1739 42.0506 48.9177 42.9325C48.7111 42.9885 48.4976 43.0465 48.2757 43.1062C48.0539 43.0465 47.8404 42.9885 47.6337 42.9325C44.3775 42.0505 42.7432 41.6078 37.6539 41.6078C37.3962 41.6078 37.149 41.7102 36.9668 41.8924C36.7846 42.0746 36.6822 42.3218 36.6822 42.5795V56.9535C36.6822 57.2112 36.7846 57.4583 36.9668 57.6405C37.149 57.8228 37.3962 57.9251 37.6539 57.9251C42.2193 57.9251 45.6296 58.5574 47.7899 59.8047C47.9375 59.8901 48.1051 59.935 48.2757 59.935C48.4463 59.935 48.6138 59.8901 48.7615 59.8047C50.9218 58.5574 54.332 57.9251 58.8975 57.9251C59.1552 57.9251 59.4024 57.8228 59.5846 57.6405C59.7668 57.4583 59.8692 57.2112 59.8692 56.9535V42.5795C59.8692 42.3218 59.7668 42.0746 59.5846 41.8924C59.4024 41.7102 59.1552 41.6078 58.8975 41.6078ZM47.304 57.4165C45.1097 56.5306 42.2463 56.0611 38.6255 55.9912V43.5571C42.6981 43.6089 44.1633 44.0059 47.1256 44.8083L47.304 44.8567V57.4165ZM57.9258 55.991C54.3051 56.061 51.4417 56.5304 49.2473 57.4163V44.8567L49.4258 44.8083C52.3881 44.006 53.8533 43.6089 57.9258 43.5571V55.991ZM56.9131 54.4146C56.9293 54.6718 56.8426 54.9249 56.6721 55.1181C56.5017 55.3114 56.2614 55.4291 56.0043 55.4452C54.2801 55.5534 52.8421 55.7723 51.4794 56.1342C51.3978 56.1561 51.3137 56.1671 51.2293 56.1672C51.0151 56.1669 50.807 56.096 50.6373 55.9654C50.4676 55.8347 50.3458 55.6517 50.2908 55.4447C50.258 55.3214 50.2499 55.1928 50.2668 55.0663C50.2838 54.9399 50.3254 54.818 50.3895 54.7076C50.4535 54.5973 50.5387 54.5006 50.6401 54.4231C50.7415 54.3457 50.8572 54.289 50.9805 54.2563C52.47 53.8607 54.0275 53.6221 55.8826 53.5058C56.4183 53.4709 56.8795 53.879 56.9131 54.4146ZM56.9133 51.3817C56.9285 51.639 56.8408 51.8917 56.6697 52.0844C56.4985 52.277 56.2579 52.3938 56.0006 52.409C54.2878 52.5102 52.8919 52.7197 51.4745 53.0884C51.3944 53.1094 51.312 53.12 51.2292 53.12C50.9927 53.1201 50.7644 53.0339 50.5869 52.8777C50.4095 52.7215 50.2951 52.5059 50.2652 52.2714C50.2352 52.0368 50.2918 51.7994 50.4244 51.6037C50.5569 51.4079 50.7563 51.2671 50.9852 51.2078C52.5302 50.8058 54.0418 50.578 55.886 50.4691C56.4222 50.4391 56.8817 50.8461 56.9133 51.3817ZM56.9135 48.3483C56.9205 48.4757 56.9024 48.6033 56.8601 48.7237C56.8179 48.8441 56.7523 48.955 56.6672 49.0501C56.5821 49.1451 56.4791 49.2225 56.3641 49.2777C56.249 49.333 56.1243 49.3651 55.9969 49.3721C54.3019 49.4655 52.9477 49.665 51.4682 50.0394C51.2184 50.1025 50.9537 50.0638 50.7324 49.9319C50.5111 49.7999 50.3512 49.5855 50.2879 49.3358C50.2565 49.2121 50.2499 49.0834 50.2683 48.9571C50.2867 48.8308 50.3298 48.7094 50.3952 48.5998C50.4605 48.4902 50.5468 48.3945 50.6491 48.3183C50.7514 48.242 50.8678 48.1866 50.9915 48.1553C52.5985 47.7487 54.0635 47.5323 55.8899 47.4316C56.1472 47.4174 56.3995 47.5061 56.5915 47.678C56.7835 47.8499 56.8993 48.091 56.9135 48.3483ZM50.2859 46.2731C50.2556 46.1491 50.2501 46.0204 50.2695 45.8943C50.289 45.7682 50.3331 45.6472 50.3993 45.5381C50.4656 45.4291 50.5527 45.3341 50.6556 45.2587C50.7585 45.1833 50.8753 45.1289 50.9992 45.0986C52.6774 44.6886 54.0957 44.4843 55.8945 44.3937C56.4288 44.3655 56.8868 44.7792 56.9137 45.3153C56.9267 45.5727 56.8368 45.8246 56.664 46.0158C56.4912 46.2069 56.2496 46.3216 55.9922 46.3347C54.3244 46.4186 53.0114 46.6075 51.4605 46.9864C51.3366 47.0167 51.2079 47.0223 51.0817 47.0029C50.9556 46.9834 50.8346 46.9393 50.7255 46.8731C50.6164 46.8068 50.5215 46.7197 50.446 46.6168C50.3706 46.5139 50.3162 46.3971 50.2859 46.2731ZM42.6484 35.6838L43.5906 33.1754C43.5976 33.1567 43.6032 33.1376 43.609 33.1185H44.8898C45.6918 33.1185 46.3441 32.4662 46.3441 31.6642V27.4409C46.3441 26.6389 45.6917 25.9864 44.8898 25.9864H43.6524C43.6511 24.7179 42.6188 23.6864 41.3501 23.6864H18.5188C17.2501 23.6864 16.2178 24.7179 16.2165 25.9864H14.9791C14.1771 25.9864 13.5248 26.6389 13.5248 27.4409V31.6642C13.5248 32.4662 14.1772 33.1185 14.9791 33.1185H16.2599C16.2657 33.1376 16.2713 33.1567 16.2783 33.1754L17.2205 35.6838C17.29 35.8689 17.4143 36.0284 17.5768 36.141C17.7393 36.2536 17.9323 36.3139 18.1301 36.314H26.9595C27.0883 36.314 27.2158 36.2884 27.3347 36.2386C27.4535 36.1889 27.5612 36.116 27.6516 36.0243L29.9344 33.7078L32.2172 36.0243C32.3076 36.116 32.4153 36.1889 32.5341 36.2386C32.6529 36.2883 32.7805 36.3139 32.9092 36.314H41.7387C41.9365 36.3139 42.1295 36.2536 42.292 36.141C42.4546 36.0284 42.5789 35.8689 42.6484 35.6838ZM44.4008 31.1752H43.6525V27.9297H44.4008V31.1752ZM15.4681 27.9297H16.2164V31.1752H15.4681V27.9297ZM41.7093 32.6572L41.0658 34.3705H33.316L30.6266 31.6414C30.5362 31.5496 30.4284 31.4768 30.3096 31.4271C30.1908 31.3773 30.0633 31.3517 29.9345 31.3517C29.8057 31.3517 29.6782 31.3773 29.5594 31.4271C29.4406 31.4768 29.3328 31.5496 29.2424 31.6414L26.553 34.3705H18.8032L18.1597 32.6572V25.989C18.1597 25.7943 18.3241 25.6298 18.5188 25.6298H41.3502C41.5449 25.6298 41.7093 25.7943 41.7093 25.989V32.6572ZM32.0985 53.442C32.0951 53.6974 31.9913 53.9412 31.8095 54.1206C31.6277 54.3 31.3826 54.4006 31.1272 54.4007L31.1139 54.4006C29.2342 54.374 27.3622 54.1537 25.5277 53.7432C18.4471 52.1603 12.4066 47.9148 8.519 41.7888C4.63139 35.6627 3.36228 28.3895 4.94512 21.3089C5.13859 20.4456 5.3736 19.5923 5.64933 18.7517L4.16985 19.7243C4.06324 19.7951 3.94369 19.8442 3.81807 19.8687C3.69245 19.8932 3.56322 19.8926 3.43782 19.867C3.31242 19.8414 3.19332 19.7913 3.08735 19.7195C2.98137 19.6477 2.89062 19.5557 2.82031 19.4488C2.75 19.3418 2.7015 19.2221 2.67762 19.0963C2.65373 18.9706 2.65492 18.8414 2.68111 18.7161C2.70731 18.5908 2.758 18.4719 2.83027 18.3663C2.90254 18.2607 2.99497 18.1704 3.10224 18.1006L7.13973 15.4461C7.26292 15.3651 7.40291 15.3133 7.54911 15.2944C7.69531 15.2755 7.84388 15.2902 7.98358 15.3372C8.12328 15.3843 8.25045 15.4625 8.35546 15.5659C8.46047 15.6694 8.54057 15.7954 8.58969 15.9344L10.1991 20.4904C10.2509 20.6369 10.2669 20.7938 10.2455 20.9478C10.2241 21.1017 10.1662 21.2484 10.0764 21.3753C9.98664 21.5022 9.86774 21.6057 9.72968 21.6772C9.59162 21.7487 9.43843 21.786 9.28297 21.7859C9.08198 21.7859 8.88596 21.7235 8.72189 21.6074C8.55782 21.4913 8.43377 21.3272 8.36682 21.1377L7.61402 19.0067C7.30624 19.9004 7.04836 20.8106 6.84155 21.7329C3.80791 35.3038 12.3806 48.8128 25.9516 51.8465C27.6554 52.228 29.3941 52.4327 31.14 52.4574C31.2676 52.4591 31.3936 52.4859 31.5108 52.5363C31.628 52.5867 31.7342 52.6597 31.8232 52.7512C31.9122 52.8426 31.9823 52.9507 32.0296 53.0692C32.0768 53.1877 32.1002 53.3144 32.0985 53.442ZM59.8048 36.3689L55.7673 39.0233C55.6441 39.1043 55.5041 39.1562 55.3579 39.175C55.2116 39.1939 55.063 39.1793 54.9233 39.1323C54.7836 39.0852 54.6564 39.007 54.5514 38.9035C54.4464 38.8 54.3663 38.674 54.3172 38.535L52.7078 33.9789C52.6647 33.8585 52.6459 33.7307 52.6523 33.603C52.6587 33.4752 52.6903 33.35 52.7452 33.2345C52.8001 33.119 52.8773 33.0154 52.9724 32.9298C53.0674 32.8442 53.1784 32.7782 53.299 32.7356C53.4196 32.693 53.5475 32.6746 53.6752 32.6815C53.8029 32.6884 53.928 32.7205 54.0433 32.7759C54.1586 32.8312 54.2619 32.9088 54.3471 33.0042C54.4324 33.0995 54.4979 33.2108 54.5401 33.3316L55.2929 35.4624C55.6006 34.5688 55.8585 33.6588 56.0652 32.7365C57.5349 26.1624 56.3564 19.4095 52.747 13.7218C49.1375 8.03404 43.5292 4.09238 36.9552 2.62274C33.7696 1.91076 30.5366 1.81723 27.3455 2.34497C26.8162 2.43302 26.3159 2.07424 26.2284 1.54493C26.1863 1.29069 26.247 1.03016 26.397 0.820657C26.547 0.61115 26.7742 0.469822 27.0284 0.42776C30.4666 -0.140904 33.949 -0.0404582 37.3792 0.726181C44.4599 2.30902 50.5004 6.55444 54.3879 12.6805C58.2754 18.8066 59.5448 26.0798 57.9618 33.1604C57.7684 34.0236 57.5335 34.877 57.2578 35.7175L58.7372 34.7448C58.9525 34.6087 59.2127 34.5625 59.4618 34.6163C59.7108 34.6701 59.9288 34.8195 60.0687 35.0324C60.2087 35.2453 60.2595 35.5047 60.2101 35.7546C60.1607 36.0046 60.0152 36.2251 59.8048 36.3689Z" fill="#555555"/>
</g>
<defs>
<clipPath id="clip0_82_3020">
<rect width="60.2429" height="60" fill="white"/>
</clipPath>
</defs>
</svg>
