<svg width="20" height="20" viewBox="0 0 20 20" fill="none" xmlns="http://www.w3.org/2000/svg">
<g clip-path="url(#clip0_82_1543)">
<path d="M7.78277 18.3591C7.78277 18.5313 7.646 18.6724 7.47384 18.6724C7.30167 18.6724 7.16054 18.5313 7.16054 18.3591V14.4356C7.16054 14.1709 7.27516 13.9325 7.46058 13.7605C7.64918 13.5862 7.89685 13.49 8.1536 13.4913H11.8033C12.0725 13.4913 12.3197 13.5927 12.4961 13.7605C12.6813 13.9326 12.7964 14.1709 12.7964 14.4356V18.3591C12.7964 18.5313 12.6595 18.6724 12.4873 18.6724C12.3152 18.6724 12.174 18.5313 12.174 18.3591V14.4356C12.174 14.3518 12.1386 14.2723 12.0769 14.215C12.0013 14.1487 11.9039 14.1125 11.8033 14.1135H10.2894V18.3593C10.2894 18.5315 10.1528 18.6726 9.98066 18.6726C9.89767 18.6723 9.81817 18.6392 9.75949 18.5805C9.70081 18.5218 9.6677 18.4423 9.66737 18.3593V14.1134H8.1536C8.04772 14.1134 7.95493 14.1533 7.88444 14.2149C7.82269 14.2721 7.78292 14.3517 7.78292 14.4354L7.78277 18.3591ZM6.90464 9.30745H8.94347C8.9841 9.30722 9.02437 9.31506 9.06196 9.3305C9.09954 9.34594 9.13369 9.36869 9.16242 9.39742C9.19115 9.42616 9.2139 9.4603 9.22934 9.49789C9.24479 9.53547 9.25262 9.57574 9.2524 9.61638V11.5142C9.25265 11.5549 9.24482 11.5951 9.22938 11.6327C9.21394 11.6703 9.19119 11.7044 9.16245 11.7331C9.13371 11.7618 9.09955 11.7845 9.06196 11.8C9.02437 11.8154 8.98409 11.8231 8.94347 11.8228H6.90464C6.86401 11.8231 6.82374 11.8154 6.78615 11.8C6.74856 11.7845 6.7144 11.7618 6.68566 11.7331C6.65692 11.7044 6.63417 11.6703 6.61873 11.6327C6.60328 11.5951 6.59546 11.5549 6.59571 11.5142V9.61638C6.59544 9.57573 6.60325 9.53544 6.61868 9.49784C6.63411 9.46023 6.65685 9.42607 6.68559 9.39733C6.71433 9.36859 6.7485 9.34585 6.7861 9.33042C6.8237 9.31499 6.86399 9.30718 6.90464 9.30745ZM6.90464 5.53404H8.94347C8.9841 5.53381 9.02437 5.54165 9.06196 5.55709C9.09954 5.57253 9.13369 5.59528 9.16242 5.62401C9.19115 5.65275 9.2139 5.68689 9.22934 5.72447C9.24479 5.76206 9.25262 5.80233 9.2524 5.84297V7.74066C9.25267 7.78131 9.24486 7.8216 9.22943 7.8592C9.214 7.89681 9.19125 7.93097 9.16251 7.95971C9.13377 7.98845 9.09961 8.0112 9.06201 8.02663C9.0244 8.04206 8.98411 8.04986 8.94347 8.04959H6.90464C6.86401 8.04982 6.82373 8.04198 6.78615 8.02654C6.74856 8.0111 6.71442 7.98835 6.68569 7.95962C6.65695 7.93088 6.63421 7.89674 6.61876 7.85916C6.60332 7.82157 6.59548 7.7813 6.59571 7.74066V5.84312C6.59544 5.80247 6.60325 5.76217 6.61867 5.72456C6.6341 5.68695 6.65684 5.65277 6.68558 5.62402C6.71432 5.59527 6.74848 5.57251 6.78609 5.55706C6.82369 5.54162 6.86399 5.53379 6.90464 5.53404ZM8.63017 6.15657H7.21793V7.42737H8.63017V6.15657ZM12.0371 7.42737C12.2093 7.42737 12.3459 7.56866 12.3459 7.74082C12.3459 7.91298 12.2091 8.04975 12.0371 8.04975H11.0177C10.8455 8.04975 10.7042 7.91283 10.7042 7.74082V5.84312C10.7042 5.67096 10.8454 5.53419 11.0177 5.53419C11.0583 5.53397 11.0986 5.5418 11.1362 5.55725C11.1738 5.57269 11.2079 5.59544 11.2367 5.62417C11.2654 5.6529 11.2881 5.68705 11.3036 5.72463C11.319 5.76222 11.3269 5.80249 11.3266 5.84312V7.42737H12.0371ZM11.0177 9.30745H13.0522C13.2243 9.30745 13.3655 9.44437 13.3655 9.61638V11.5142C13.3655 11.6864 13.2243 11.8228 13.0522 11.8228H11.0177C10.8455 11.8228 10.7042 11.6862 10.7042 11.5142V9.61638C10.7042 9.44437 10.8455 9.30745 11.0177 9.30745ZM12.7434 9.92983H11.3268V11.2008H12.7434V9.92983ZM8.63017 9.92983H7.21793V11.2008H8.63017V9.92983ZM15.2234 9.55914C15.1353 9.7048 14.9457 9.75766 14.7998 9.6694C14.7532 9.64057 14.714 9.60134 14.6851 9.55478L12.0106 5.02223C11.8737 4.78831 11.7591 4.48827 11.6886 4.22347C11.6174 3.94665 11.5818 3.66189 11.5825 3.37607C11.5817 2.93255 11.6686 2.49326 11.8383 2.08348C12.0079 1.6737 12.257 1.30152 12.5711 0.988386C12.8843 0.674467 13.2565 0.425546 13.6663 0.255927C14.076 0.0863076 14.5153 -0.000666121 14.9587 3.84126e-06C15.8899 3.84126e-06 16.7328 0.379575 17.3463 0.988542C17.9552 1.60219 18.335 2.44492 18.335 3.37622C18.335 3.66753 18.2952 3.94994 18.2247 4.22363C18.1539 4.5062 18.0435 4.77084 17.9069 5.01801L15.2234 9.55914ZM14.9587 8.79111L17.3683 4.70878C17.5944 4.30102 17.7129 3.84234 17.7124 3.37607C17.7124 2.61692 17.4038 1.92858 16.9049 1.42987C16.6497 1.17374 16.3464 0.970544 16.0124 0.831947C15.6784 0.69335 15.3203 0.622079 14.9587 0.622226C14.5964 0.62158 14.2376 0.692607 13.9028 0.831216C13.568 0.969826 13.264 1.17328 13.0082 1.42987C12.5137 1.92858 12.2049 2.61692 12.2049 3.37607C12.2049 3.61887 12.2356 3.84811 12.2888 4.06893C12.346 4.28944 12.4343 4.50137 12.5402 4.69989L14.9587 8.79111Z" fill="#FBFBFB"/>
<path d="M14.9597 1.57544C15.4541 1.57544 15.9041 1.77864 16.2305 2.10503C16.3988 2.27106 16.5324 2.46896 16.6233 2.68718C16.7143 2.90541 16.7608 3.13957 16.7603 3.37599C16.7603 3.87454 16.5571 4.32491 16.2305 4.65146C15.904 4.97365 15.4541 5.17653 14.9597 5.17653C14.482 5.17646 14.0236 4.98775 13.6842 4.65146C13.3577 4.32491 13.1592 3.8747 13.1592 3.37599C13.1592 2.87727 13.3577 2.42721 13.6842 2.10503C13.8514 1.93703 14.0502 1.80375 14.2691 1.71286C14.488 1.62197 14.7227 1.57527 14.9597 1.57544ZM15.7893 2.54199C15.5686 2.32158 15.2694 2.19779 14.9574 2.19779C14.6455 2.19779 14.3463 2.32158 14.1256 2.54199C13.9136 2.75829 13.7814 3.04944 13.7814 3.37614C13.7814 3.70269 13.9136 3.99836 14.1256 4.21029C14.3463 4.4307 14.6455 4.55449 14.9574 4.55449C15.2694 4.55449 15.5686 4.4307 15.7893 4.21029C15.9002 4.10155 15.9881 3.97172 16.0479 3.82846C16.1078 3.6852 16.1384 3.5314 16.1379 3.37614C16.1379 3.04944 16.0055 2.75829 15.7893 2.54199ZM16.3981 15.1594C16.226 15.1594 16.0895 15.0182 16.0895 14.8461C16.0895 14.6739 16.2261 14.537 16.3981 14.537H17.528C17.9164 14.537 18.2608 14.7622 18.4108 15.1196L19.8715 18.6767C19.9333 18.8267 19.9553 18.9769 19.9376 19.1269C19.9068 19.4315 19.7036 19.7138 19.4344 19.855C19.2966 19.9258 19.1438 19.9622 18.9889 19.9611H0.974212C0.819272 19.9622 0.666364 19.9258 0.52852 19.855C0.254836 19.7138 0.0563173 19.4315 0.0210736 19.1269C0.00823687 18.9738 0.0308624 18.8197 0.0871945 18.6767L1.55246 15.1196C1.70248 14.7622 2.04665 14.537 2.43511 14.537H3.55604C3.72821 14.537 3.86497 14.6741 3.86497 14.8461C3.86497 15.0181 3.72821 15.1594 3.55604 15.1594H2.43511C2.29834 15.1594 2.17905 15.2255 2.12618 15.3579L0.66544 18.9149C0.643931 18.9603 0.634787 19.0106 0.638929 19.0607C0.652185 19.1622 0.722828 19.2548 0.811093 19.3035C0.859592 19.3256 0.912457 19.3389 0.974368 19.3389H18.9892C19.0509 19.3389 19.1038 19.3256 19.1481 19.3035C19.2409 19.2548 19.3114 19.1623 19.3202 19.0607C19.3246 19.012 19.3202 18.9637 19.2981 18.9149L17.8374 15.3579C17.7843 15.2253 17.6652 15.1594 17.5284 15.1594H16.3981Z" fill="#FBFBFB"/>
<path d="M14.6473 10.8961C14.6473 10.724 14.7884 10.5827 14.9606 10.5827C15.1327 10.5827 15.2695 10.724 15.2695 10.8961V18.3589C15.2695 18.5311 15.1326 18.6722 14.9606 18.6722H5.00424C4.83208 18.6722 4.69531 18.5311 4.69531 18.3589V4.71773C4.69531 4.45293 4.81009 4.21449 4.99551 4.04249C5.18305 3.86615 5.43095 3.76823 5.68837 3.7688H10.6002C10.7723 3.7688 10.9091 3.90993 10.9091 4.08225C10.9091 4.25442 10.7722 4.39555 10.6002 4.39555H5.68837C5.57796 4.39555 5.48533 4.43095 5.41484 4.49707C5.3843 4.52515 5.3599 4.55926 5.34318 4.59723C5.32646 4.63521 5.31778 4.67624 5.31769 4.71773V18.0498H14.6474L14.6473 10.8961Z" fill="#FBFBFB"/>
</g>
<defs>
<clipPath id="clip0_82_1543">
<rect width="19.961" height="20" fill="white"/>
</clipPath>
</defs>
</svg>
