<svg width="25" height="35" viewBox="0 0 25 35" fill="none" xmlns="http://www.w3.org/2000/svg">
<path fill-rule="evenodd" clip-rule="evenodd" d="M5.26615 32.3152C4.43962 32.3152 3.605 32.1375 2.82692 31.7713C1.08231 30.9475 0 29.3132 0 27.5013V4.81594C0 3.00401 1.08231 1.36978 2.82692 0.545934C4.79769 -0.382912 7.13462 -0.110989 8.77423 1.24324L22.5023 12.5886C23.6035 13.4932 24.2308 14.7963 24.2308 16.1586C24.2308 17.5209 23.6035 18.824 22.5023 19.7286L8.77423 31.0713C7.78346 31.8925 6.53423 32.3152 5.26615 32.3152Z" fill="#231F20"/>
<mask id="mask0_82_3076" style="mask-type:luminance" maskUnits="userSpaceOnUse" x="0" y="0" width="25" height="33">
<path fill-rule="evenodd" clip-rule="evenodd" d="M5.26615 32.3152C4.43962 32.3152 3.605 32.1375 2.82692 31.7713C1.08231 30.9475 0 29.3132 0 27.5013V4.81594C0 3.00401 1.08231 1.36978 2.82692 0.545934C4.79769 -0.382912 7.13462 -0.110989 8.77423 1.24324L22.5023 12.5886C23.6035 13.4932 24.2308 14.7963 24.2308 16.1586C24.2308 17.5209 23.6035 18.824 22.5023 19.7286L8.77423 31.0713C7.78346 31.8925 6.53423 32.3152 5.26615 32.3152Z" fill="white"/>
</mask>
<g mask="url(#mask0_82_3076)">
<rect x="-24.2305" y="-16.1538" width="64.6154" height="64.6154" fill="#1C1C1C"/>
</g>
</svg>
