<svg width="14" height="20" viewBox="0 0 14 20" fill="none" xmlns="http://www.w3.org/2000/svg">
<path fill-rule="evenodd" clip-rule="evenodd" d="M3.00923 18.4658C2.53692 18.4658 2.06 18.3643 1.61538 18.155C0.618461 17.6843 0 16.7504 0 15.715V2.75196C0 1.71658 0.618461 0.782732 1.61538 0.311963C2.74154 -0.218807 4.07692 -0.0634221 5.01385 0.710424L12.8585 7.1935C13.4877 7.71042 13.8462 8.45504 13.8462 9.2335C13.8462 10.012 13.4877 10.7566 12.8585 11.2735L5.01385 17.755C4.44769 18.2243 3.73385 18.4658 3.00923 18.4658Z" fill="#231F20"/>
<mask id="mask0_82_3125" style="mask-type:luminance" maskUnits="userSpaceOnUse" x="0" y="0" width="14" height="19">
<path fill-rule="evenodd" clip-rule="evenodd" d="M3.00923 18.4658C2.53692 18.4658 2.06 18.3643 1.61538 18.155C0.618461 17.6843 0 16.7504 0 15.715V2.75196C0 1.71658 0.618461 0.782732 1.61538 0.311963C2.74154 -0.218807 4.07692 -0.0634221 5.01385 0.710424L12.8585 7.1935C13.4877 7.71042 13.8462 8.45504 13.8462 9.2335C13.8462 10.012 13.4877 10.7566 12.8585 11.2735L5.01385 17.755C4.44769 18.2243 3.73385 18.4658 3.00923 18.4658Z" fill="white"/>
</mask>
<g mask="url(#mask0_82_3125)">
<rect x="-13.8457" y="-9.23071" width="36.9231" height="36.9231" fill="#1C1C1C"/>
</g>
</svg>
