<svg width="68" height="68" viewBox="0 0 68 68" fill="none" xmlns="http://www.w3.org/2000/svg">
<g clip-path="url(#clip0_82_1362)">
<path d="M56.93 44.9932C66.4897 45.1025 71.5421 33.1368 64.6552 26.3454C62.8165 24.5125 60.3855 23.394 57.7973 23.19C55.2091 22.986 52.6328 23.7099 50.5296 25.2321L46.533 21.2355C46.2077 20.9212 45.7719 20.7474 45.3195 20.7513C44.8672 20.7552 44.4345 20.9366 44.1147 21.2565C43.7948 21.5764 43.6134 22.0091 43.6094 22.4614C43.6055 22.9137 43.7794 23.3495 44.0936 23.6749L48.0903 27.6715C42.8504 34.6986 48.1478 45.1324 56.93 44.9932ZM62.2159 28.7848C68.9785 35.9925 58.8518 46.1215 51.6441 39.3589C44.8815 32.1477 55.0093 22.0233 62.2159 28.7848Z" fill="#586CEC"/>
<path d="M58.1489 35.2909C58.4536 34.9638 58.6195 34.5313 58.6116 34.0843C58.6038 33.6374 58.4227 33.211 58.1066 32.8949C57.7905 32.5788 57.3641 32.3978 56.9172 32.3899C56.4702 32.382 56.0377 32.5479 55.7107 32.8526C55.4059 33.1797 55.24 33.6122 55.2479 34.0591C55.2558 34.5061 55.4369 34.9325 55.7529 35.2486C56.069 35.5647 56.4954 35.7457 56.9424 35.7536C57.3893 35.7615 57.8219 35.5956 58.1489 35.2909ZM3.20029 26.3453C-3.68424 33.1379 1.36357 45.1036 10.9256 44.9931C13.2252 44.9918 15.4655 44.2632 17.3259 42.9115L21.3225 46.9081C21.6479 47.2223 22.0837 47.3962 22.536 47.3923C22.9883 47.3884 23.421 47.2069 23.7409 46.8871C24.0607 46.5672 24.2422 46.1345 24.2461 45.6822C24.25 45.2298 24.0761 44.7941 23.7619 44.4687L19.7653 40.4721C27.3295 29.4794 12.9635 17.1019 3.20029 26.3453ZM5.63851 39.3588C-1.12411 32.1476 9.00488 22.0232 16.2114 28.7847C22.9741 35.9924 12.8462 46.1214 5.63851 39.3588Z" fill="#586CEC"/>
<path d="M9.70618 32.8528C9.40145 33.1799 9.23555 33.6124 9.24343 34.0593C9.25132 34.5063 9.43237 34.9327 9.74845 35.2488C10.0645 35.5648 10.491 35.7459 10.9379 35.7538C11.3848 35.7617 11.8174 35.5958 12.1444 35.291C12.4491 34.964 12.615 34.5315 12.6071 34.0845C12.5993 33.6376 12.4182 33.2112 12.1021 32.8951C11.786 32.579 11.3596 32.398 10.9127 32.3901C10.4658 32.3822 10.0332 32.5481 9.70618 32.8528ZM32.7083 55.8549C32.4036 56.182 32.2377 56.6145 32.2455 57.0614C32.2534 57.5084 32.4345 57.9348 32.7506 58.2509C33.0666 58.567 33.4931 58.748 33.94 58.7559C34.3869 58.7638 34.8195 58.5979 35.1465 58.2932C35.4513 57.9661 35.6171 57.5336 35.6093 57.0866C35.6014 56.6397 35.4203 56.2133 35.1042 55.8972C34.7882 55.5811 34.3617 55.4001 33.9148 55.3922C33.4679 55.3843 33.0353 55.5502 32.7083 55.8549ZM32.7083 9.85071C32.4036 10.1777 32.2377 10.6103 32.2455 11.0572C32.2534 11.5042 32.4345 11.9306 32.7506 12.2467C33.0666 12.5627 33.4931 12.7438 33.94 12.7517C34.3869 12.7596 34.8195 12.5937 35.1465 12.2889C35.4513 11.9619 35.6171 11.5294 35.6093 11.0824C35.6014 10.6355 35.4203 10.2091 35.1042 9.89298C34.7882 9.5769 34.3617 9.39585 33.9148 9.38796C33.4679 9.38008 33.0353 9.54598 32.7083 9.85071Z" fill="#586CEC"/>
<path d="M46.7636 44.2377C46.4401 43.9142 46.0014 43.7325 45.5439 43.7325C45.0865 43.7325 44.6478 43.9142 44.3242 44.2377L40.3276 48.2343C38.2245 46.7121 35.6482 45.9882 33.06 46.1921C30.4718 46.3961 28.0407 47.5147 26.202 49.3476C19.3175 56.1366 24.3653 68.1069 33.9273 67.9954C42.7141 68.1311 48.0057 57.7042 42.767 50.6736L46.7636 46.677C47.087 46.3535 47.2687 45.9148 47.2687 45.4573C47.2687 44.9999 47.087 44.5612 46.7636 44.2377ZM39.2132 62.361C32.0055 69.1236 21.8776 58.9935 28.6414 51.7869C35.8503 45.0243 45.9758 55.1556 39.2132 62.361ZM26.202 3.34334C24.3695 5.18245 23.2511 7.61357 23.0469 10.2018C22.8428 12.79 23.5661 15.3664 25.0876 17.4701L21.0921 21.4667C20.9273 21.6258 20.7959 21.8162 20.7055 22.0267C20.6151 22.2372 20.5675 22.4635 20.5655 22.6926C20.5635 22.9217 20.6072 23.1488 20.6939 23.3608C20.7806 23.5729 20.9087 23.7655 21.0707 23.9275C21.2327 24.0894 21.4253 24.2175 21.6373 24.3043C21.8493 24.391 22.0765 24.4347 22.3056 24.4327C22.5346 24.4307 22.761 24.3831 22.9715 24.2927C23.182 24.2023 23.3723 24.0708 23.5315 23.9061L27.5281 19.9095C29.63 21.4348 32.207 22.1607 34.7961 21.9566C37.3852 21.7526 39.8167 20.632 41.6537 18.7962C51.4871 8.15423 36.8486 -6.49582 26.202 3.34334ZM39.2132 16.3568C32.0055 23.1194 21.8776 12.9893 28.6414 5.78271C35.8503 -0.979911 45.9758 9.15137 39.2132 16.3568ZM32.7082 25.3771L25.2325 32.8528C24.9094 33.1762 24.728 33.6147 24.728 34.0719C24.728 34.529 24.9094 34.9675 25.2325 35.291L32.7082 42.7667C33.0316 43.0897 33.4701 43.2712 33.9273 43.2712C34.3845 43.2712 34.8229 43.0897 35.1464 42.7667L42.6221 35.291C42.9452 34.9675 43.1266 34.529 43.1266 34.0719C43.1266 33.6147 42.9452 33.1762 42.6221 32.8528L35.1464 25.3771C34.8229 25.054 34.3845 24.8725 33.9273 24.8725C33.4701 24.8725 33.0316 25.054 32.7082 25.3771ZM33.9273 39.107L28.891 34.0719L33.9273 29.0356L38.9636 34.0719L33.9273 39.107Z" fill="#586CEC"/>
</g>
<defs>
<clipPath id="clip0_82_1362">
<rect width="67.8562" height="68" fill="white"/>
</clipPath>
</defs>
</svg>
