<svg width="60" height="60" viewBox="0 0 60 60" fill="none" xmlns="http://www.w3.org/2000/svg">
<g clip-path="url(#clip0_82_1332)">
<path d="M40.6779 49.8306C33.9579 50.0441 33.9599 59.7865 40.6779 60.0001C47.3979 59.7865 47.3959 50.0441 40.6779 49.8306ZM40.6779 56.9492C40.1385 56.9492 39.6212 56.7349 39.2397 56.3535C38.8583 55.9721 38.644 55.4547 38.644 54.9153C38.644 54.3759 38.8583 53.8586 39.2397 53.4771C39.6212 53.0957 40.1385 52.8814 40.6779 52.8814C41.2173 52.8814 41.7347 53.0957 42.1161 53.4771C42.4975 53.8586 42.7118 54.3759 42.7118 54.9153C42.7118 55.4547 42.4975 55.9721 42.1161 56.3535C41.7347 56.7349 41.2173 56.9492 40.6779 56.9492Z" fill="#586CEC"/>
<path d="M58.4746 28.4746H51.3559C50.9514 28.4746 50.5634 28.6353 50.2773 28.9214C49.9912 29.2074 49.8305 29.5954 49.8305 30C49.8325 31.5984 49.3143 33.154 48.3543 34.4319C47.3943 35.7099 46.0446 36.6407 44.5089 37.084C42.9732 37.5273 41.335 37.4588 39.8417 36.889C38.3483 36.3192 37.0809 35.279 36.2308 33.9254C40.0662 32.4697 43.2696 29.7153 45.2837 26.1415C47.2978 22.5677 47.995 18.4008 47.2539 14.366C46.5129 10.3312 44.3805 6.68399 41.228 4.05911C38.0754 1.43422 34.1023 -0.00214059 30 2.39446e-06C29.5954 2.39446e-06 29.2074 0.160716 28.9214 0.446789C28.6353 0.732861 28.4746 1.12086 28.4746 1.52543V8.64407C28.4746 9.04864 28.6353 9.43663 28.9214 9.72271C29.2074 10.0088 29.5954 10.1695 30 10.1695C31.5984 10.1675 33.154 10.6857 34.4319 11.6457C35.7099 12.6057 36.6407 13.9554 37.084 15.4911C37.5273 17.0268 37.4588 18.665 36.889 20.1583C36.3192 21.6517 35.279 22.9191 33.9254 23.7692C32.4697 19.9338 29.7153 16.7304 26.1415 14.7163C22.5677 12.7022 18.4008 12.005 14.366 12.7461C10.3312 13.4871 6.68399 15.6195 4.05911 18.772C1.43422 21.9246 -0.00214059 25.8977 2.39446e-06 30C2.39446e-06 30.4046 0.160716 30.7926 0.446789 31.0786C0.732861 31.3647 1.12086 31.5254 1.52543 31.5254H8.64407C9.04864 31.5254 9.43663 31.3647 9.72271 31.0786C10.0088 30.7926 10.1695 30.4046 10.1695 30C10.1675 28.4016 10.6857 26.846 11.6457 25.5681C12.6057 24.2901 13.9554 23.3593 15.4911 22.916C17.0268 22.4727 18.665 22.5412 20.1583 23.111C21.6517 23.6808 22.9191 24.721 23.7692 26.0746C5.7539 33.2136 10.5417 59.6817 30 60C30.4046 60 30.7926 59.8393 31.0786 59.5532C31.3647 59.2671 31.5254 58.8791 31.5254 58.4746V51.3559C31.5254 50.9514 31.3647 50.5634 31.0786 50.2773C30.7926 49.9912 30.4046 49.8305 30 49.8305C28.4016 49.8325 26.846 49.3143 25.5681 48.3543C24.2901 47.3943 23.3593 46.0446 22.916 44.5089C22.4727 42.9732 22.5412 41.335 23.111 39.8417C23.6808 38.3483 24.721 37.0809 26.0746 36.2308C27.5303 40.0662 30.2847 43.2696 33.8585 45.2837C37.4323 47.2978 41.5992 47.995 45.634 47.2539C49.6688 46.5129 53.316 44.3805 55.9409 41.228C58.5658 38.0754 60.0021 34.1023 60 30C60 29.5954 59.8393 29.2074 59.5532 28.9214C59.2671 28.6353 58.8791 28.4746 58.4746 28.4746ZM42.4576 44.4915C39.2624 44.4879 36.158 43.4283 33.6273 41.4777C31.0966 39.5271 29.2815 36.7947 28.4644 33.7058C28.4091 33.5018 28.3124 33.3115 28.1802 33.1466C28.048 32.9818 27.8832 32.846 27.6961 32.7478C27.509 32.6495 27.3036 32.591 27.0928 32.5758C26.8821 32.5606 26.6705 32.589 26.4712 32.6593C16.3078 36.4627 17.8536 51.0966 28.4746 52.7705V56.8688C25.1057 56.5141 21.9677 54.9897 19.6065 52.5608C17.2453 50.1318 15.8102 46.952 15.551 43.5744C15.2917 40.1968 16.2247 36.8352 18.1875 34.0744C20.1504 31.3135 23.0189 29.3281 26.2942 28.4634C26.4982 28.4081 26.6885 28.3114 26.8533 28.1792C27.0181 28.0469 27.1539 27.8821 27.252 27.695C27.3502 27.5078 27.4086 27.3025 27.4237 27.0917C27.4388 26.881 27.4102 26.6694 27.3397 26.4702C23.5383 16.3078 8.90237 17.8546 7.22949 28.4746H3.13221C3.48687 25.1057 5.01127 21.9677 7.44024 19.6065C9.8692 17.2453 13.049 15.8102 16.4266 15.551C19.8042 15.2917 23.1658 16.2247 25.9266 18.1875C28.6875 20.1504 30.673 23.0189 31.5376 26.2942C31.5929 26.4982 31.6897 26.6885 31.8219 26.8534C31.9541 27.0182 32.1189 27.154 32.306 27.2522C32.4931 27.3505 32.6984 27.409 32.9092 27.4242C33.1199 27.4395 33.3316 27.411 33.5308 27.3407C43.6932 23.5373 42.1475 8.90339 31.5264 7.22949V3.13221C34.8953 3.48687 38.0333 5.01127 40.3945 7.44024C42.7557 9.8692 44.1908 13.049 44.4501 16.4266C44.7093 19.8042 43.7764 23.1658 41.8135 25.9266C39.8506 28.6875 36.9821 30.673 33.7068 31.5376C33.5028 31.5929 33.3125 31.6897 33.1476 31.8219C32.9828 31.9541 32.847 32.1189 32.7488 32.306C32.6506 32.4931 32.592 32.6984 32.5768 32.9092C32.5616 33.1199 32.59 33.3316 32.6603 33.5308C36.4637 43.6932 51.0976 42.1475 52.7715 31.5264H56.8698C56.4885 35.0841 54.8062 38.3755 52.1461 40.7684C49.486 43.1614 46.0357 44.4873 42.4576 44.4915Z" fill="#586CEC"/>
<path d="M14.2377 5.08465C14.4512 11.8046 24.1936 11.8026 24.4072 5.08465C24.1936 -1.63535 14.4512 -1.63332 14.2377 5.08465ZM21.3563 5.08465C21.3563 5.62407 21.142 6.1414 20.7606 6.52283C20.3792 6.90426 19.8618 7.11855 19.3224 7.11855C18.783 7.11855 18.2657 6.90426 17.8842 6.52283C17.5028 6.1414 17.2885 5.62407 17.2885 5.08465C17.2885 4.54522 17.5028 4.02789 17.8842 3.64646C18.2657 3.26503 18.783 3.05075 19.3224 3.05075C19.8618 3.05075 20.3792 3.26503 20.7606 3.64646C21.142 4.02789 21.3563 4.54522 21.3563 5.08465ZM5.08513 35.5931C-1.63486 35.8067 -1.63283 45.549 5.08513 45.7626C11.8051 45.549 11.8031 35.8067 5.08513 35.5931ZM5.08513 42.7118C4.54571 42.7118 4.02838 42.4975 3.64695 42.116C3.26552 41.7346 3.05124 41.2173 3.05124 40.6779C3.05124 40.1384 3.26552 39.6211 3.64695 39.2397C4.02838 38.8582 4.54571 38.644 5.08513 38.644C5.62456 38.644 6.14189 38.8582 6.52332 39.2397C6.90475 39.6211 7.11903 40.1384 7.11903 40.6779C7.11903 41.2173 6.90475 41.7346 6.52332 42.116C6.14189 42.4975 5.62456 42.7118 5.08513 42.7118ZM54.9156 24.4067C61.6356 24.1931 61.6336 14.4507 54.9156 14.2372C48.1956 14.4507 48.1977 24.1931 54.9156 24.4067ZM54.9156 17.288C55.4551 17.288 55.9724 17.5023 56.3538 17.8838C56.7353 18.2652 56.9495 18.7825 56.9495 19.3219C56.9495 19.8614 56.7353 20.3787 56.3538 20.7601C55.9724 21.1415 55.4551 21.3558 54.9156 21.3558C54.3762 21.3558 53.8589 21.1415 53.4775 20.7601C53.096 20.3787 52.8817 19.8614 52.8817 19.3219C52.8817 18.7825 53.096 18.2652 53.4775 17.8838C53.8589 17.5023 54.3762 17.288 54.9156 17.288Z" fill="#586CEC"/>
</g>
<defs>
<clipPath id="clip0_82_1332">
<rect width="60" height="60" fill="white"/>
</clipPath>
</defs>
</svg>
