<svg width="60" height="60" viewBox="0 0 60 60" fill="none" xmlns="http://www.w3.org/2000/svg">
<g clip-path="url(#clip0_82_1348)">
<path d="M51.1054 6.29891C51.3908 6.01346 51.5511 5.62635 51.5511 5.22272C51.5511 4.81909 51.3908 4.43198 51.1054 4.14652C49.8336 2.87376 48.3235 1.86409 46.6613 1.17522C44.9991 0.486351 43.2174 0.131785 41.4182 0.131785C39.6189 0.131785 37.8372 0.486351 36.175 1.17522C34.5129 1.86409 33.0027 2.87376 31.7309 4.14652L29.9367 5.94069L28.1426 4.14551C26.8716 2.87144 25.3618 1.86062 23.6996 1.17093C22.0373 0.481233 20.2554 0.126221 18.4558 0.126221C16.6562 0.126221 14.8742 0.481233 13.212 1.17093C11.5498 1.86062 10.04 2.87144 8.76903 4.14551C8.48367 4.43096 8.32336 4.81807 8.32336 5.2217C8.32336 5.62534 8.48367 6.01244 8.76903 6.2979L23.1193 20.6492C24.0145 21.5447 25.0773 22.255 26.247 22.7397C27.4168 23.2243 28.6706 23.4738 29.9367 23.4738C31.2029 23.4738 32.4567 23.2243 33.6264 22.7397C34.7962 22.255 35.859 21.5447 36.7541 20.6492L51.1054 6.29891ZM25.2717 18.4968L12.0722 5.29934C14.1272 3.77115 16.6626 3.03158 19.217 3.21522C21.7713 3.39886 24.1749 4.4935 25.9902 6.29993L28.86 9.16978C29.0014 9.31123 29.1692 9.42344 29.354 9.5C29.5387 9.57656 29.7367 9.61596 29.9367 9.61596C30.1367 9.61596 30.3347 9.57656 30.5195 9.5C30.7042 9.42344 30.8721 9.31123 31.0134 9.16978L33.8833 6.29993C35.7 4.49641 38.103 3.40376 40.6563 3.22018C43.2096 3.0366 45.7442 3.77426 47.8002 5.29934L34.6018 18.4978C33.3637 19.7336 31.686 20.4277 29.9367 20.4277C28.1875 20.4277 26.5097 19.7336 25.2717 18.4978V18.4968ZM8.76802 53.8341C8.48296 54.1195 8.32285 54.5064 8.32285 54.9098C8.32285 55.3132 8.48296 55.7001 8.76802 55.9855C11.3395 58.5505 14.8233 59.991 18.4553 59.991C22.0873 59.991 25.5711 58.5505 28.1426 55.9855L29.9367 54.1934L31.7309 55.9875C34.3022 58.5525 37.7858 59.993 41.4177 59.993C45.0495 59.993 48.5331 58.5525 51.1044 55.9875C51.3898 55.7021 51.5501 55.315 51.5501 54.9113C51.5501 54.5077 51.3898 54.1206 51.1044 53.8352L36.7541 39.4808C34.9444 37.6758 32.4927 36.6621 29.9367 36.6621C27.3807 36.6621 24.929 37.6758 23.1193 39.4808L8.76802 53.8341ZM34.6018 41.6342L47.7992 54.8347C45.7455 56.3651 43.21 57.1062 40.6554 56.9227C38.1007 56.7392 35.6972 55.6434 33.8833 53.8352L31.0134 50.9633C30.8721 50.8218 30.7042 50.7096 30.5195 50.633C30.3347 50.5565 30.1367 50.5171 29.9367 50.5171C29.7367 50.5171 29.5387 50.5565 29.354 50.633C29.1692 50.7096 29.0014 50.8218 28.86 50.9633L25.9902 53.8352C24.1765 55.6437 21.7729 56.7398 19.2181 56.9233C16.6634 57.1068 14.1278 56.3655 12.0742 54.8347L25.2717 41.6352C26.5101 40.4002 28.1877 39.7066 29.9367 39.7066C31.6857 39.7066 33.3633 40.3992 34.6018 41.6342ZM4.01369 51.2322C4.29914 51.5176 4.68625 51.6779 5.08988 51.6779C5.49351 51.6779 5.88062 51.5176 6.16607 51.2322L20.5194 36.8799C22.3244 35.0702 23.3381 32.6185 23.3381 30.0625C23.3381 27.5065 22.3244 25.0548 20.5194 23.245L6.16607 8.89578C5.88066 8.61073 5.49377 8.45061 5.09039 8.45061C4.687 8.45061 4.30011 8.61073 4.0147 8.89578C1.44949 11.4669 0.00886563 14.9506 0.00886563 18.5826C0.00886563 22.2145 1.44949 25.6982 4.0147 28.2693L5.80684 30.0635L4.01267 31.8576C1.44746 34.4288 0.00683594 37.9125 0.00683594 41.5444C0.00683594 45.1764 1.44746 48.66 4.01267 51.2312L4.01369 51.2322ZM9.03694 28.9878L6.16607 26.1159C4.35749 24.3022 3.26141 21.8986 3.0779 19.3439C2.89439 16.7891 3.63569 14.2535 5.1665 12.2L18.366 25.3974C19.601 26.6358 20.2946 28.3135 20.2946 30.0625C20.2946 31.8115 19.601 33.4891 18.366 34.7275L5.16548 47.926C3.63468 45.8724 2.89338 43.3368 3.07689 40.7821C3.26039 38.2273 4.35647 35.8237 6.16506 34.01L9.03694 31.1402C9.32065 30.8536 9.47979 30.4667 9.47979 30.0635C9.47979 29.6603 9.32065 29.2733 9.03694 28.9868V28.9878ZM59.8733 18.5831C59.8774 16.7828 59.5243 14.9996 58.8345 13.3368C58.1447 11.674 57.1319 10.1645 55.8547 8.89578C55.7133 8.75433 55.5455 8.64212 55.3607 8.56556C55.176 8.489 54.978 8.4496 54.778 8.4496C54.578 8.4496 54.38 8.489 54.1953 8.56556C54.0105 8.64212 53.8427 8.75433 53.7013 8.89578L39.35 23.2461C38.4545 24.1412 37.7442 25.204 37.2595 26.3738C36.7749 27.5435 36.5254 28.7973 36.5254 30.0635C36.5254 31.3297 36.7749 32.5834 37.2595 33.7532C37.7442 34.9229 38.4545 35.9857 39.35 36.8809L53.7013 51.2312C53.9867 51.5165 54.3739 51.6769 54.7775 51.6769C55.1811 51.6769 55.5682 51.5165 55.8537 51.2312C57.1263 49.9594 58.1358 48.4493 58.8246 46.7872C59.5134 45.1251 59.8679 43.3436 59.8679 41.5444C59.8679 39.7452 59.5134 37.9637 58.8246 36.3016C58.1358 34.6395 57.1263 33.1294 55.8537 31.8576L54.0595 30.0635L55.8537 28.2693C57.131 27.0008 58.1439 25.4915 58.8339 23.8289C59.5239 22.1662 59.8771 20.3832 59.8733 18.5831ZM50.8314 31.1392L53.7013 34.009C55.5137 35.8207 56.6125 38.2249 56.7963 40.7809C56.9801 43.337 56.2365 45.8736 54.7019 47.926L41.5024 34.7285C40.2671 33.4902 39.5734 31.8126 39.5734 30.0635C39.5734 28.3144 40.2671 26.6367 41.5024 25.3984L54.7019 12.199C56.2301 14.254 56.9696 16.7894 56.786 19.3437C56.6024 21.8981 55.5077 24.3016 53.7013 26.1169L50.8314 28.9878C50.69 29.1292 50.5778 29.297 50.5012 29.4818C50.4247 29.6665 50.3853 29.8645 50.3853 30.0645C50.3853 30.2645 50.4247 30.4625 50.5012 30.6472C50.5778 30.832 50.69 30.9998 50.8314 31.1412V31.1392Z" fill="#586CEC"/>
</g>
<defs>
<clipPath id="clip0_82_1348">
<rect width="59.8732" height="60" fill="white"/>
</clipPath>
</defs>
</svg>
