<svg width="60" height="60" viewBox="0 0 60 60" fill="none" xmlns="http://www.w3.org/2000/svg">
<g clip-path="url(#clip0_82_1379)">
<path d="M45.8219 0.126488C33.5556 0.0242099 27.2417 15.2759 35.9769 23.8976C44.6635 32.6227 59.7986 26.3584 59.747 14.0516C59.7302 10.3636 58.2577 6.83141 55.6499 4.22359C53.0421 1.61576 49.5099 0.14327 45.8219 0.126488ZM53.5212 21.7498C51.4774 23.788 48.7088 24.9327 45.8224 24.9327C42.936 24.9327 40.1674 23.788 38.1237 21.7498C31.265 14.9822 36.2948 3.05813 45.8229 3.16953C55.35 3.05915 60.3819 14.9842 53.5212 21.7498Z" fill="#586CEC"/>
<path d="M41.2402 9.46824C35.3668 15.7092 44.1668 24.5062 50.4048 18.6328C56.2752 12.3989 47.4893 3.59887 41.2402 9.46824ZM48.258 16.486C44.9405 19.5391 40.26 14.9295 43.3871 11.6151C43.7069 11.2952 44.0866 11.0415 44.5045 10.8685C44.9223 10.6954 45.3702 10.6063 45.8225 10.6063C46.2748 10.6063 46.7227 10.6954 47.1406 10.8685C47.5584 11.0415 47.9381 11.2952 48.258 11.6151C48.5778 11.9349 48.8315 12.3146 49.0046 12.7325C49.1777 13.1503 49.2668 13.5982 49.2668 14.0505C49.2668 14.5028 49.1777 14.9507 49.0046 15.3686C48.8315 15.7864 48.5778 16.1661 48.258 16.486ZM13.9238 59.8733C17.6115 59.856 21.1432 58.3833 23.7508 55.7756C26.3583 53.1678 27.8308 49.636 27.8478 45.9482C27.9511 33.6819 12.7005 27.366 4.0777 36.1032C-4.65648 44.726 1.65643 59.9766 13.9238 59.8733ZM13.9238 35.0682C23.4519 34.9579 28.4828 46.8819 21.622 53.6475C19.5787 55.6862 16.8102 56.8311 13.9238 56.8311C11.0374 56.8311 8.26884 55.6862 6.22555 53.6475C-0.633185 46.8799 4.39568 34.9568 13.9238 35.0682Z" fill="#586CEC"/>
<path d="M45.0027 32.0658C41.0138 31.819 37.2439 30.1572 34.3708 27.3792L32.4944 25.5027C29.7162 22.6298 28.0543 18.8597 27.8078 14.8708C27.026 4.62577 13.9728 0.0708349 7.0027 7.66071C4.93491 9.91495 3.78813 12.863 3.78906 15.9219C3.79 18.9809 4.93859 21.9282 7.00777 24.1812C9.08907 26.4018 11.9356 27.7496 14.9723 27.9524C18.8891 28.1971 22.5842 29.854 25.3723 32.6156L27.2559 34.4992C30.0183 37.2878 31.6755 40.9837 31.9202 44.9012C32.1236 47.9375 33.4713 50.7835 35.6913 52.8648C37.9977 55.0369 41.0661 56.2143 44.2334 56.1425C47.4008 56.0707 50.4127 54.7555 52.6183 52.4812C54.8239 50.2068 56.046 47.1559 56.0206 43.9878C55.9951 40.8198 54.7241 37.7889 52.4822 35.5503C50.4759 33.5451 47.8275 32.3107 45.0017 32.0637L45.0027 32.0658ZM50.1308 50.6582C44.7506 55.7873 35.3288 52.1751 34.9531 44.6977C34.6579 40.0472 32.6866 35.6614 29.4047 32.3534L27.5212 30.4688C24.2125 27.1866 19.826 25.2153 15.1749 24.9205C12.9041 24.7679 10.7758 23.7597 9.21941 22.0992C1.55359 13.1878 13.4989 1.50375 22.1733 9.53919C23.6736 11.0387 24.5972 13.019 24.7819 15.1321C25.0863 19.8346 27.0596 24.2738 30.3465 27.6506C32.1257 29.7912 34.3166 31.5527 36.7893 32.8308C39.262 34.1088 41.9662 34.8772 44.7414 35.0906C52.3749 35.6313 55.8159 45.5027 50.1308 50.6572V50.6582Z" fill="#586CEC"/>
<path d="M12.246 12.3727C7.6911 17.2132 14.5073 24.0395 19.36 19.4866C23.925 14.6734 17.0582 7.80354 12.246 12.3727ZM17.2121 17.3387C16.837 17.7056 16.3323 17.9097 15.8076 17.9068C15.2829 17.9039 14.7805 17.6942 14.4095 17.3231C14.0385 16.9521 13.8287 16.4497 13.8258 15.925C13.8229 15.4003 14.027 14.8956 14.3939 14.5205C14.769 14.1536 15.2737 13.9495 15.7984 13.9524C16.3231 13.9553 16.8255 14.1651 17.1965 14.5361C17.5676 14.9071 17.7773 15.4095 17.7802 15.9342C17.7831 16.4589 17.579 16.9636 17.2121 17.3387ZM40.3848 40.5134C35.8379 45.3661 42.6531 52.1792 47.5007 47.6273C52.0688 42.8142 45.201 35.9484 40.3848 40.5134ZM45.3529 45.4795C44.9766 45.8398 44.4741 46.0383 43.9532 46.0327C43.4322 46.0271 42.9342 45.8177 42.5658 45.4494C42.1973 45.0811 41.9878 44.5831 41.9819 44.0622C41.9761 43.5412 42.1745 43.0387 42.5346 42.6623C42.911 42.302 43.4134 42.1034 43.9343 42.1091C44.4553 42.1147 44.9533 42.3241 45.3217 42.6924C45.6902 43.0607 45.8998 43.5587 45.9056 44.0796C45.9114 44.6005 45.713 45.103 45.3529 45.4795ZM13.924 52.4284C22.4901 52.1752 22.4881 39.7215 13.924 39.4704C5.35895 39.7225 5.36098 52.1772 13.924 52.4284ZM11.4906 43.5149C12.1388 42.8817 13.0105 42.5295 13.9167 42.5347C14.8229 42.54 15.6905 42.9023 16.3313 43.5431C16.9721 44.1839 17.3344 45.0515 17.3397 45.9577C17.3449 46.8639 16.9927 47.7356 16.3595 48.3838C13.04 51.438 8.36351 46.8273 11.4906 43.5149Z" fill="#586CEC"/>
</g>
<defs>
<clipPath id="clip0_82_1379">
<rect width="59.8734" height="60" fill="white"/>
</clipPath>
</defs>
</svg>
