<svg width="59" height="60" viewBox="0 0 59 60" fill="none" xmlns="http://www.w3.org/2000/svg">
<g clip-path="url(#clip0_82_3009)">
<path d="M37.0552 60C37.0125 60 36.9701 59.9972 36.9275 59.9915L36.3883 59.9197H21.0174C20.7586 59.9197 20.5105 59.8161 20.3285 59.6314C20.1466 59.4467 20.0459 59.1967 20.0497 58.9373L20.13 53.5793C20.13 49.0103 24.2826 46.8882 26.7969 46.3381C27.7542 46.0046 30.3575 45.9601 31.3725 46.3415C33.8877 46.8958 38.0238 49.0207 38.0238 53.5935V59.0323C38.024 59.1702 37.9945 59.3065 37.9374 59.4321C37.8804 59.5576 37.797 59.6695 37.693 59.76C37.5166 59.9149 37.2899 60.0002 37.0552 60ZM21.9998 57.9842H36.0883V53.5934C36.0883 49.3511 31.0974 48.2604 30.8848 48.216C30.7943 48.1971 30.707 48.1655 30.6254 48.1221C30.1939 47.9604 27.9584 47.9717 27.4637 48.1527C27.4201 48.1684 27.3149 48.2061 27.2695 48.2146C27.0564 48.2595 22.0655 49.3501 22.0655 53.5925L21.9998 57.9842ZM29.0363 44.5568C26.2917 44.5568 24.059 42.3165 24.059 39.5612C24.059 36.8064 26.2919 34.5646 29.0363 34.5646C31.7807 34.5646 34.0135 36.8064 34.0135 39.5612C34.0135 42.3165 31.7808 44.5568 29.0363 44.5568ZM29.0363 36.5001C27.3603 36.5001 25.9945 37.8738 25.9945 39.5612C25.9945 41.2481 27.3593 42.6213 29.0363 42.6213C30.7132 42.6213 32.078 41.2481 32.078 39.5612C32.078 37.8737 30.7123 36.5001 29.0363 36.5001ZM57.1008 60C57.0578 60 57.0148 59.9971 56.9722 59.9915L56.4351 59.9197H41.0644C40.9362 59.9198 40.8092 59.8944 40.6909 59.8449C40.5726 59.7954 40.4654 59.7228 40.3754 59.6314C40.2853 59.5399 40.2143 59.4315 40.1664 59.3123C40.1186 59.1932 40.0949 59.0657 40.0967 58.9373L40.177 53.5793C40.177 49.0103 44.3296 46.8882 46.8434 46.3381C47.8008 46.0037 50.404 45.9593 51.418 46.3425C53.9324 46.8958 58.0684 49.0198 58.0684 53.5934V59.0323C58.0685 59.1703 58.039 59.3067 57.982 59.4324C57.9249 59.558 57.8416 59.6701 57.7377 59.7608C57.5615 59.9152 57.3351 60.0002 57.1008 60ZM42.0455 57.9842H56.133V53.5934C56.133 49.3511 51.1426 48.2604 50.9295 48.216C50.8386 48.1971 50.7509 48.1651 50.6692 48.1211C50.2397 47.9614 48.0041 47.9727 47.5094 48.1518C47.4658 48.1683 47.3606 48.2061 47.3151 48.2147C47.1021 48.2595 42.1117 49.3492 42.1117 53.5925L42.0455 57.9842ZM49.0818 44.5568C46.3374 44.5568 44.1052 42.3165 44.1052 39.5612C44.1052 36.8064 46.3374 34.5646 49.0818 34.5646C51.8268 34.5646 54.06 36.8064 54.06 39.5612C54.06 42.3165 51.8269 44.5568 49.0819 44.5568H49.0818ZM49.0818 36.5001C47.4058 36.5001 46.0407 37.8738 46.0407 39.5612C46.0407 41.2481 47.405 42.6213 49.0818 42.6213C50.7594 42.6213 52.1245 41.2481 52.1245 39.5612C52.1236 37.8737 50.7594 36.5001 49.0819 36.5001H49.0818ZM17.0084 60C16.966 60 16.9229 59.9972 16.8795 59.9915L16.3426 59.9197H0.971745C0.843525 59.9198 0.71657 59.8943 0.598288 59.8449C0.480006 59.7954 0.372768 59.7228 0.282833 59.6314C0.192702 59.5399 0.12164 59.4315 0.0737742 59.3123C0.0259082 59.1932 0.00219198 59.0657 0.00400264 58.9373L0.0843252 53.5793C0.0843252 49.0103 4.23691 46.8882 6.75122 46.3381C7.70723 46.0037 10.3113 45.9593 11.3259 46.3425C13.8411 46.8958 17.9771 49.0207 17.9771 53.5934V59.0323C17.9772 59.1703 17.9477 59.3068 17.8906 59.4325C17.8335 59.5582 17.75 59.6701 17.6459 59.7608C17.4694 59.9151 17.2429 60 17.0084 60ZM1.95412 57.9842H16.0417V53.5934C16.0417 49.3501 11.0508 48.2604 10.8381 48.216C10.7472 48.1972 10.6595 48.1652 10.5778 48.1211C10.1478 47.9614 7.91227 47.9727 7.41812 48.1518C7.37457 48.1683 7.2692 48.2061 7.22336 48.2147C7.0107 48.2595 2.01981 49.3492 2.01981 53.5925L1.95412 57.9842ZM8.9907 44.5568C6.24618 44.5568 4.01251 42.3165 4.01251 39.5612C4.01251 36.8064 6.24618 34.5646 8.99057 34.5646C11.735 34.5646 13.9678 36.8064 13.9678 39.5612C13.9678 42.3165 11.7352 44.5568 8.9907 44.5568ZM8.9907 36.5001C7.3136 36.5001 5.94799 37.8738 5.94799 39.5612C5.94799 41.2481 7.31263 42.6213 8.99057 42.6213C10.6667 42.6213 12.0323 41.2481 12.0323 39.5612C12.0323 37.8737 10.6677 36.5001 8.9907 36.5001ZM35.4495 11.9129H37.385V21.7732H35.4495V11.9129ZM39.3544 15.4541H41.2899V21.7732H39.3544V15.4541ZM43.1171 12.5353H45.0526V21.7732H43.1171V12.5353ZM48.307 5.06601H50.2425V21.7732H48.307V5.06601Z" fill="#555555"/>
<path d="M54.2749 26.1087H26.1553C25.6204 26.1087 25.1876 25.6764 25.1876 25.141C25.1876 24.6056 25.6204 24.1732 26.1553 24.1732H53.3071V1.93548H20.8019V19.4914C20.8019 20.0263 20.369 20.4592 19.8341 20.4592C19.2987 20.4592 18.8664 20.0263 18.8664 19.4914V0.967742C18.8664 0.432339 19.2987 0 19.8341 0H54.2749C54.8103 0 55.2426 0.432339 55.2426 0.967742V25.141C55.2426 25.6749 54.8103 26.1087 54.2749 26.1087ZM11.3361 12.4772C8.34304 12.4772 5.9082 10.0328 5.9082 7.02702C5.9082 4.02314 8.34401 1.57742 11.336 1.57742C14.3286 1.57742 16.7646 4.02169 16.7646 7.02702C16.7646 10.0319 14.3295 12.4772 11.3361 12.4772ZM11.3361 3.51278C9.41058 3.51278 7.84369 5.08911 7.84369 7.02689C7.84369 8.96528 9.41058 10.5417 11.336 10.5417C13.2622 10.5417 14.8291 8.96528 14.8291 7.02702C14.8291 5.08911 13.2622 3.5129 11.3361 3.5129V3.51278Z" fill="#555555"/>
<path d="M16.7009 33.0115H6.28435C6.15722 33.0117 6.0313 32.9867 5.91382 32.9382C5.79634 32.8896 5.68959 32.8183 5.5997 32.7284C5.5098 32.6385 5.43852 32.5318 5.38995 32.4143C5.34137 32.2968 5.31645 32.1709 5.31661 32.0438V30.5698C4.86205 30.7135 4.37816 30.7379 3.91144 30.6407C2.63608 30.3831 1.70898 29.2169 1.70898 27.8706V23.1831C1.70898 20.5091 2.50616 17.9309 4.01584 15.7285C4.54229 14.9602 5.24015 14.3775 6.03165 14.0448C6.84113 13.7035 7.71099 13.5284 8.58951 13.5299H14.3727C14.516 13.5299 14.6591 13.5356 14.8013 13.5473C16.4079 13.6767 17.9167 14.6261 18.8368 16.0867L21.0113 19.5442L25.3089 21.8866C26.7872 22.6927 27.4873 24.3947 26.9747 25.9333C26.6783 26.8198 26.0513 27.5225 25.2073 27.9113C24.381 28.2945 23.4185 28.3172 22.5717 27.9746C22.5366 27.961 22.5027 27.9444 22.4709 27.9259L17.6899 25.3109L17.6696 32.0479C17.6682 32.3039 17.5655 32.5489 17.384 32.7294C17.2025 32.91 16.9569 33.0114 16.7009 33.0115ZM7.25209 31.076H15.7365L15.7577 23.6767L15.7625 22.167C15.7632 21.9108 15.8655 21.6654 16.0469 21.4845C16.2283 21.3037 16.4741 21.2022 16.7303 21.2024H16.7331C16.9892 21.2031 17.2347 21.3054 17.4155 21.4868C17.5964 21.6682 17.698 21.9139 17.6979 22.1701V22.173L17.6951 23.1068L23.3419 26.1957C23.6891 26.3237 24.0606 26.3072 24.3955 26.1513C24.75 25.9887 25.0141 25.6925 25.1389 25.319C25.3515 24.6812 25.0264 23.9352 24.3828 23.584L19.8635 21.1211C19.7182 21.0417 19.5958 20.9264 19.5078 20.7861L17.1976 17.1155C16.6012 16.1681 15.6462 15.5557 14.6444 15.4754C14.5538 15.4675 14.4628 15.4635 14.3718 15.4636H8.58866C7.96807 15.463 7.35365 15.5867 6.78165 15.8274C6.33286 16.0149 5.92834 16.3594 5.61261 16.8202C4.32503 18.7009 3.64447 20.9005 3.64447 23.1814V27.8707C3.64447 28.2938 3.92523 28.6694 4.29661 28.7441C4.64729 28.8144 4.89298 28.6694 5.00596 28.5762C5.10339 28.4966 5.18185 28.3962 5.23563 28.2825C5.28941 28.1687 5.31715 28.0444 5.31685 27.9185V21.4807C5.31685 20.9458 5.74919 20.513 6.28459 20.513C6.81951 20.513 7.25233 20.9458 7.25233 21.4807L7.25209 31.076Z" fill="#555555"/>
<path d="M23.7568 22.6247L30.291 12.9275L31.8953 14.0087L25.3611 23.7059L23.7568 22.6247Z" fill="#555555"/>
</g>
<defs>
<clipPath id="clip0_82_3009">
<rect width="58.125" height="60" fill="white"/>
</clipPath>
</defs>
</svg>
