<svg width="27" height="28" viewBox="0 0 27 28" fill="none" xmlns="http://www.w3.org/2000/svg">
<g clip-path="url(#clip0_82_699)">
<path d="M17.1362 27.3334C17.1172 27.3334 17.0983 27.3321 17.0794 27.3296L16.8398 27.2977H10.0083C9.89324 27.2977 9.78297 27.2517 9.70211 27.1696C9.62125 27.0875 9.57652 26.9763 9.57818 26.8611L9.61388 24.4797C9.61388 22.4491 11.4595 21.5059 12.5769 21.2614C13.0024 21.1132 14.1594 21.0934 14.6105 21.263C15.7284 21.5093 17.5667 22.4537 17.5667 24.4861V26.9033C17.5667 26.9646 17.5537 27.0252 17.5283 27.081C17.5029 27.1368 17.4659 27.1865 17.4196 27.2267C17.3413 27.2955 17.2405 27.3335 17.1362 27.3334ZM10.4449 26.4375H16.7065V24.486C16.7065 22.6005 14.4883 22.1158 14.3938 22.0961C14.3536 22.0877 14.3148 22.0736 14.2785 22.0543C14.0867 21.9825 13.0932 21.9875 12.8733 22.0679C12.8539 22.0749 12.8072 22.0917 12.787 22.0954C12.6923 22.1154 10.4741 22.6001 10.4741 24.4856L10.4449 26.4375ZM13.5722 20.4697C12.3524 20.4697 11.3601 19.474 11.3601 18.2495C11.3601 17.0251 12.3525 16.0288 13.5722 16.0288C14.7919 16.0288 15.7843 17.0251 15.7843 18.2495C15.7843 19.474 14.792 20.4697 13.5722 20.4697ZM13.5722 16.889C12.8273 16.889 12.2203 17.4995 12.2203 18.2495C12.2203 18.9992 12.8269 19.6095 13.5722 19.6095C14.3175 19.6095 14.9241 18.9992 14.9241 18.2495C14.9241 17.4995 14.3171 16.889 13.5722 16.889ZM26.0453 27.3334C26.0262 27.3334 26.0071 27.3321 25.9882 27.3296L25.7495 27.2977H18.9181C18.8611 27.2977 18.8046 27.2864 18.7521 27.2644C18.6995 27.2424 18.6518 27.2102 18.6118 27.1696C18.5718 27.1289 18.5402 27.0807 18.519 27.0277C18.4977 26.9748 18.4872 26.9181 18.488 26.8611L18.5237 24.4797C18.5237 22.4491 20.3693 21.5059 21.4865 21.2614C21.912 21.1128 23.069 21.0931 23.5196 21.2634C24.6372 21.5093 26.4754 22.4533 26.4754 24.486V26.9033C26.4754 26.9646 26.4623 27.0252 26.437 27.0811C26.4116 27.137 26.3746 27.1867 26.3284 27.2271C26.2501 27.2957 26.1495 27.3335 26.0453 27.3334ZM19.3541 26.4375H25.6152V24.486C25.6152 22.6005 23.3973 22.1158 23.3025 22.0961C23.2621 22.0877 23.2232 22.0734 23.1868 22.0539C22.996 21.9829 22.0024 21.9879 21.7825 22.0675C21.7631 22.0748 21.7164 22.0917 21.6961 22.0955C21.6015 22.1154 19.3835 22.5997 19.3835 24.4856L19.3541 26.4375ZM22.4814 20.4697C21.2616 20.4697 20.2695 19.474 20.2695 18.2495C20.2695 17.0251 21.2616 16.0288 22.4814 16.0288C23.7014 16.0288 24.6939 17.0251 24.6939 18.2495C24.6939 19.474 23.7014 20.4697 22.4814 20.4697H22.4814ZM22.4814 16.889C21.7365 16.889 21.1297 17.4995 21.1297 18.2495C21.1297 18.9992 21.7361 19.6095 22.4814 19.6095C23.2269 19.6095 23.8337 18.9992 23.8337 18.2495C23.8332 17.4995 23.2269 16.889 22.4814 16.889H22.4814ZM8.22652 27.3334C8.20764 27.3334 8.1885 27.3321 8.1692 27.3296L7.9306 27.2977H1.0991C1.04211 27.2977 0.985685 27.2864 0.933115 27.2644C0.880545 27.2424 0.832884 27.2102 0.792913 27.1696C0.752855 27.1289 0.721272 27.0807 0.699998 27.0278C0.678724 26.9748 0.668183 26.9181 0.668988 26.8611L0.704687 24.4797C0.704687 22.4491 2.55028 21.5059 3.66775 21.2614C4.09264 21.1128 5.25001 21.0931 5.70092 21.2634C6.81883 21.5093 8.65705 22.4537 8.65705 24.486V26.9033C8.65709 26.9646 8.64397 27.0253 8.61858 27.0812C8.59319 27.137 8.55611 27.1868 8.50985 27.2271C8.43137 27.2956 8.33071 27.3334 8.22652 27.3334ZM1.53571 26.4375H7.79684V24.486C7.79684 22.6001 5.57867 22.1158 5.48415 22.0961C5.44374 22.0877 5.40476 22.0735 5.36845 22.0539C5.17732 21.9829 4.18377 21.9879 3.96415 22.0675C3.94479 22.0748 3.89797 22.0917 3.87759 22.0955C3.78307 22.1154 1.5649 22.5997 1.5649 24.4856L1.53571 26.4375ZM4.66307 20.4697C3.44329 20.4697 2.45055 19.474 2.45055 18.2495C2.45055 17.0251 3.44329 16.0288 4.66302 16.0288C5.88275 16.0288 6.87512 17.0251 6.87512 18.2495C6.87512 19.474 5.88286 20.4697 4.66307 20.4697ZM4.66307 16.889C3.9177 16.889 3.31076 17.4995 3.31076 18.2495C3.31076 18.9992 3.91727 19.6095 4.66302 19.6095C5.40797 19.6095 6.0149 18.9992 6.0149 18.2495C6.0149 17.4995 5.4084 16.889 4.66307 16.889ZM16.4225 5.96134H17.2828V10.3437H16.4225V5.96134ZM18.1581 7.53521H19.0183V10.3437H18.1581V7.53521ZM19.8304 6.23795H20.6906V10.3437H19.8304V6.23795ZM22.137 2.91827H22.9972V10.3437H22.137V2.91827Z" fill="#555555"/>
<path d="M24.7893 12.2706H12.2917C12.0539 12.2706 11.8616 12.0785 11.8616 11.8405C11.8616 11.6026 12.0539 11.4104 12.2917 11.4104H24.3592V1.52696H9.91238V9.3296C9.91238 9.56734 9.72001 9.7597 9.48227 9.7597C9.24431 9.7597 9.05216 9.56734 9.05216 9.3296V1.09686C9.05216 0.858899 9.24431 0.666748 9.48227 0.666748H24.7893C25.0272 0.666748 25.2194 0.858899 25.2194 1.09686V11.8405C25.2194 12.0778 25.0272 12.2706 24.7893 12.2706ZM5.70539 6.21218C4.37512 6.21218 3.29297 5.12578 3.29297 3.78987C3.29297 2.45481 4.37555 1.36782 5.70533 1.36782C7.03539 1.36782 8.11802 2.45417 8.11802 3.78987C8.11802 5.12535 7.03576 6.21218 5.70539 6.21218ZM5.70539 2.22798C4.84958 2.22798 4.15318 2.92858 4.15318 3.78981C4.15318 4.65132 4.84958 5.35196 5.70533 5.35196C6.56141 5.35196 7.25781 4.65132 7.25781 3.78987C7.25781 2.92858 6.56141 2.22804 5.70539 2.22804V2.22798Z" fill="#555555"/>
<path d="M8.08982 15.3385H3.46025C3.40375 15.3386 3.34779 15.3275 3.29557 15.3059C3.24336 15.2843 3.19592 15.2526 3.15596 15.2127C3.11601 15.1727 3.08433 15.1253 3.06274 15.0731C3.04115 15.0208 3.03007 14.9649 3.03015 14.9084V14.2533C2.82812 14.3172 2.61306 14.328 2.40563 14.2848C1.8388 14.1703 1.42676 13.652 1.42676 13.0537V10.9703C1.42676 9.78188 1.78106 8.63602 2.45203 7.65715C2.68601 7.3157 2.99617 7.05672 3.34794 6.90887C3.70771 6.75715 4.09432 6.67932 4.48477 6.68H7.05509C7.11875 6.68 7.18235 6.68252 7.24558 6.68774C7.95961 6.74527 8.6302 7.1672 9.03912 7.81634L10.0056 9.35301L11.9156 10.3941C12.5726 10.7524 12.8838 11.5088 12.656 12.1926C12.5242 12.5866 12.2456 12.8989 11.8705 13.0717C11.5032 13.242 11.0754 13.2521 10.6991 13.0999C10.6835 13.0938 10.6684 13.0864 10.6543 13.0782L8.52939 11.916L8.52036 14.9102C8.51972 15.024 8.47408 15.1329 8.39341 15.2131C8.31274 15.2934 8.2036 15.3385 8.08982 15.3385ZM3.89036 14.4783H7.66122L7.67063 11.1897L7.67278 10.5187C7.67308 10.4049 7.71853 10.2958 7.79917 10.2154C7.87981 10.135 7.98904 10.0899 8.10289 10.09H8.10412C8.21798 10.0903 8.32707 10.1358 8.40745 10.2164C8.48784 10.297 8.53297 10.4062 8.53294 10.5201V10.5214L8.5317 10.9364L11.0414 12.3092C11.1957 12.3661 11.3608 12.3588 11.5097 12.2895C11.6672 12.2173 11.7846 12.0856 11.84 11.9196C11.9346 11.6361 11.79 11.3046 11.504 11.1485L9.49541 10.0539C9.43086 10.0186 9.37644 9.96732 9.33735 9.905L8.31058 8.2736C8.04552 7.85252 7.62106 7.58037 7.17584 7.54467C7.13555 7.54114 7.09511 7.53938 7.05466 7.53941H4.48439C4.20857 7.53915 3.9355 7.59414 3.68127 7.70113C3.48181 7.78446 3.30203 7.93758 3.1617 8.14236C2.58945 8.97822 2.28697 9.9558 2.28697 10.9696V13.0537C2.28697 13.2417 2.41176 13.4087 2.57681 13.4419C2.73267 13.4731 2.84187 13.4087 2.89208 13.3673C2.93538 13.3319 2.97026 13.2873 2.99416 13.2367C3.01806 13.1861 3.03039 13.1309 3.03025 13.0749V10.2137C3.03025 9.97597 3.2224 9.7836 3.46036 9.7836C3.6981 9.7836 3.89047 9.97597 3.89047 10.2137L3.89036 14.4783Z" fill="#555555"/>
<path d="M11.2256 10.7222L14.1297 6.41229L14.8427 6.89283L11.9386 11.2027L11.2256 10.7222Z" fill="#555555"/>
</g>
<defs>
<clipPath id="clip0_82_699">
<rect width="25.8333" height="26.6667" fill="white" transform="translate(0.666992 0.666748)"/>
</clipPath>
</defs>
</svg>
