<svg width="26" height="27" viewBox="0 0 26 27" fill="none" xmlns="http://www.w3.org/2000/svg">
<g clip-path="url(#clip0_82_1171)">
<path d="M16.4692 26.6666C16.4502 26.6666 16.4314 26.6654 16.4124 26.6629L16.1728 26.6309H9.3413C9.22624 26.6309 9.11597 26.5849 9.03511 26.5028C8.95425 26.4207 8.90952 26.3096 8.91119 26.1943L8.94689 23.813C8.94689 21.7823 10.7925 20.8392 11.91 20.5947C12.3354 20.4465 13.4924 20.4267 13.9436 20.5962C15.0614 20.8425 16.8997 21.7869 16.8997 23.8193V26.2365C16.8998 26.2978 16.8867 26.3584 16.8613 26.4142C16.8359 26.47 16.7989 26.5197 16.7526 26.56C16.6743 26.6288 16.5735 26.6667 16.4692 26.6666ZM9.77791 25.7707H16.0395V23.8193C16.0395 21.9338 13.8213 21.449 13.7268 21.4293C13.6866 21.4209 13.6478 21.4068 13.6115 21.3875C13.4197 21.3157 12.4262 21.3207 12.2063 21.4011C12.1869 21.4081 12.1402 21.4249 12.12 21.4287C12.0253 21.4486 9.8071 21.9333 9.8071 23.8188L9.77791 25.7707ZM12.9052 19.803C11.6854 19.803 10.6931 18.8073 10.6931 17.5827C10.6931 16.3583 11.6855 15.362 12.9052 15.362C14.125 15.362 15.1173 16.3583 15.1173 17.5827C15.1173 18.8073 14.125 19.803 12.9052 19.803ZM12.9052 16.2222C12.1603 16.2222 11.5533 16.8328 11.5533 17.5827C11.5533 18.3324 12.1599 18.9428 12.9052 18.9428C13.6505 18.9428 14.2571 18.3324 14.2571 17.5827C14.2571 16.8327 13.6501 16.2222 12.9052 16.2222ZM25.3783 26.6666C25.3592 26.6666 25.3401 26.6654 25.3212 26.6629L25.0825 26.6309H18.2511C18.1941 26.631 18.1377 26.6197 18.0851 26.5977C18.0325 26.5757 17.9848 26.5434 17.9448 26.5028C17.9048 26.4622 17.8732 26.4139 17.852 26.361C17.8307 26.308 17.8202 26.2514 17.821 26.1943L17.8567 23.813C17.8567 21.7823 19.7023 20.8392 20.8195 20.5947C21.245 20.446 22.402 20.4263 22.8526 20.5966C23.9702 20.8425 25.8084 21.7865 25.8084 23.8193V26.2365C25.8084 26.2979 25.7953 26.3585 25.77 26.4143C25.7446 26.4702 25.7076 26.52 25.6614 26.5603C25.5831 26.629 25.4825 26.6667 25.3783 26.6666ZM18.6871 25.7707H24.9482V23.8193C24.9482 21.9338 22.7303 21.449 22.6355 21.4293C22.5951 21.4209 22.5562 21.4067 22.5198 21.3871C22.329 21.3161 21.3354 21.3211 21.1155 21.4008C21.0961 21.4081 21.0494 21.4249 21.0291 21.4287C20.9345 21.4486 18.7165 21.9329 18.7165 23.8188L18.6871 25.7707ZM21.8144 19.803C20.5946 19.803 19.6025 18.8073 19.6025 17.5827C19.6025 16.3583 20.5946 15.362 21.8144 15.362C23.0344 15.362 24.0269 16.3583 24.0269 17.5827C24.0269 18.8073 23.0344 19.803 21.8144 19.803H21.8144ZM21.8144 16.2222C21.0695 16.2222 20.4627 16.8328 20.4627 17.5827C20.4627 18.3324 21.0691 18.9428 21.8144 18.9428C22.56 18.9428 23.1667 18.3324 23.1667 17.5827C23.1662 16.8327 22.56 16.2222 21.8144 16.2222H21.8144ZM7.55952 26.6666C7.54065 26.6666 7.52151 26.6654 7.50221 26.6629L7.26361 26.6309H0.432103C0.375117 26.631 0.318692 26.6197 0.266123 26.5977C0.213553 26.5757 0.165892 26.5434 0.125921 26.5028C0.0858624 26.4622 0.0542793 26.414 0.0330056 26.361C0.0117318 26.308 0.00119123 26.2514 0.00199596 26.1943L0.0376949 23.813C0.0376949 21.7823 1.88329 20.8392 3.00076 20.5947C3.42565 20.446 4.58302 20.4263 5.03393 20.5966C6.15183 20.8425 7.99006 21.7869 7.99006 23.8193V26.2365C7.9901 26.2979 7.97698 26.3585 7.95159 26.4144C7.9262 26.4703 7.88912 26.52 7.84286 26.5603C7.76438 26.6289 7.66372 26.6666 7.55952 26.6666ZM0.868716 25.7707H7.12985V23.8193C7.12985 21.9333 4.91167 21.449 4.81716 21.4293C4.77675 21.4209 4.73777 21.4067 4.70146 21.3871C4.51033 21.3161 3.51678 21.3211 3.29716 21.4008C3.2778 21.4081 3.23097 21.4249 3.2106 21.4287C3.11608 21.4486 0.89791 21.9329 0.89791 23.8188L0.868716 25.7707ZM3.99608 19.803C2.7763 19.803 1.78356 18.8073 1.78356 17.5827C1.78356 16.3583 2.7763 15.362 3.99603 15.362C5.21576 15.362 6.20812 16.3583 6.20812 17.5827C6.20812 18.8073 5.21587 19.803 3.99608 19.803ZM3.99608 16.2222C3.25071 16.2222 2.64377 16.8328 2.64377 17.5827C2.64377 18.3324 3.25028 18.9428 3.99603 18.9428C4.74097 18.9428 5.34791 18.3324 5.34791 17.5827C5.34791 16.8327 4.7414 16.2222 3.99608 16.2222ZM15.7555 5.29458H16.6158V9.67695H15.7555V5.29458ZM17.4911 6.86845H18.3513V9.67695H17.4911V6.86845ZM19.1634 5.5712H20.0236V9.67695H19.1634V5.5712ZM21.47 2.25152H22.3302V9.67695H21.47V2.25152Z" fill="#1C1C1C"/>
<path d="M24.1223 11.6039H11.6247C11.3869 11.6039 11.1946 11.4117 11.1946 11.1738C11.1946 10.9358 11.3869 10.7437 11.6247 10.7437H23.6922V0.860215H9.24539V8.66285C9.24539 8.90059 9.05302 9.09296 8.81528 9.09296C8.57732 9.09296 8.38517 8.90059 8.38517 8.66285V0.430108C8.38517 0.192151 8.57732 0 8.81528 0H24.1223C24.3602 0 24.5524 0.192151 24.5524 0.430108V11.1738C24.5524 11.4111 24.3602 11.6039 24.1223 11.6039ZM5.0384 5.54543C3.70813 5.54543 2.62598 4.45903 2.62598 3.12312C2.62598 1.78806 3.70856 0.701075 5.03834 0.701075C6.3684 0.701075 7.45103 1.78742 7.45103 3.12312C7.45103 4.4586 6.36877 5.54543 5.0384 5.54543ZM5.0384 1.56124C4.18259 1.56124 3.48619 2.26183 3.48619 3.12306C3.48619 3.98457 4.18259 4.68521 5.03834 4.68521C5.89442 4.68521 6.59082 3.98457 6.59082 3.12312C6.59082 2.26183 5.89442 1.56129 5.0384 1.56129V1.56124Z" fill="#1C1C1C"/>
<path d="M7.42283 14.6717H2.79326C2.73676 14.6718 2.6808 14.6607 2.62858 14.6391C2.57637 14.6175 2.52892 14.5859 2.48897 14.5459C2.44902 14.506 2.41734 14.4585 2.39575 14.4063C2.37416 14.3541 2.36308 14.2981 2.36315 14.2416V13.5865C2.16113 13.6504 1.94607 13.6613 1.73864 13.618C1.17181 13.5036 0.759766 12.9852 0.759766 12.3869V10.3036C0.759766 9.11512 1.11407 7.96926 1.78503 6.99039C2.01901 6.64894 2.32917 6.38996 2.68095 6.24211C3.04072 6.0904 3.42732 6.01257 3.81778 6.01324H6.3881C6.45176 6.01324 6.51536 6.01577 6.57858 6.02098C7.29262 6.07851 7.96321 6.50045 8.37213 7.14959L9.33858 8.68625L11.2486 9.72733C11.9056 10.0856 12.2168 10.8421 11.989 11.5259C11.8572 11.9199 11.5786 12.2322 11.2035 12.405C10.8362 12.5753 10.4084 12.5854 10.0321 12.4331C10.0165 12.4271 10.0014 12.4197 9.98729 12.4115L7.8624 11.2493L7.85337 14.2435C7.85273 14.3572 7.80709 14.4661 7.72642 14.5464C7.64575 14.6266 7.53661 14.6717 7.42283 14.6717ZM3.22337 13.8115H6.99423L7.00364 10.5229L7.00579 9.85195C7.00609 9.7381 7.05154 9.62902 7.13218 9.54864C7.21281 9.46827 7.32204 9.42317 7.43589 9.42324H7.43713C7.55099 9.42355 7.66007 9.46901 7.74046 9.54964C7.82085 9.63027 7.86598 9.73949 7.86595 9.85335V9.85464L7.86471 10.2696L10.3744 11.6425C10.5287 11.6994 10.6938 11.6921 10.8427 11.6228C11.0002 11.5505 11.1176 11.4188 11.173 11.2529C11.2676 10.9694 11.123 10.6378 10.837 10.4817L8.82842 9.38711C8.76387 9.35182 8.70945 9.30057 8.67036 9.23824L7.64358 7.60684C7.37853 7.18577 6.95407 6.91362 6.50885 6.87792C6.46855 6.87438 6.42812 6.87262 6.38767 6.87265H3.8174C3.54158 6.87239 3.2685 6.92738 3.01428 7.03437C2.81482 7.1177 2.63503 7.27082 2.49471 7.47561C1.92245 8.31147 1.61998 9.28905 1.61998 10.3028V12.387C1.61998 12.575 1.74477 12.7419 1.90982 12.7751C2.06568 12.8064 2.17487 12.7419 2.22509 12.7005C2.26839 12.6651 2.30326 12.6205 2.32716 12.5699C2.35107 12.5194 2.3634 12.4641 2.36326 12.4082V9.54695C2.36326 9.30921 2.55541 9.11684 2.79337 9.11684C3.03111 9.11684 3.22348 9.30921 3.22348 9.54695L3.22337 13.8115Z" fill="#1C1C1C"/>
<path d="M10.5586 10.0554L13.4627 5.74555L14.1757 6.22609L11.2716 10.536L10.5586 10.0554Z" fill="#1C1C1C"/>
</g>
<defs>
<clipPath id="clip0_82_1171">
<rect width="25.8333" height="26.6667" fill="white"/>
</clipPath>
</defs>
</svg>
