<svg width="160" height="30" viewBox="0 0 160 30" fill="none" xmlns="http://www.w3.org/2000/svg">
<g clip-path="url(#clip0_82_1048)">
<path d="M0 0.00805664H29.984V29.9921H0V0.00805664ZM32.4827 0.00805664H62.4667V29.9921H32.4827V0.00805664ZM64.9654 0.00805664H94.9494V29.9921H64.9654V0.00805664ZM97.448 0.00805664H127.432V29.9921H97.448V0.00805664ZM129.931 0.00805664H159.915V29.9921H129.931V0.00805664Z" fill="#A7FF37"/>
<path d="M14.9924 20.216L19.5525 19.0604L21.4577 24.9323L14.9924 20.216ZM25.4869 12.6263H17.4599L14.9924 5.06787L12.525 12.6263H4.49805L10.9946 17.3113L8.52715 24.8698L15.0237 20.1848L19.0216 17.3113L25.4869 12.6263ZM47.4751 20.216L52.0352 19.0604L53.9404 24.9323L47.4751 20.216ZM57.9695 12.6263H49.9426L47.4751 5.06787L45.0077 12.6263H36.9807L43.4773 17.3113L41.0098 24.8698L47.5064 20.1848L51.5042 17.3113L57.9695 12.6263ZM79.9578 20.216L84.5179 19.0604L86.4231 24.9323L79.9578 20.216ZM90.4522 12.6263H82.4252L79.9578 5.06787L77.4904 12.6263H69.4634L75.9599 17.3113L73.4925 24.8698L79.989 20.1848L83.9869 17.3113L90.4522 12.6263ZM112.44 20.216L117.001 19.0604L118.906 24.9323L112.44 20.216ZM122.935 12.6263H114.908L112.44 5.06787L109.973 12.6263H101.946L108.443 17.3113L105.975 24.8698L112.472 20.1848L116.47 17.3113L122.935 12.6263ZM144.923 20.216L149.483 19.0604L151.388 24.9323L144.923 20.216ZM155.418 12.6263H147.391L144.923 5.06787L142.456 12.6263H134.429L140.925 17.3113L138.458 24.8698L144.954 20.1848L148.952 17.3113L155.418 12.6263Z" fill="#1C1C1C"/>
</g>
<defs>
<clipPath id="clip0_82_1048">
<rect width="159.915" height="30" fill="white"/>
</clipPath>
</defs>
</svg>
