<svg width="60" height="60" viewBox="0 0 60 60" fill="none" xmlns="http://www.w3.org/2000/svg">
<g clip-path="url(#clip0_82_1291)">
<path d="M59.8776 41.4719C59.881 31.3038 51.6373 23.0623 41.4668 23.0623C39.612 23.0611 37.7675 23.3397 35.9958 23.8886C36.5348 22.1588 36.8244 20.3187 36.8244 18.412C36.8244 8.24123 28.5807 6.48899e-06 18.412 0.00293047H0L0.00394737 18.412C0.00233918 28.5801 8.2443 36.8228 18.4142 36.8228C20.3187 36.8228 22.1566 36.5332 23.8841 35.9963C23.3466 37.725 23.0572 39.5668 23.0572 41.4715C23.0572 51.6426 31.3013 59.8855 41.4696 59.8822H59.8833L59.8776 41.4719ZM18.4142 31.833C14.8284 31.833 11.4589 30.4363 8.92325 27.9018C6.38933 25.3678 4.99415 21.9978 4.99415 18.4108L4.99123 4.99299H18.4124C21.9996 4.99299 25.37 6.38875 27.9045 8.92325C30.4385 11.4578 31.8348 14.8278 31.8348 18.412C31.8348 25.811 25.8137 31.833 18.4142 31.833ZM41.4645 54.893C34.0667 54.893 28.0478 48.8727 28.0478 41.4719C28.0478 34.0712 34.0673 28.0531 41.4674 28.0531C45.0538 28.0531 48.4238 29.4488 50.9605 31.9833C53.495 34.5173 54.8885 37.8871 54.8885 41.4719L54.8908 54.893H41.4645Z" fill="#586CEC"/>
<path d="M49.9 0C44.3885 0 39.9219 4.4693 39.9219 9.98319C39.9219 15.4925 44.3885 19.9613 49.9 19.9613C55.4111 19.9613 59.8833 15.4925 59.8833 9.98319C59.8833 4.4693 55.4111 0 49.9 0ZM49.9 14.9705C47.1491 14.9705 44.9121 12.7342 44.9121 9.98319C44.9121 7.22939 47.1491 4.99079 49.9 4.99079C52.6538 4.99079 54.8925 7.22939 54.8925 9.98319C54.8925 12.7342 52.6538 14.9705 49.9 14.9705ZM7.48304 44.9123C3.35058 44.9123 0 48.2655 0 52.3972C0 56.5303 3.35058 59.8832 7.48304 59.8832C11.6183 59.8832 14.9705 56.5303 14.9705 52.3972C14.9705 48.2655 11.6181 44.912 7.48304 44.912V44.9123ZM7.48304 54.8931C6.10892 54.8931 4.99079 53.7749 4.99079 52.3975C4.99079 51.0218 6.10892 49.9034 7.48304 49.9034C8.85994 49.9034 9.98099 51.0218 9.98099 52.3975C9.98041 53.7749 8.85994 54.8931 7.48304 54.8931Z" fill="#586CEC"/>
</g>
<defs>
<clipPath id="clip0_82_1291">
<rect width="60" height="60" fill="white"/>
</clipPath>
</defs>
</svg>
