<svg width="38" height="38" viewBox="0 0 38 38" fill="none" xmlns="http://www.w3.org/2000/svg">
<path fill-rule="evenodd" clip-rule="evenodd" d="M8.74005 3.79998C6.01546 3.79998 3.80007 6.01537 3.80007 8.73995C3.80007 22.7771 15.2209 34.1998 29.26 34.1998C31.9826 34.1998 34.1999 31.9844 34.1999 29.2598C34.1999 29.0489 34.1866 28.8418 34.16 28.6366L25.3821 26.6227C25.2073 26.9571 25.0154 27.3199 24.8406 27.6581C23.9742 29.3111 23.3472 30.5119 21.7474 29.8678C15.466 27.6638 10.3379 22.5339 8.10545 16.1765C7.42716 14.685 8.71915 14.0086 10.3569 13.1536C10.6894 12.9788 11.0485 12.7907 11.3772 12.6197L9.36325 3.83988C9.15235 3.81328 8.94715 3.79998 8.74005 3.79998ZM29.2599 37.9998C13.1251 37.9998 0 24.8747 0 8.73996C0 3.91968 3.91968 0 8.73996 0C9.23395 0 9.72225 0.0417998 10.1953 0.123499C10.657 0.197599 11.1206 0.315398 11.5728 0.471198C12.1903 0.685897 12.6558 1.20459 12.8021 1.84299L15.4032 13.1745C15.5476 13.7977 15.3671 14.4513 14.9225 14.9149C14.6641 15.1847 14.6584 15.1904 12.3024 16.4235C14.21 20.5541 17.5255 23.8582 21.5725 25.7012C22.8075 23.3433 22.8151 23.3357 23.0849 23.0773C23.5485 22.6327 24.2059 22.4598 24.8253 22.5966L36.1587 25.1977C36.7952 25.344 37.3139 25.8076 37.5267 26.4251C37.6825 26.8735 37.8003 27.3371 37.8782 27.814C37.958 28.2833 37.9998 28.7697 37.9998 29.2599C37.9998 34.0801 34.0782 37.9998 29.2599 37.9998Z" fill="#FBFBFB"/>
<mask id="mask0_82_1073" style="mask-type:luminance" maskUnits="userSpaceOnUse" x="0" y="0" width="38" height="38">
<path fill-rule="evenodd" clip-rule="evenodd" d="M8.74005 3.79998C6.01546 3.79998 3.80007 6.01537 3.80007 8.73995C3.80007 22.7771 15.2209 34.1998 29.26 34.1998C31.9826 34.1998 34.1999 31.9844 34.1999 29.2598C34.1999 29.0489 34.1866 28.8418 34.16 28.6366L25.3821 26.6227C25.2073 26.9571 25.0154 27.3199 24.8406 27.6581C23.9742 29.3111 23.3472 30.5119 21.7474 29.8678C15.466 27.6638 10.3379 22.5339 8.10545 16.1765C7.42716 14.685 8.71915 14.0086 10.3569 13.1536C10.6894 12.9788 11.0485 12.7907 11.3772 12.6197L9.36325 3.83988C9.15235 3.81328 8.94715 3.79998 8.74005 3.79998ZM29.2599 37.9998C13.1251 37.9998 0 24.8747 0 8.73996C0 3.91968 3.91968 0 8.73996 0C9.23395 0 9.72225 0.0417998 10.1953 0.123499C10.657 0.197599 11.1206 0.315398 11.5728 0.471198C12.1903 0.685897 12.6558 1.20459 12.8021 1.84299L15.4032 13.1745C15.5476 13.7977 15.3671 14.4513 14.9225 14.9149C14.6641 15.1847 14.6584 15.1904 12.3024 16.4235C14.21 20.5541 17.5255 23.8582 21.5725 25.7012C22.8075 23.3433 22.8151 23.3357 23.0849 23.0773C23.5485 22.6327 24.2059 22.4598 24.8253 22.5966L36.1587 25.1977C36.7952 25.344 37.3139 25.8076 37.5267 26.4251C37.6825 26.8735 37.8003 27.3371 37.8782 27.814C37.958 28.2833 37.9998 28.7697 37.9998 29.2599C37.9998 34.0801 34.0782 37.9998 29.2599 37.9998Z" fill="white"/>
</mask>
<g mask="url(#mask0_82_1073)">
<rect x="-3.7998" y="-3.80005" width="45.5998" height="45.5998" fill="#FBFBFB"/>
</g>
</svg>
